

<svg width="23" height="24" viewBox="0 0 23 24" fill="none" xmlns="http://www.w3.org/2000/svg">
<path d="M21.2503 11.5436L12.0603 20.7336C10.9345 21.8594 9.40753 22.4919 7.81535 22.4919C6.22316 22.4919 4.69619 21.8594 3.57035 20.7336C2.4445 19.6077 1.81201 18.0808 1.81201 16.4886C1.81201 14.8964 2.4445 13.3694 3.57035 12.2436L12.7603 3.05357C13.5109 2.30301 14.5289 1.88135 15.5903 1.88135C16.6518 1.88135 17.6698 2.30301 18.4203 3.05357C19.1709 3.80413 19.5926 4.82212 19.5926 5.88357C19.5926 6.94503 19.1709 7.96301 18.4203 8.71357L9.22035 17.9036C8.84507 18.2789 8.33608 18.4897 7.80535 18.4897C7.27462 18.4897 6.76563 18.2789 6.39035 17.9036C6.01507 17.5283 5.80424 17.0193 5.80424 16.4886C5.80424 15.9578 6.01507 15.4489 6.39035 15.0736L14.8803 6.59357" stroke="#4F4F4F" stroke-width="2" stroke-linecap="round" stroke-linejoin="round"/>
</svg>
