<svg width="25" height="22" viewBox="0 0 25 22" fill="none" xmlns="http://www.w3.org/2000/svg">
<path d="M20.9883 3.70384H19.408L19.0129 2.46923C18.7568 1.74481 18.2817 1.11796 17.6535 0.675553C17.0252 0.233143 16.275 -0.00293453 15.5066 2.75361e-05H9.18545C8.40956 0.00147907 7.65372 0.246557 7.0246 0.700671C6.39549 1.15479 5.92487 1.795 5.67917 2.53096L5.2841 3.76557H3.70381C2.7215 3.76557 1.77942 4.15579 1.08482 4.85038C0.390222 5.54498 0 6.48706 0 7.46937V17.3462C0 18.3285 0.390222 19.2706 1.08482 19.9652C1.77942 20.6598 2.7215 21.05 3.70381 21.05H20.9883C21.9706 21.05 22.9126 20.6598 23.6072 19.9652C24.3018 19.2706 24.6921 18.3285 24.6921 17.3462V7.46937C24.7003 6.97781 24.6105 6.48954 24.428 6.03302C24.2456 5.57651 23.9741 5.16088 23.6293 4.81039C23.2846 4.45989 22.8735 4.18154 22.42 3.99156C21.9666 3.80158 21.4799 3.70377 20.9883 3.70384ZM22.2229 17.2845C22.2229 17.6119 22.0928 17.9259 21.8613 18.1575C21.6297 18.389 21.3157 18.5191 20.9883 18.5191H3.70381C3.37637 18.5191 3.06235 18.389 2.83081 18.1575C2.59928 17.9259 2.46921 17.6119 2.46921 17.2845V7.40764C2.46921 7.08021 2.59928 6.76618 2.83081 6.53465C3.06235 6.30311 3.37637 6.17304 3.70381 6.17304H6.17302C6.44224 6.18709 6.70867 6.11264 6.9316 5.96104C7.15453 5.80945 7.32172 5.58905 7.40762 5.33351L8.07431 3.30876C8.15713 3.06354 8.31493 2.85056 8.52539 2.69991C8.73586 2.54926 8.98835 2.46856 9.24718 2.46923H15.5683C15.8272 2.46856 16.0797 2.54926 16.2901 2.69991C16.5006 2.85056 16.6584 3.06354 16.7412 3.30876L17.4079 5.33351C17.4871 5.569 17.6356 5.77512 17.8338 5.9249C18.032 6.07468 18.2709 6.16116 18.519 6.17304H20.9883C21.3157 6.17304 21.6297 6.30311 21.8613 6.53465C22.0928 6.76618 22.2229 7.08021 22.2229 7.40764V17.2845ZM12.346 6.17304C11.3693 6.17304 10.4145 6.46267 9.6024 7.00531C8.79028 7.54795 8.15731 8.31923 7.78353 9.2216C7.40976 10.124 7.31196 11.1169 7.50251 12.0749C7.69306 13.0328 8.1634 13.9128 8.85405 14.6034C9.5447 15.2941 10.4246 15.7644 11.3826 15.955C12.3406 16.1455 13.3335 16.0477 14.2359 15.6739C15.1383 15.3002 15.9095 14.6672 16.4522 13.8551C16.9948 13.043 17.2844 12.0882 17.2844 11.1114C17.2844 9.8017 16.7642 8.5456 15.838 7.61947C14.9119 6.69333 13.6558 6.17304 12.346 6.17304V6.17304ZM12.346 13.5807C11.8577 13.5807 11.3803 13.4358 10.9742 13.1645C10.5682 12.8932 10.2517 12.5076 10.0648 12.0564C9.87789 11.6052 9.829 11.1087 9.92427 10.6297C10.0195 10.1508 10.2547 9.71078 10.6 9.36546C10.9454 9.02013 11.3853 8.78496 11.8643 8.68969C12.3433 8.59441 12.8398 8.64331 13.291 8.8302C13.7421 9.01709 14.1278 9.33357 14.3991 9.73963C14.6704 10.1457 14.8152 10.6231 14.8152 11.1114C14.8152 11.7663 14.5551 12.3944 14.092 12.8574C13.629 13.3205 13.0009 13.5807 12.346 13.5807Z" fill="#000000"/>
</svg>
