<svg width="25" height="25" viewBox="0 0 25 25" fill="none" xmlns="http://www.w3.org/2000/svg">
    <path d="M13.0005 0.125C11.4247 0.125 9.86436 0.435375 8.40852 1.03841C6.95267 1.64143 5.62986 2.52531 4.51561 3.63956C2.26527 5.8899 1.00105 8.94201 1.00105 12.1245C0.990556 14.8953 1.94996 17.5825 3.71293 19.7201L1.31303 22.12C1.14653 22.2888 1.03374 22.503 0.988893 22.7358C0.944046 22.9686 0.969152 23.2094 1.06104 23.428C1.16071 23.6439 1.32228 23.8253 1.52524 23.9492C1.7282 24.0731 1.9634 24.1339 2.20099 24.1239H13.0005C16.183 24.1239 19.2351 22.8597 21.4854 20.6094C23.7358 18.359 25 15.3069 25 12.1245C25 8.94201 23.7358 5.8899 21.4854 3.63956C19.2351 1.38923 16.183 0.125 13.0005 0.125ZM13.0005 21.724H5.09287L6.20882 20.6081C6.43231 20.3833 6.55775 20.0791 6.55775 19.7621C6.55775 19.4451 6.43231 19.141 6.20882 18.9162C4.63759 17.3467 3.65914 15.281 3.44017 13.071C3.2212 10.861 3.77525 8.64343 5.00794 6.79613C6.24063 4.94883 8.07568 3.58608 10.2005 2.94004C12.3252 2.29401 14.6083 2.40466 16.6606 3.25316C18.713 4.10165 20.4076 5.63549 21.4559 7.59334C22.5041 9.55119 22.8411 11.8119 22.4095 13.9904C21.9778 16.1689 20.8041 18.1303 19.0885 19.5404C17.3728 20.9506 15.2213 21.7223 13.0005 21.724Z" fill="currentColor"/>
    </svg>
    