<svg width="16" height="16" viewBox="0 0 16 16" fill="currentColor" xmlns="http://www.w3.org/2000/svg">
<path d="M13.4454 0.928932L8.14214 6.23223L2.83883 0.928932C2.60441 0.694512 2.28647 0.562816 1.95495 0.562816C1.62343 0.562816 1.30549 0.694512 1.07107 0.928932C0.836647 1.16335 0.704952 1.4813 0.704951 1.81282C0.704952 2.14434 0.836647 2.46228 1.07107 2.6967L6.37437 8L1.07107 13.3033C0.836647 13.5377 0.704952 13.8557 0.704951 14.1872C0.704952 14.5187 0.836647 14.8366 1.07107 15.0711C1.30549 15.3055 1.62343 15.4372 1.95495 15.4372C2.28647 15.4372 2.60441 15.3055 2.83883 15.0711L8.14214 9.76777L13.4454 15.0711C13.6799 15.3055 13.9978 15.4372 14.3293 15.4372C14.6608 15.4372 14.9788 15.3055 15.2132 15.0711C15.4476 14.8366 15.5793 14.5187 15.5793 14.1872C15.5793 13.8557 15.4476 13.5377 15.2132 13.3033L9.9099 8L15.2132 2.6967C15.4476 2.46228 15.5793 2.14434 15.5793 1.81282C15.5793 1.48129 15.4476 1.16335 15.2132 0.928932C14.9788 0.694512 14.6608 0.562815 14.3293 0.562815C13.9978 0.562816 13.6799 0.694512 13.4454 0.928932Z" fill="currentColor"/>
</svg>
