<svg width="25" height="24" viewBox="0 0 25 24" fill="none" xmlns="http://www.w3.org/2000/svg">
    <path d="M18.533 8.39963H6.53356C6.21531 8.39963 5.9101 8.52605 5.68507 8.75108C5.46003 8.97612 5.33361 9.28133 5.33361 9.59958C5.33361 9.91782 5.46003 10.223 5.68507 10.4481C5.9101 10.6731 6.21531 10.7995 6.53356 10.7995H18.533C18.8513 10.7995 19.1565 10.6731 19.3815 10.4481C19.6066 10.223 19.733 9.91782 19.733 9.59958C19.733 9.28133 19.6066 8.97612 19.3815 8.75108C19.1565 8.52605 18.8513 8.39963 18.533 8.39963ZM13.7332 13.1994H6.53356C6.21531 13.1994 5.9101 13.3258 5.68507 13.5509C5.46003 13.7759 5.33361 14.0811 5.33361 14.3994C5.33361 14.7176 5.46003 15.0228 5.68507 15.2479C5.9101 15.4729 6.21531 15.5993 6.53356 15.5993H13.7332C14.0515 15.5993 14.3567 15.4729 14.5817 15.2479C14.8068 15.0228 14.9332 14.7176 14.9332 14.3994C14.9332 14.0811 14.8068 13.7759 14.5817 13.5509C14.3567 13.3258 14.0515 13.1994 13.7332 13.1994ZM12.5333 0C10.9575 0 9.39714 0.310376 7.94129 0.913405C6.48545 1.51643 5.16264 2.40031 4.04839 3.51456C1.79805 5.7649 0.533822 8.81701 0.533822 11.9995C0.523332 14.7703 1.48273 17.4575 3.2457 19.5951L0.845808 21.995C0.679307 22.1638 0.566516 22.378 0.521669 22.6108C0.476822 22.8436 0.501928 23.0844 0.593819 23.303C0.693484 23.5189 0.855053 23.7003 1.05802 23.8242C1.26098 23.9481 1.49618 24.0089 1.73377 23.9989H12.5333C15.7157 23.9989 18.7679 22.7347 21.0182 20.4844C23.2685 18.234 24.5328 15.1819 24.5328 11.9995C24.5328 8.81701 23.2685 5.7649 21.0182 3.51456C18.7679 1.26423 15.7157 0 12.5333 0ZM12.5333 21.599H4.62564L5.74159 20.4831C5.96508 20.2583 6.09053 19.9541 6.09053 19.6371C6.09053 19.3201 5.96508 19.016 5.74159 18.7912C4.17036 17.2217 3.19191 15.156 2.97294 12.946C2.75397 10.736 3.30803 8.51843 4.54072 6.67113C5.7734 4.82383 7.60846 3.46108 9.73323 2.81504C11.858 2.16901 14.1411 2.27966 16.1934 3.12816C18.2457 3.97665 19.9404 5.51049 20.9886 7.46834C22.0369 9.42619 22.3739 11.6869 21.9422 13.8654C21.5106 16.0439 20.3369 18.0053 18.6213 19.4154C16.9056 20.8256 14.7541 21.5973 12.5333 21.599Z" fill="currentColor"/>
    </svg>
    