<svg width="21" height="20" viewBox="0 0 21 20" fill="none" xmlns="http://www.w3.org/2000/svg">
    <path d="M17.0571 4.87012H14.0571V3.87012C14.0571 3.07447 13.7411 2.31141 13.1784 1.7488C12.6158 1.18619 11.8528 0.870117 11.0571 0.870117H9.05713C8.26148 0.870117 7.49842 1.18619 6.93581 1.7488C6.3732 2.31141 6.05713 3.07447 6.05713 3.87012V4.87012H3.05713C2.26148 4.87012 1.49842 5.18619 0.935809 5.7488C0.3732 6.31141 0.0571289 7.07447 0.0571289 7.87012V16.8701C0.0571289 17.6658 0.3732 18.4288 0.935809 18.9914C1.49842 19.554 2.26148 19.8701 3.05713 19.8701H17.0571C17.8528 19.8701 18.6158 19.554 19.1784 18.9914C19.7411 18.4288 20.0571 17.6658 20.0571 16.8701V7.87012C20.0571 7.07447 19.7411 6.31141 19.1784 5.7488C18.6158 5.18619 17.8528 4.87012 17.0571 4.87012ZM8.05713 3.87012C8.05713 3.6049 8.16249 3.35055 8.35002 3.16301C8.53756 2.97547 8.79191 2.87012 9.05713 2.87012H11.0571C11.3223 2.87012 11.5767 2.97547 11.7642 3.16301C11.9518 3.35055 12.0571 3.6049 12.0571 3.87012V4.87012H8.05713V3.87012ZM18.0571 16.8701C18.0571 17.1353 17.9518 17.3897 17.7642 17.5772C17.5767 17.7648 17.3223 17.8701 17.0571 17.8701H3.05713C2.79191 17.8701 2.53756 17.7648 2.35002 17.5772C2.16249 17.3897 2.05713 17.1353 2.05713 16.8701V11.3701C3.03257 11.757 4.03531 12.0712 5.05713 12.3101V12.9001C5.05713 13.1653 5.16249 13.4197 5.35002 13.6072C5.53756 13.7948 5.79191 13.9001 6.05713 13.9001C6.32235 13.9001 6.5767 13.7948 6.76424 13.6072C6.95177 13.4197 7.05713 13.1653 7.05713 12.9001V12.6901C8.05148 12.8255 9.05362 12.8956 10.0571 12.9001C11.0606 12.8956 12.0628 12.8255 13.0571 12.6901V12.9001C13.0571 13.1653 13.1625 13.4197 13.35 13.6072C13.5376 13.7948 13.7919 13.9001 14.0571 13.9001C14.3223 13.9001 14.5767 13.7948 14.7642 13.6072C14.9518 13.4197 15.0571 13.1653 15.0571 12.9001V12.3101C16.0789 12.0712 17.0817 11.757 18.0571 11.3701V16.8701ZM18.0571 9.18012C17.0845 9.59061 16.0815 9.92495 15.0571 10.1801V9.87012C15.0571 9.6049 14.9518 9.35055 14.7642 9.16301C14.5767 8.97547 14.3223 8.87012 14.0571 8.87012C13.7919 8.87012 13.5376 8.97547 13.35 9.16301C13.1625 9.35055 13.0571 9.6049 13.0571 9.87012V10.6101C11.0684 10.9102 9.04588 10.9102 7.05713 10.6101V9.87012C7.05713 9.6049 6.95177 9.35055 6.76424 9.16301C6.5767 8.97547 6.32235 8.87012 6.05713 8.87012C5.79191 8.87012 5.53756 8.97547 5.35002 9.16301C5.16249 9.35055 5.05713 9.6049 5.05713 9.87012V10.2001C4.03275 9.94495 3.02973 9.61061 2.05713 9.20012V7.87012C2.05713 7.6049 2.16249 7.35055 2.35002 7.16301C2.53756 6.97547 2.79191 6.87012 3.05713 6.87012H17.0571C17.3223 6.87012 17.5767 6.97547 17.7642 7.16301C17.9518 7.35055 18.0571 7.6049 18.0571 7.87012V9.18012Z" fill="#696969"/>
    </svg>
    