<svg width="16" height="21" viewBox="0 0 16 21" fill="none" xmlns="http://www.w3.org/2000/svg">
<path d="M15.9185 7.09863C15.844 6.92735 15.723 6.78036 15.5692 6.67432C15.4154 6.56827 15.235 6.50741 15.0485 6.49863H10.4685L11.7385 1.75863C11.7789 1.61031 11.7846 1.45465 11.7551 1.30377C11.7256 1.15288 11.6618 1.01082 11.5685 0.888633C11.4753 0.767619 11.3557 0.669548 11.2187 0.601945C11.0818 0.534341 10.9312 0.499 10.7785 0.498633H3.77846C3.5527 0.4909 3.33097 0.559833 3.14938 0.694205C2.9678 0.828577 2.83706 1.02047 2.77846 1.23863L0.0984614 11.2386C0.0580136 11.387 0.0523098 11.5426 0.0817936 11.6935C0.111277 11.8444 0.175154 11.9864 0.268461 12.1086C0.362646 12.231 0.483887 12.3299 0.622682 12.3975C0.761477 12.4652 0.914056 12.4998 1.06846 12.4986H4.93846L3.12846 19.2386C3.06916 19.456 3.08498 19.687 3.17336 19.8942C3.26175 20.1014 3.41751 20.2727 3.61542 20.3804C3.81333 20.488 4.04178 20.5256 4.26376 20.4872C4.48575 20.4488 4.68825 20.3365 4.83846 20.1686L15.7385 8.16863C15.8683 8.02652 15.9543 7.84997 15.9862 7.66017C16.0181 7.47037 15.9946 7.27539 15.9185 7.09863ZM6.12846 15.7786L7.19846 11.7786C7.23891 11.6303 7.24461 11.4747 7.21513 11.3238C7.18565 11.1729 7.12177 11.0308 7.02846 10.9086C6.9353 10.7876 6.81567 10.6895 6.67873 10.6219C6.54179 10.5543 6.39118 10.519 6.23846 10.5186H2.39846L4.53846 2.49863H9.46846L8.19846 7.23863C8.15769 7.38969 8.15293 7.5482 8.18457 7.70144C8.2162 7.85467 8.28335 7.99833 8.38062 8.12089C8.47789 8.24344 8.60255 8.34147 8.74459 8.40707C8.88664 8.47268 9.04209 8.50404 9.19846 8.49863H12.7685L6.12846 15.7786Z" fill="#797C7B"/>
</svg>
