<svg width="21" height="20" viewBox="0 0 21 20" fill="none" xmlns="http://www.w3.org/2000/svg">
	<path d="M17.6868 4.81012C16.6679 4.27456 15.4796 4.15968 14.3769 4.49012C14.3232 3.36859 13.8398 2.31075 13.0271 1.53602C12.2144 0.761287 11.1347 0.329102 10.0118 0.329102C8.88903 0.329102 7.8093 0.761287 6.99659 1.53602C6.18387 2.31075 5.70055 3.36859 5.64685 4.49012C4.54713 4.15893 3.36222 4.26274 2.33685 4.78012C1.58174 5.177 0.959311 5.78621 0.546308 6.53263C0.133305 7.27904 -0.0522062 8.13001 0.0126509 8.98059C0.0775081 9.83118 0.389898 10.6442 0.911296 11.3193C1.43269 11.9945 2.1403 12.5023 2.94685 12.7801C2.43204 13.5126 2.15295 14.3848 2.14685 15.2801C2.15129 15.5315 2.17469 15.7822 2.21685 16.0301C2.38525 17.0457 2.90915 17.9683 3.69499 18.6332C4.48083 19.2982 5.47744 19.6621 6.50685 19.6601C6.71993 19.6747 6.93377 19.6747 7.14685 19.6601C8.28988 19.48 9.31672 18.8589 10.0068 17.9301C10.7042 18.8439 11.73 19.4501 12.8668 19.6201C13.0799 19.6347 13.2938 19.6347 13.5068 19.6201C14.305 19.6192 15.0876 19.3992 15.7693 18.9841C16.451 18.569 17.0057 17.9748 17.3729 17.2661C17.7402 16.5575 17.9058 15.7616 17.8518 14.9653C17.7979 14.169 17.5263 13.4027 17.0668 12.7501C17.8773 12.4771 18.5896 11.9718 19.1151 11.297C19.6405 10.6222 19.9559 9.80779 20.022 8.95512C20.0881 8.10244 19.902 7.24916 19.4867 6.50148C19.0715 5.7538 18.4456 5.14474 17.6868 4.75012V4.81012ZM8.34685 2.87012C8.79359 2.44227 9.38828 2.20344 10.0068 2.20344C10.6254 2.20344 11.2201 2.44227 11.6668 2.87012C12.0079 3.2117 12.2395 3.64714 12.3321 4.12088C12.4248 4.59463 12.3742 5.08523 12.1868 5.53012L11.9268 6.12012L11.2668 6.70012C10.8611 6.56083 10.4358 6.48658 10.0068 6.48012C9.45242 6.48065 8.90415 6.59643 8.39685 6.82012L7.83685 5.53012C7.64278 5.0872 7.58763 4.59582 7.67868 4.1209C7.76974 3.64598 8.00272 3.20985 8.34685 2.87012ZM2.24685 9.71012C2.02361 9.21888 1.97467 8.66617 2.10814 8.14336C2.2416 7.62055 2.54947 7.15892 2.98086 6.8348C3.41224 6.51068 3.94131 6.34346 4.48062 6.3608C5.01992 6.37813 5.53717 6.57897 5.94685 6.93012L6.43685 7.36012L6.78685 8.16012C6.28589 8.83038 6.01257 9.64335 6.00685 10.4801C5.99499 10.6299 5.99499 10.7803 6.00685 10.9301H5.45685L4.61685 11.0101C4.1364 11.0608 3.65192 10.9635 3.22834 10.7311C2.80476 10.4988 2.4623 10.1425 2.24685 9.71012ZM8.84685 15.7901C8.72647 16.324 8.42579 16.8 7.99547 17.1381C7.56514 17.4761 7.03146 17.6556 6.4843 17.6462C5.93714 17.6368 5.40993 17.4391 4.99146 17.0865C4.573 16.7339 4.28884 16.2478 4.18685 15.7101C4.17726 15.5703 4.17726 15.43 4.18685 15.2901C4.19047 14.8837 4.30037 14.4852 4.50561 14.1344C4.71086 13.7835 5.00432 13.4925 5.35685 13.2901L5.86685 12.9301L6.77685 12.8301C7.3504 13.628 8.1976 14.1869 9.15685 14.4001L8.84685 15.7901ZM10.0068 12.4801C9.61129 12.4801 9.22461 12.3628 8.89571 12.1431C8.56681 11.9233 8.31046 11.6109 8.15909 11.2455C8.00772 10.88 7.96811 10.4779 8.04528 10.0899C8.12245 9.70197 8.31293 9.34561 8.59264 9.0659C8.87234 8.7862 9.22871 8.59572 9.61667 8.51855C10.0046 8.44137 10.4068 8.48098 10.7722 8.63236C11.1377 8.78373 11.45 9.04008 11.6698 9.36898C11.8896 9.69787 12.0068 10.0846 12.0068 10.4801C12.0068 11.0105 11.7961 11.5193 11.4211 11.8943C11.046 12.2694 10.5373 12.4801 10.0068 12.4801ZM15.8268 15.7001C15.7237 16.3103 15.385 16.8555 14.8837 17.2184C14.3824 17.5812 13.7587 17.7327 13.1468 17.6401C12.6647 17.5722 12.2149 17.3586 11.8574 17.028C11.5 16.6974 11.2521 16.2655 11.1468 15.7901L11.0068 15.1901L11.2168 14.2701C12.1394 13.9697 12.9212 13.3442 13.4168 12.5101L13.9168 12.8101H14.0068L14.6668 13.2001C15.0957 13.445 15.4377 13.8172 15.6455 14.2651C15.8534 14.7131 15.9167 15.2146 15.8268 15.7001ZM17.7668 9.70012C17.5702 10.0976 17.2668 10.4325 16.8906 10.6674C16.5144 10.9023 16.0803 11.0279 15.6368 11.0301H15.3968L14.7568 10.9301L14.0068 10.5201C14.0055 9.54783 13.65 8.60933 13.0068 7.88012L13.4368 7.51012L14.0668 6.93012C14.4777 6.56486 15.0028 6.35379 15.5521 6.33305C16.1015 6.3123 16.6409 6.48318 17.0782 6.81642C17.5154 7.14966 17.8232 7.62453 17.9488 8.15972C18.0744 8.69491 18.0101 9.25713 17.7668 9.75012V9.70012Z" fill="#696969" />
</svg>
