<svg width="32" height="25" viewBox="0 0 32 25" fill="none" xmlns="http://www.w3.org/2000/svg">
<path d="M15.9529 12.3206C16.7062 11.6686 17.3104 10.8621 17.7245 9.95592C18.1386 9.04977 18.353 8.06513 18.3529 7.06883C18.3529 5.19672 17.6092 3.40128 16.2855 2.07749C14.9617 0.753706 13.1662 0.01001 11.2941 0.01001C9.422 0.01001 7.62656 0.753706 6.30278 2.07749C4.97899 3.40128 4.23529 5.19672 4.23529 7.06883C4.23528 8.06513 4.4496 9.04977 4.86371 9.95592C5.27781 10.8621 5.88201 11.6686 6.63529 12.3206C4.65902 13.2155 2.9823 14.6606 1.80562 16.4832C0.628934 18.3059 0.00207791 20.4288 0 22.5982C0 22.9727 0.148739 23.3318 0.413496 23.5965C0.678253 23.8613 1.03734 24.01 1.41176 24.01C1.78619 24.01 2.14528 23.8613 2.41003 23.5965C2.67479 23.3318 2.82353 22.9727 2.82353 22.5982C2.82353 20.3517 3.71596 18.1972 5.30451 16.6086C6.89305 15.0201 9.04758 14.1277 11.2941 14.1277C13.5407 14.1277 15.6952 15.0201 17.2837 16.6086C18.8723 18.1972 19.7647 20.3517 19.7647 22.5982C19.7647 22.9727 19.9134 23.3318 20.1782 23.5965C20.443 23.8613 20.802 24.01 21.1765 24.01C21.5509 24.01 21.91 23.8613 22.1747 23.5965C22.4395 23.3318 22.5882 22.9727 22.5882 22.5982C22.5862 20.4288 21.9593 18.3059 20.7826 16.4832C19.6059 14.6606 17.9292 13.2155 15.9529 12.3206ZM11.2941 11.3041C10.4565 11.3041 9.6376 11.0557 8.94111 10.5904C8.24462 10.125 7.70178 9.46351 7.38122 8.68961C7.06066 7.91571 6.97678 7.06414 7.1402 6.24257C7.30362 5.421 7.707 4.66635 8.29931 4.07403C8.89163 3.48171 9.64629 3.07834 10.4679 2.91492C11.2894 2.7515 12.141 2.83537 12.9149 3.15593C13.6888 3.47649 14.3503 4.01934 14.8156 4.71583C15.281 5.41232 15.5294 6.23117 15.5294 7.06883C15.5294 8.1921 15.0832 9.26937 14.2889 10.0636C13.4947 10.8579 12.4174 11.3041 11.2941 11.3041ZM25.0447 11.7559C25.9482 10.7385 26.5384 9.48162 26.7442 8.13661C26.95 6.7916 26.7627 5.41576 26.2048 4.17472C25.647 2.93367 24.7423 1.88031 23.5997 1.14143C22.4571 0.402551 21.1254 0.00964609 19.7647 0.01001C19.3903 0.01001 19.0312 0.158749 18.7664 0.423506C18.5017 0.688264 18.3529 1.04735 18.3529 1.42177C18.3529 1.7962 18.5017 2.15529 18.7664 2.42004C19.0312 2.6848 19.3903 2.83354 19.7647 2.83354C20.888 2.83354 21.9652 3.27976 22.7595 4.07403C23.5538 4.8683 24 5.94556 24 7.06883C23.998 7.81035 23.8014 8.53834 23.4297 9.18002C23.0581 9.82169 22.5245 10.3545 21.8824 10.7253C21.673 10.846 21.4982 11.0185 21.3746 11.2261C21.251 11.4338 21.1828 11.6696 21.1765 11.9112C21.1706 12.1509 21.2258 12.3881 21.3369 12.6005C21.4481 12.8129 21.6115 12.9935 21.8118 13.1253L22.3624 13.4924L22.5459 13.5912C24.2476 14.3983 25.6833 15.6749 26.6837 17.2707C27.6842 18.8664 28.2078 20.7149 28.1929 22.5982C28.1929 22.9727 28.3417 23.3318 28.6064 23.5965C28.8712 23.8613 29.2303 24.01 29.6047 24.01C29.9791 24.01 30.3382 23.8613 30.603 23.5965C30.8677 23.3318 31.0165 22.9727 31.0165 22.5982C31.028 20.4318 30.4854 18.2984 29.4402 16.4007C28.395 14.503 26.8819 12.9041 25.0447 11.7559Z" fill="#696969"/>
</svg>
