<svg width="28" height="27" viewBox="0 0 28 27" fill="none" xmlns="http://www.w3.org/2000/svg">
<path d="M19.4293 22.8024L18.6613 16.6536C18.5525 15.7827 18.1292 14.9815 17.4711 14.4007C16.813 13.82 15.9654 13.4997 15.0877 13.5H12.4429C11.5656 13.5002 10.7186 13.8208 10.061 14.4015C9.40341 14.9822 8.98049 15.7831 8.87171 16.6536L8.10251 22.8024C8.06029 23.1402 8.09043 23.4831 8.19092 23.8084C8.29141 24.1337 8.45995 24.4339 8.68535 24.689C8.91076 24.9441 9.18786 25.1484 9.49826 25.2882C9.80867 25.4281 10.1453 25.5002 10.4857 25.5H17.0473C17.3876 25.5001 17.7241 25.4278 18.0344 25.2879C18.3446 25.148 18.6216 24.9437 18.8469 24.6886C19.0721 24.4334 19.2406 24.1333 19.341 23.8081C19.4414 23.4829 19.4715 23.1401 19.4293 22.8024V22.8024Z" stroke="#696969" stroke-width="2" stroke-linecap="round" stroke-linejoin="round"/>
<path d="M13.7699 8.7C15.7581 8.7 17.3699 7.08823 17.3699 5.1C17.3699 3.11178 15.7581 1.5 13.7699 1.5C11.7817 1.5 10.1699 3.11178 10.1699 5.1C10.1699 7.08823 11.7817 8.7 13.7699 8.7Z" stroke="#696969" stroke-width="2"/>
<path d="M4.16367 12.3C5.48915 12.3 6.56367 11.2255 6.56367 9.9C6.56367 8.57452 5.48915 7.5 4.16367 7.5C2.83819 7.5 1.76367 8.57452 1.76367 9.9C1.76367 11.2255 2.83819 12.3 4.16367 12.3Z" stroke="#696969" stroke-width="2"/>
<path d="M23.3668 12.3C24.6923 12.3 25.7668 11.2255 25.7668 9.9C25.7668 8.57452 24.6923 7.5 23.3668 7.5C22.0413 7.5 20.9668 8.57452 20.9668 9.9C20.9668 11.2255 22.0413 12.3 23.3668 12.3Z" stroke="#696969" stroke-width="2"/>
<path d="M23.3671 15.8984H23.7343C24.3024 15.8984 24.8522 16.0998 25.2857 16.467C25.7192 16.8342 26.0084 17.3433 26.1019 17.9036L26.5015 20.3036C26.5588 20.6475 26.5406 20.9997 26.448 21.3358C26.3554 21.6719 26.1908 21.9838 25.9654 22.2498C25.7401 22.5157 25.4595 22.7295 25.1432 22.876C24.8269 23.0226 24.4825 23.0985 24.1339 23.0984H19.7671M4.1671 15.8984H3.7999C3.23177 15.8984 2.68204 16.0998 2.24851 16.467C1.81497 16.8342 1.52575 17.3433 1.4323 17.9036L1.0327 20.3036C0.97535 20.6475 0.993601 20.9997 1.08618 21.3358C1.17876 21.6719 1.34344 21.9838 1.56877 22.2498C1.7941 22.5157 2.07467 22.7295 2.39097 22.876C2.70726 23.0226 3.05169 23.0985 3.4003 23.0984H7.7671L4.1671 15.8984Z" stroke="#696969" stroke-width="2" stroke-linecap="round" stroke-linejoin="round"/>
</svg>
