<svg width="24" height="25" viewBox="0 0 24 25" fill="none" xmlns="http://www.w3.org/2000/svg">
<path d="M23.6144 5.93884L21.9134 4.24748L23.6144 2.55613C23.8399 2.33025 23.9667 2.02389 23.9667 1.70445C23.9667 1.38501 23.8399 1.07865 23.6144 0.852776C23.3888 0.626897 23.0829 0.5 22.7639 0.5C22.4449 0.5 22.1389 0.626897 21.9134 0.852776L9.28776 13.496C8.0492 12.6777 6.55141 12.3489 5.08461 12.5734C3.61781 12.7979 2.28643 13.5596 1.34845 14.7109C0.410474 15.8623 -0.0673174 17.3213 0.00765575 18.8053C0.0826289 20.2893 0.705029 21.6926 1.75426 22.7433C2.80348 23.794 4.20483 24.4173 5.68677 24.4923C7.1687 24.5674 8.62571 24.089 9.77547 23.1497C10.9252 22.2104 11.6859 20.8772 11.91 19.4083C12.1342 17.9395 11.8059 16.4396 10.9887 15.1993L16.8344 9.33355L18.5234 11.0369C18.6353 11.1481 18.7681 11.236 18.914 11.2957C19.06 11.3554 19.2162 11.3857 19.3739 11.3848C19.5315 11.3857 19.6878 11.3554 19.8338 11.2957C19.9797 11.236 20.1124 11.1481 20.2244 11.0369C20.3366 10.9254 20.4258 10.7927 20.4866 10.6465C20.5474 10.5004 20.5787 10.3436 20.5787 10.1852C20.5787 10.0269 20.5474 9.87009 20.4866 9.72391C20.4258 9.57774 20.3366 9.44506 20.2244 9.33355L18.5234 7.70217L20.2244 5.99882L21.9134 7.70217C22.0253 7.81335 22.1581 7.9013 22.304 7.961C22.4499 8.02069 22.6062 8.05095 22.7639 8.05004C22.9215 8.05095 23.0778 8.02069 23.2237 7.961C23.3697 7.9013 23.5024 7.81335 23.6144 7.70217C23.736 7.58984 23.833 7.45351 23.8994 7.30177C23.9657 7.15003 24 6.98617 24 6.82051C24 6.65485 23.9657 6.49098 23.8994 6.33924C23.833 6.1875 23.736 6.05117 23.6144 5.93884ZM5.99359 22.0967C5.28284 22.0967 4.58805 21.8856 3.99708 21.4902C3.40611 21.0948 2.94551 20.5328 2.67351 19.8752C2.40152 19.2176 2.33035 18.4941 2.46901 17.796C2.60768 17.0979 2.94994 16.4567 3.45251 15.9534C3.95509 15.4502 4.59542 15.1074 5.29251 14.9686C5.98961 14.8297 6.71217 14.901 7.36882 15.1734C8.02547 15.4457 8.58672 15.907 8.98159 16.4988C9.37646 17.0906 9.58722 17.7863 9.58722 18.4981C9.58722 19.4525 9.20861 20.3678 8.53468 21.0427C7.86074 21.7176 6.94668 22.0967 5.99359 22.0967Z" fill="#696966"/>
</svg>
