<svg width="24" height="25" viewBox="0 0 24 25" fill="none" xmlns="http://www.w3.org/2000/svg">
<path d="M12 0.5C9.62663 0.5 7.30655 1.20379 5.33316 2.52236C3.35977 3.84094 1.8217 5.71508 0.913451 7.9078C0.00519943 10.1005 -0.232441 12.5133 0.230582 14.8411C0.693605 17.1689 1.83649 19.307 3.51472 20.9853C5.19295 22.6635 7.33115 23.8064 9.65892 24.2694C11.9867 24.7324 14.3995 24.4948 16.5922 23.5865C18.7849 22.6783 20.6591 21.1402 21.9776 19.1668C23.2962 17.1934 24 14.8734 24 12.5C24 10.9241 23.6896 9.3637 23.0866 7.9078C22.4835 6.45189 21.5996 5.12902 20.4853 4.01472C19.371 2.90041 18.0481 2.0165 16.5922 1.41345C15.1363 0.810389 13.5759 0.5 12 0.5ZM12 22.1C9.45393 22.1 7.01213 21.0886 5.21178 19.2882C3.41143 17.4879 2.40001 15.0461 2.40001 12.5C2.39735 10.368 3.11162 8.29705 4.428 6.62L17.88 20.072C16.2029 21.3884 14.132 22.1026 12 22.1ZM19.572 18.38L6.12 4.928C7.79706 3.61162 9.86802 2.89735 12 2.9C14.5461 2.9 16.9879 3.91143 18.7882 5.71177C20.5886 7.51212 21.6 9.95392 21.6 12.5C21.6027 14.632 20.8884 16.7029 19.572 18.38Z" fill="#696969"/>
</svg>
