<svg width="24" height="25" viewBox="0 0 24 25" fill="none" xmlns="http://www.w3.org/2000/svg">
<path d="M11.148 16.448C11.0964 16.505 11.0483 16.5651 11.004 16.628C10.9586 16.6949 10.9223 16.7675 10.896 16.844C10.8614 16.912 10.8371 16.9848 10.824 17.06C10.8181 17.1399 10.8181 17.2201 10.824 17.3C10.8199 17.4574 10.8528 17.6136 10.92 17.756C10.9739 17.9049 11.0599 18.0402 11.1719 18.1521C11.2838 18.2641 11.4191 18.3501 11.568 18.404C11.7116 18.4675 11.867 18.5003 12.024 18.5003C12.181 18.5003 12.3364 18.4675 12.48 18.404C12.6289 18.3501 12.7642 18.2641 12.8761 18.1521C12.9881 18.0402 13.0741 17.9049 13.128 17.756C13.1813 17.6101 13.2057 17.4552 13.2 17.3C13.2009 17.1421 13.1706 16.9855 13.1109 16.8393C13.0512 16.6931 12.9632 16.5601 12.852 16.448C12.7404 16.3355 12.6077 16.2462 12.4615 16.1853C12.3153 16.1244 12.1584 16.093 12 16.093C11.8416 16.093 11.6847 16.1244 11.5385 16.1853C11.3923 16.2462 11.2596 16.3355 11.148 16.448ZM12 0.5C9.62663 0.5 7.30655 1.20379 5.33316 2.52236C3.35977 3.84094 1.8217 5.71508 0.913451 7.9078C0.00519941 10.1005 -0.232441 12.5133 0.230582 14.8411C0.693605 17.1689 1.83649 19.307 3.51472 20.9853C5.19295 22.6635 7.33115 23.8064 9.65892 24.2694C11.9867 24.7324 14.3995 24.4948 16.5922 23.5865C18.7849 22.6783 20.6591 21.1402 21.9776 19.1668C23.2962 17.1934 24 14.8734 24 12.5C24 10.9241 23.6896 9.3637 23.0866 7.9078C22.4835 6.45189 21.5996 5.12902 20.4853 4.01472C19.371 2.90041 18.0481 2.0165 16.5922 1.41345C15.1363 0.810389 13.5759 0.5 12 0.5ZM12 22.1C10.1013 22.1 8.24524 21.537 6.66653 20.4821C5.08782 19.4272 3.85736 17.9279 3.13076 16.1738C2.40416 14.4196 2.21405 12.4893 2.58447 10.6271C2.95488 8.76491 3.8692 7.05436 5.21178 5.71177C6.55436 4.36919 8.26492 3.45488 10.1271 3.08446C11.9894 2.71404 13.9196 2.90415 15.6738 3.63076C17.4279 4.35736 18.9272 5.58781 19.9821 7.16652C21.037 8.74524 21.6 10.6013 21.6 12.5C21.6 15.0461 20.5886 17.4879 18.7882 19.2882C16.9879 21.0886 14.5461 22.1 12 22.1ZM12 6.5C11.3677 6.49959 10.7464 6.66574 10.1987 6.98173C9.65099 7.29772 9.19617 7.75239 8.88 8.3C8.79318 8.43658 8.73488 8.58931 8.70861 8.74901C8.68235 8.90871 8.68865 9.07207 8.72716 9.22926C8.76566 9.38646 8.83557 9.53424 8.93267 9.66372C9.02976 9.7932 9.15205 9.9017 9.29217 9.98269C9.43229 10.0637 9.58734 10.1155 9.748 10.135C9.90867 10.1545 10.0716 10.1413 10.227 10.0962C10.3825 10.0512 10.5272 9.97509 10.6525 9.87262C10.7777 9.77015 10.881 9.6434 10.956 9.5C11.0617 9.31687 11.214 9.16494 11.3973 9.05957C11.5806 8.95421 11.7886 8.89916 12 8.9C12.3183 8.9 12.6235 9.02643 12.8485 9.25147C13.0736 9.47651 13.2 9.78174 13.2 10.1C13.2 10.4183 13.0736 10.7235 12.8485 10.9485C12.6235 11.1736 12.3183 11.3 12 11.3C11.6817 11.3 11.3765 11.4264 11.1515 11.6515C10.9264 11.8765 10.8 12.1817 10.8 12.5V13.7C10.8 14.0183 10.9264 14.3235 11.1515 14.5485C11.3765 14.7736 11.6817 14.9 12 14.9C12.3183 14.9 12.6235 14.7736 12.8485 14.5485C13.0736 14.3235 13.2 14.0183 13.2 13.7V13.484C13.9936 13.196 14.6608 12.6383 15.0849 11.9082C15.509 11.1782 15.6631 10.3223 15.5201 9.49027C15.3771 8.65818 14.9462 7.90282 14.3028 7.35622C13.6593 6.80961 12.8443 6.50655 12 6.5Z" fill="#696969"/>
</svg>
