<svg width="382" height="320" viewBox="0 0 382 320" fill="none" xmlns="http://www.w3.org/2000/svg">
<path opacity="0.35" fill-rule="evenodd" clip-rule="evenodd" d="M64.3832 297.45C98.7572 322.962 205.34 284.106 277.763 270.232C309.007 264.246 416.856 259.819 352.957 160.572C143.443 -164.842 -44.5313 216.615 64.3832 297.45Z" fill="#F1C091"/>
<path fill-rule="evenodd" clip-rule="evenodd" d="M50.3962 265.16C77.6734 294.852 183.156 277.796 252.611 277.796C282.574 277.796 383.127 292.813 341.605 189.679C205.459 -148.482 -36.0318 171.08 50.3962 265.16Z" fill="#FFC085"/>
<path fill-rule="evenodd" clip-rule="evenodd" d="M171.086 267.548C171.219 267.447 171.357 267.336 171.415 267.179C171.6 266.676 170.874 266.342 170.338 266.354C169.561 266.372 168.564 266.896 168.802 267.636C168.94 268.065 169.467 268.263 169.91 268.184C170.353 268.105 170.729 267.823 171.086 267.548H171.086ZM181.007 259.077C181.981 259.383 182.943 259.761 183.792 260.329C185.385 261.396 186.47 263.052 187.51 264.663C188.256 265.818 189.012 266.995 189.384 268.319C189.787 269.752 189.715 271.282 189.445 272.746C188.604 277.307 185.789 281.469 181.869 283.948C177.949 286.427 172.982 287.185 168.501 285.989C167.628 285.757 166.75 285.439 166.079 284.835C165.515 284.328 165.135 283.651 164.788 282.977C162.962 279.438 161.732 275.507 161.872 271.527C162.013 267.548 163.649 263.521 166.747 261.02C170.636 257.881 176.239 257.581 181.007 259.077" fill="white"/>
<path fill-rule="evenodd" clip-rule="evenodd" d="M297.401 128.287C296.114 128.271 294.906 129.35 294.779 130.631C294.727 131.155 294.949 131.806 295.47 131.878C295.861 131.932 296.203 131.63 296.466 131.336C297.021 130.714 297.498 130.021 297.882 129.281C298.011 129.032 298.124 128.714 297.955 128.491C297.831 128.328 297.605 128.289 297.401 128.287ZM302.135 122.787C305.169 123.846 307.919 125.707 310.029 128.132C311.842 130.215 313.223 132.919 312.842 135.655C312.702 136.659 312.331 137.617 311.909 138.538C310.308 142.029 307.556 145.374 303.776 146.05C301.793 146.405 299.749 145.98 297.842 145.331C295.636 144.58 293.533 143.528 291.611 142.212C290.591 141.514 289.578 140.686 289.131 139.534C288.823 138.74 288.814 137.865 288.825 137.014C288.854 134.907 288.993 132.766 289.728 130.791C290.657 128.294 292.475 126.232 294.402 124.391C295.178 123.651 296 122.922 296.995 122.525C298.624 121.876 300.48 122.209 302.135 122.787Z" fill="white"/>
<path fill-rule="evenodd" clip-rule="evenodd" d="M297.404 30.981C304.968 38.7819 310.938 48.1099 314.847 58.2331C315.115 58.9284 315.375 59.7007 315.119 60.4006C313.148 65.7895 309.343 70.2821 305.612 74.6505C303.228 77.4419 300.843 80.2333 298.459 83.0247C296.183 85.6895 293.907 88.3547 291.554 90.9525C279.575 104.179 265.42 115.745 249.026 122.861C248.407 123.13 247.744 123.397 247.078 123.29C246.411 123.183 245.787 122.538 245.961 121.889C247.988 114.341 250.028 106.45 248.402 98.8063C248.009 96.9626 247.572 94.6413 249.101 93.5319C261.483 84.5499 270.397 71.7114 278.94 59.0472C281.088 55.8628 283.231 52.6697 285.132 49.3329C288.507 43.4087 291.106 37.0464 292.843 30.458C293.082 29.5539 294.227 29.1468 295.135 29.3837C296.043 29.6206 296.752 30.3087 297.404 30.981" fill="white"/>
<path fill-rule="evenodd" clip-rule="evenodd" d="M61.5036 61.2863C62.7334 72.4042 66.1563 83.2752 71.518 93.0922C74.8378 99.1704 78.8757 104.822 82.903 110.457C85.7053 114.377 88.7021 118.463 93.0747 120.49C94.2373 121.029 94.0751 122.705 93.7631 123.948C92.4144 129.32 91.785 134.872 91.8973 140.41C91.9079 140.933 91.9216 141.475 91.716 141.956C91.0182 143.59 88.6275 143.318 86.9815 142.649C76.7977 138.515 68.9791 130.202 61.6753 121.989C52.1924 111.325 42.8506 100.193 37.2486 87.0688C36.8678 86.1765 36.4982 85.2375 36.5619 84.2695C36.6268 83.2831 37.1336 82.3866 37.6476 81.5423C42.726 73.2012 49.7909 66.0788 58.0905 60.933C58.6751 60.5705 59.2993 60.2073 59.9867 60.1835C60.6741 60.1598 61.428 60.6026 61.5036 61.2863Z" fill="white"/>
<path fill-rule="evenodd" clip-rule="evenodd" d="M295.918 256.325C296.796 254.838 297.884 253.2 299.587 252.918C300.259 252.807 300.613 252.077 300.842 251.436C303.658 243.537 303.929 234.753 301.606 226.695C300.943 224.395 301.759 221.957 302.567 219.703C304.652 213.888 306.736 208.074 308.821 202.259C307.626 200.193 304.477 200.254 302.864 198.496C300.788 196.233 302.354 192.636 303.98 190.032C313.481 174.816 322.983 159.6 332.484 144.384C333.648 142.52 336.202 141.935 338.343 142.432C340.484 142.929 342.313 144.276 344.073 145.591C351.003 150.767 357.932 155.943 364.862 161.118C368.581 163.896 372.686 167.445 372.472 172.082C372.354 174.648 370.885 176.929 369.465 179.069C363.973 187.344 358.482 195.619 352.99 203.895C349.896 208.557 350.75 214.68 349.815 220.196C348.338 228.913 342.361 236.071 336.826 242.965C331.291 249.859 325.753 257.557 325.441 266.392C325.071 276.923 320.068 287.207 312.012 294C314.349 288.331 299.587 290.592 282.701 283.874C285.48 274.044 290.726 265.122 295.918 256.325Z" fill="white"/>
<path fill-rule="evenodd" clip-rule="evenodd" d="M110.5 280.978C109.447 280.117 109.111 278.663 108.925 277.311C106.774 261.676 116.01 246.243 114.365 230.545C113.517 222.456 109.8 214.907 105.123 208.269C101.893 203.685 101.712 197.543 102.917 192.058C104.122 186.573 106.553 181.444 108.192 176.074C115.484 152.192 106.611 126.68 97.8398 103.307C115.319 94.8551 135.715 96.4922 155.079 97.6373C174.442 98.7824 195.267 98.8635 211.406 88.0496C213.618 111.443 208.741 134.863 203.891 157.851C228.499 155.454 253.108 153.056 277.717 150.659C278.423 150.59 279.194 150.537 279.781 150.938C280.563 151.472 280.683 152.562 280.728 153.512C281.878 177.841 282.576 202.191 282.82 226.546C282.826 227.157 282.805 227.838 282.376 228.271C282.009 228.642 281.449 228.72 280.932 228.777C246.455 232.619 211.977 236.462 177.499 240.304C174.518 240.636 170.271 239.859 170.445 236.85C171.224 223.43 170.77 209.939 169.09 196.603C159.927 196.256 150.702 197.653 142.048 200.699C140.085 201.389 137.724 203.247 138.783 205.047C145.788 216.951 137.093 234.846 146.608 244.839C149.879 248.275 149.653 253.681 149.005 258.391C147.615 268.489 145.254 278.451 141.966 288.094C143.555 276.995 111.471 286.93 110.5 280.978Z" fill="white"/>
<path fill-rule="evenodd" clip-rule="evenodd" d="M11.8841 29.0161C11.9136 29.2531 11.7853 29.502 11.5752 29.6155C11.4079 29.4481 11.2406 29.2807 11.0732 29.1133C11.3241 29.0036 11.6086 28.9723 11.8773 29.0249L11.8841 29.0161Z" fill="#48463E"/>
<path fill-rule="evenodd" clip-rule="evenodd" d="M172.795 258.731C173.382 258.915 173.962 259.143 174.473 259.485C175.433 260.128 176.086 261.126 176.713 262.097C177.163 262.793 177.618 263.502 177.843 264.299C178.085 265.163 178.042 266.085 177.879 266.967C177.373 269.715 175.676 272.223 173.314 273.717C170.952 275.21 167.96 275.667 165.259 274.947C164.734 274.807 164.204 274.615 163.8 274.251C163.46 273.946 163.232 273.538 163.022 273.132C161.922 270.999 161.181 268.631 161.265 266.233C161.35 263.835 162.336 261.408 164.203 259.901C166.546 258.01 169.922 257.83 172.795 258.731M169.503 273.008C170.971 272.785 172.264 271.825 173.108 270.603C173.952 269.38 174.385 267.914 174.593 266.444C174.712 265.604 174.723 264.641 174.13 264.034C173.775 263.671 173.268 263.509 172.781 263.364C170.955 262.817 168.871 262.353 167.235 263.331C166.044 264.044 165.38 265.365 164.778 266.615C164.073 268.08 164.248 269.928 165.214 271.235C166.18 272.543 167.896 273.252 169.503 273.008V273.008Z" fill="#48463E"/>
<path fill-rule="evenodd" clip-rule="evenodd" d="M239.884 192.764C239.909 192.453 239.947 192.118 240.153 191.884C240.355 191.654 240.672 191.571 240.97 191.502C248.643 189.715 256.568 189.016 264.435 189.433C265.437 189.486 266.725 189.825 266.792 190.826C267.172 196.565 267.552 202.305 267.932 208.045C267.951 208.335 267.96 208.657 267.775 208.881C267.623 209.064 267.379 209.135 267.149 209.194C258.967 211.328 250.342 211.748 241.991 210.421C241.776 210.387 241.55 210.347 241.383 210.207C241.181 210.038 241.11 209.763 241.053 209.506C239.821 204.027 239.426 198.361 239.884 192.764ZM241.692 202.286C241.843 204.453 242.298 206.599 243.039 208.642C243.778 208.748 244.51 208.902 245.246 209.027C251.592 210.101 258.083 209.02 264.429 207.94C264.879 207.864 265.373 207.762 265.651 207.399C265.934 207.029 265.897 206.513 265.845 206.05C265.627 204.072 265.408 202.094 265.19 200.116C265.172 199.957 265.15 199.786 265.042 199.667C264.911 199.523 264.696 199.5 264.502 199.487C259.993 199.19 255.468 199.527 250.962 199.863C248.471 200.049 245.98 200.235 243.489 200.421C242.904 200.464 242.239 200.551 241.902 201.032C241.654 201.386 241.662 201.854 241.692 202.286ZM241.764 194.013C241.369 195.278 241.299 196.641 241.56 197.939C241.607 198.172 241.673 198.419 241.85 198.577C242.112 198.813 242.512 198.774 242.861 198.723C247.105 198.101 251.395 197.792 255.684 197.8C256.289 197.801 256.475 196.986 256.468 196.381C256.458 195.495 256.449 194.608 256.439 193.722C256.433 193.209 256.408 192.644 256.056 192.27C255.634 191.82 254.929 191.834 254.315 191.881C252.894 191.99 251.473 192.098 250.052 192.207C249.372 192.259 247.569 192.72 246.741 192.775C245.298 193.005 243.855 193.235 242.413 193.466C242.259 193.49 242.097 193.518 241.978 193.62C241.863 193.718 241.809 193.869 241.764 194.013ZM260.79 197.87C261.917 197.885 263.046 197.772 264.149 197.534C264.411 197.478 264.687 197.406 264.875 197.214C265.149 196.931 265.147 196.488 265.127 196.094C265.068 194.951 265.01 193.808 264.952 192.665C264.931 192.258 264.885 191.798 264.566 191.543C264.286 191.319 263.89 191.332 263.532 191.357C262.278 191.442 261.024 191.527 259.77 191.613C259.572 191.626 259.363 191.643 259.197 191.753C258.893 191.953 258.848 192.374 258.84 192.738C258.811 193.949 258.861 195.163 258.988 196.368C259.024 196.717 259.075 197.084 259.291 197.361C259.627 197.792 260.243 197.863 260.79 197.87Z" fill="#FFB61D"/>
<path fill-rule="evenodd" clip-rule="evenodd" d="M259.521 167.681C261.197 166.956 263.253 167.199 264.714 168.295C266.175 169.391 266.984 171.298 266.756 173.11C267.784 172.555 269.086 172.008 270.045 172.675C271.127 173.427 270.88 175.049 270.717 176.357C270.433 178.643 270.801 181.006 271.768 183.097C272.167 183.961 272.51 185.271 271.624 185.62C271.475 185.679 271.312 185.692 271.152 185.705C260.77 186.542 250.388 187.378 240.007 188.215C239.722 188.238 239.403 188.25 239.188 188.063C238.968 187.871 238.94 187.546 238.928 187.254C238.829 184.813 238.729 182.371 238.63 179.929C238.603 179.274 238.59 178.567 238.96 178.026C239.573 177.13 240.855 177.133 241.926 176.962C242.998 176.79 244.244 175.886 243.832 174.883C243.372 173.764 244.939 172.946 246.135 172.764C247.33 172.582 248.916 171.87 248.554 170.716C248.158 169.455 249.893 168.672 251.203 168.498C252.127 168.376 253.094 168.257 253.97 168.574C254.847 168.891 255.588 169.794 255.391 170.705C255.164 171.748 256.435 172.72 257.437 172.351C258.438 171.983 258.844 170.614 258.337 169.675C257.923 168.908 258.721 168.028 259.521 167.681ZM264.882 183.773C264.493 183.053 264.49 182.196 264.487 181.378C264.471 177.538 264.235 173.698 263.781 169.884C263.758 169.691 263.721 169.476 263.564 169.364C263.428 169.266 263.245 169.278 263.079 169.293C262.268 169.369 261.307 169.548 260.986 170.297C260.849 170.617 260.866 170.978 260.884 171.325C261.09 175.174 261.295 179.024 261.501 182.873C261.52 183.232 261.568 183.643 261.866 183.844C262.028 183.953 262.233 183.973 262.428 183.984C263.25 184.029 264.079 183.958 264.882 183.773ZM250.918 177.855C250.818 178.496 250.676 179.133 250.639 179.781C250.576 180.864 250.804 181.94 251.031 183.001C251.176 183.682 252.055 184.016 252.7 183.754C253.344 183.492 253.733 182.804 253.84 182.117C253.947 181.43 253.822 180.73 253.712 180.043C253.282 177.345 253.096 174.607 253.156 171.875C253.172 171.184 252.498 170.559 251.809 170.628C251.121 170.696 250.583 171.441 250.734 172.115C251.154 173.994 251.217 175.953 250.918 177.855ZM257.746 174.168C257.342 173.638 256.414 173.92 256.098 174.508C255.782 175.095 255.879 175.808 255.957 176.47C256.162 178.2 256.181 179.952 256.015 181.686C255.966 182.197 255.912 182.755 256.194 183.184C256.628 183.844 257.581 183.838 258.367 183.758C258.613 183.733 258.896 183.685 259.02 183.471C259.106 183.322 259.086 183.136 259.063 182.965C258.701 180.275 258.338 177.585 257.976 174.895C257.942 174.64 257.902 174.372 257.746 174.168ZM266.739 175.324C266.434 175.74 266.369 176.281 266.343 176.796C266.252 178.562 266.486 180.327 266.719 182.079C266.811 182.77 267.127 183.658 267.822 183.611C268.527 183.563 268.711 182.621 268.694 181.915C268.651 180.045 268.607 178.176 268.564 176.306C268.553 175.815 268.501 175.245 268.093 174.971C267.665 174.683 267.044 174.908 266.739 175.324ZM245.458 174.883C245.458 174.883 245.768 177.322 245.876 178.566C246.011 180.126 246.184 181.684 246.393 183.236C246.424 183.461 246.464 183.706 246.631 183.861C246.919 184.13 248.031 183.951 248.236 183.614C248.441 183.277 248.43 182.857 248.412 182.463C248.355 181.216 248.299 179.97 248.242 178.724C248.182 177.388 247.864 174.508 247.864 174.508M241.424 183.717C241.513 183.996 241.618 184.289 241.844 184.476C242.285 184.841 243 184.615 243.347 184.16C243.695 183.706 243.773 183.107 243.84 182.538C243.921 181.84 244 181.115 243.774 180.45C243.549 179.785 242.923 179.2 242.224 179.262C241.58 179.319 241.082 179.907 240.932 180.535C240.781 181.163 240.908 181.822 241.064 182.449C241.17 182.875 241.29 183.298 241.424 183.717Z" fill="#E7EAEE"/>
<path fill-rule="evenodd" clip-rule="evenodd" d="M289.176 89.8429C287.785 91.931 286.277 94.0462 284.124 95.3354C281.972 96.6247 279 96.8759 277.066 95.2775C274.932 93.5141 274.8 90.3351 274.969 87.5722C275.034 86.5084 275.119 85.4361 275.424 84.4149C275.953 82.6437 277.107 81.1321 278.312 79.7305C279.774 78.0302 281.394 76.39 283.422 75.4331C285.45 74.4762 287.97 74.3082 289.87 75.4987C292.145 76.9238 292.986 79.9552 292.555 82.6045C292.124 85.2538 290.664 87.6091 289.176 89.8429M284.758 92.0521C286.512 90.1837 288.017 88.0813 289.219 85.8181C290.01 84.3287 290.684 82.7099 290.652 81.0237C290.62 79.3375 289.731 77.5751 288.165 76.9494C286.125 76.1344 283.886 77.4381 282.181 78.8233C280.968 79.8094 279.793 80.8911 279.014 82.2473C278.522 83.1049 278.202 84.0485 277.885 84.9852C277.286 86.7571 276.678 88.6035 276.906 90.4601C277.134 92.3168 278.463 94.1807 280.323 94.373C282.046 94.5511 283.573 93.3143 284.758 92.0521Z" fill="#FFB61D"/>
<path fill-rule="evenodd" clip-rule="evenodd" d="M73.675 99.7293C75.8542 101.937 77.6531 104.519 78.969 107.327C80.2915 110.15 78.9581 113.779 76.3627 115.506C73.7673 117.233 70.2583 117.21 67.4125 115.937C64.5667 114.664 62.3303 112.289 60.6832 109.642C59.4415 107.647 58.4787 105.41 58.3754 103.062C58.2722 100.714 59.1367 98.2433 60.9942 96.8034C62.8729 95.3471 65.5146 95.139 67.7866 95.8379C70.0586 96.5367 72.005 98.0377 73.675 99.7293M65.1722 98.3869C63.2866 98.1928 61.6116 99.9234 61.2881 101.791C60.9647 103.659 61.6766 105.554 62.598 107.211C64.5958 110.803 68.1605 113.994 72.2661 113.795C74.3767 113.693 76.69 112.231 76.6525 110.118C76.6363 109.205 76.1856 108.362 75.7355 107.567C74.5397 105.454 73.2481 103.363 71.5231 101.656C69.7982 99.9478 67.5868 98.6356 65.1722 98.3869Z" fill="#FFB61D"/>
<path fill-rule="evenodd" clip-rule="evenodd" d="M166.876 265.471C167.788 264.778 168.922 264.329 170.065 264.403C171.208 264.477 172.34 265.132 172.818 266.173C173.331 267.29 173.011 268.678 172.211 269.611C171.41 270.544 170.203 271.059 168.986 271.23C168.155 271.346 167.164 271.241 166.709 270.536C166.49 270.196 166.44 269.777 166.396 269.375C166.317 268.652 166.238 267.93 166.158 267.208C166.125 266.902 166.092 266.584 166.191 266.292C166.307 265.949 166.587 265.69 166.876 265.471M170.483 267.549C170.616 267.447 170.755 267.337 170.813 267.18C170.998 266.677 170.272 266.343 169.736 266.355C168.958 266.372 167.961 266.896 168.199 267.637C168.337 268.065 168.865 268.263 169.308 268.184C169.751 268.106 170.126 267.823 170.483 267.549H170.483Z" fill="#48463E"/>
<path fill-rule="evenodd" clip-rule="evenodd" d="M327.968 35.5363C339.762 47.7457 349.071 62.3452 355.165 78.1892C355.583 79.2774 355.989 80.4862 355.59 81.5816C352.516 90.0158 346.583 97.0474 340.766 103.884L329.614 116.991C326.065 121.162 322.516 125.333 318.848 129.399C306.815 142.735 293.374 154.992 278.499 165.004C279.335 185.109 279.855 205.226 280.057 225.347C280.063 225.947 280.042 226.616 279.62 227.041C279.258 227.405 278.705 227.481 278.195 227.538L176.146 238.854C173.204 239.18 169.014 238.418 169.187 235.463C169.955 222.289 169.506 209.044 167.849 195.951C158.809 195.611 149.707 196.983 141.169 199.972C139.232 200.651 136.903 202.474 137.948 204.241C141.149 209.655 141.027 216.331 140.906 222.913C140.767 230.54 140.629 238.04 145.668 243.306C148.896 246.679 148.673 251.986 148.033 256.611C146.662 266.524 144.332 276.304 141.088 285.771L145.793 253.082C146.097 250.975 146.364 248.675 145.267 246.851C144.254 245.166 142.314 244.302 140.46 243.646C134.602 241.572 128.368 240.563 122.154 240.683C120.258 240.719 118.23 240.909 116.753 242.1C114.901 243.593 114.454 246.188 114.135 248.545L110.043 278.785C109.004 277.939 108.673 276.512 108.489 275.185C107.405 267.342 109.254 259.55 111.105 251.75C112.876 244.284 114.65 236.81 113.856 229.274C113.02 221.332 109.353 213.922 104.738 207.404C101.551 202.904 101.372 196.874 102.561 191.49C102.953 189.714 103.477 187.976 104.061 186.255C94.0015 179.052 85.3205 169.661 77.0385 160.347C61.3004 142.65 45.7965 124.175 36.4993 102.394C35.8673 100.913 35.2539 99.3544 35.3596 97.7478C35.4674 96.1108 36.3084 94.6229 37.1615 93.2216C45.5897 79.3786 57.3148 67.558 71.0891 59.0179C72.0593 58.4164 73.0952 57.8136 74.236 57.7741C75.3769 57.7346 76.628 58.4696 76.7535 59.6042C78.7946 78.0558 84.4753 96.0977 93.3737 112.39C97.534 120.007 102.374 127.221 107.372 134.323C104.891 124.147 101.213 114.066 97.5523 104.361C114.081 96.4079 133.253 97.5537 151.638 98.6525C152.436 98.7001 153.231 98.7477 154.025 98.7944C173.13 99.9186 193.676 99.9982 209.599 89.3819C211.782 112.348 206.969 135.34 202.184 157.908L252.44 153.036C252.592 149.235 252.359 145.444 251.564 141.691C250.952 138.806 250.27 135.172 252.655 133.436C271.96 119.378 285.859 99.2843 299.18 79.4634C302.529 74.4794 305.87 69.4818 308.834 64.2594C314.096 54.9872 318.149 45.0295 320.857 34.7178C321.229 33.3028 323.016 32.6656 324.431 33.0364C325.846 33.4072 326.952 34.4841 327.968 35.5363ZM255.306 152.758C255.387 150.261 256.064 147.899 258.156 146.751C265.046 142.968 269.206 134.74 268.167 126.948C267.843 124.518 269.809 122.454 271.568 120.746C290.19 102.667 302.597 79.3615 314.817 56.4083C315.478 55.1667 316.139 53.9261 316.8 52.6874C317.41 51.5432 318.516 50.2026 319.714 50.6983C325.212 52.9724 331.632 52.9166 337.09 50.5472C340.37 54.7919 343.24 59.3526 345.649 64.1457C341.567 72.8955 341.054 83.2489 344.252 92.3592C344.633 93.4424 343.857 94.5596 343.128 95.4463C323.557 119.246 303.549 143.438 278.326 160.951C278.22 158.516 278.109 156.082 277.993 153.648C277.949 152.716 277.831 151.646 277.059 151.121C276.48 150.727 275.719 150.779 275.023 150.847L255.306 152.758ZM252.282 155.589C248.761 155.815 245.234 155.943 241.706 155.972C239.02 155.994 236.347 156.315 233.681 156.637L203.354 160.289C202.947 160.338 202.516 160.397 202.198 160.655C201.872 160.918 201.725 161.341 201.613 161.745C201.007 163.921 200.951 166.248 201.45 168.45C212.216 165.124 224.986 170.417 230.24 180.385C235.14 189.68 234.672 201.687 228.697 210.33C222.722 218.973 211.365 223.667 201.117 221.345C190.87 219.024 182.535 209.599 181.898 199.111C181.831 198.012 180.503 197.53 179.422 197.315L171.476 195.73C171.157 195.666 170.805 195.608 170.524 195.771C170.099 196.017 170.069 196.608 170.091 197.099L171.793 235.046C171.807 235.358 171.826 235.687 171.995 235.95C172.276 236.386 172.858 236.491 173.374 236.54C176.22 236.812 179.089 236.597 181.938 236.352C194.72 235.257 207.451 233.569 220.178 231.881C239.122 229.37 258.058 226.859 277.145 226.303C278.27 226.27 278.612 224.774 278.618 223.649C278.704 204.416 278.175 185.18 277.033 165.98C269.257 171.105 261.093 175.612 252.538 179.34C251.573 179.76 250.538 180.179 249.5 180.011C248.461 179.843 247.487 178.835 247.759 177.818C249.706 170.54 251.661 163.059 252.282 155.589ZM276.788 162.006C275.27 163.035 273.733 164.04 272.176 165.019C271.057 165.722 269.429 166.351 268.571 165.345C265.848 162.159 261.841 160.103 257.665 159.751C256.241 159.631 255.706 157.855 255.523 156.438C255.477 156.088 255.436 155.728 255.402 155.363C262.357 154.803 269.281 153.859 276.133 152.536C276.368 155.692 276.586 158.849 276.788 162.006ZM109.089 142.536C96.3045 125.874 85.6282 107.51 79.5305 87.4632C78.9574 85.5792 77.8681 83.2654 75.9037 83.403C70.7448 83.7643 66.9838 78.8015 64.2473 74.4133C63.5544 73.3022 62.5597 72.0412 61.2631 72.2243C60.7718 72.2937 60.3379 72.5716 59.928 72.8512C55.6941 75.7396 52.1151 79.5822 49.5343 84.0104C48.9325 85.0428 48.3706 86.2778 48.8022 87.3922C50.7442 92.4059 50.672 97.9406 50.5731 103.316C50.4971 107.452 50.0541 112.28 46.5653 114.502L67.2344 141.059C78.769 155.88 90.5056 170.899 105.552 182.116C105.573 182.059 105.594 182.002 105.616 181.946C106.372 179.909 107.13 177.871 107.766 175.797C111.1 164.931 111.009 153.722 109.089 142.536ZM106.489 187.932L104.838 193.877C104.421 195.382 103.999 196.916 104.049 198.478C104.125 200.816 105.243 202.977 106.336 205.045L113.738 219.057C116.058 223.449 116.224 228.555 116.386 233.568C116.412 234.364 116.438 235.159 116.472 235.948C116.501 236.602 116.544 237.283 116.872 237.849C117.2 238.415 117.905 238.818 118.517 238.588C121.685 237.398 125.207 237.958 128.541 238.533L138.61 240.269C139.477 240.419 140.236 239.539 140.332 238.664C140.414 237.901 140.154 237.156 139.898 236.426C139.861 236.318 139.823 236.211 139.787 236.104C138.396 232.006 138.716 227.66 139.038 223.292C139.294 219.824 139.551 216.342 138.953 212.959C137.673 205.713 132.67 199.771 127.854 194.209C127.485 193.783 127.249 193.298 127.108 192.777C127.061 193.019 126.993 193.257 126.895 193.486C125.737 196.197 121.769 195.746 119.037 194.637C118.338 194.353 117.646 194.057 116.96 193.75C116.716 194.953 116.41 196.142 116.004 197.306C115.736 198.075 115.35 198.908 114.59 199.202C113.83 199.495 112.763 198.737 113.113 198.001C113.902 196.336 114.507 194.589 114.929 192.799C112.003 191.368 109.196 189.732 106.489 187.932ZM117.595 189.704C119.13 190.756 120.714 191.736 122.341 192.638L122.209 186.336C122.197 185.76 122.149 185.108 121.704 184.744C121.277 184.394 120.658 184.454 120.115 184.547C119.462 184.658 118.813 184.793 118.169 184.949C118.045 185.87 117.938 186.795 117.831 187.72C117.754 188.382 117.678 189.044 117.595 189.704ZM115.653 185.68C115.676 186.545 115.66 187.412 115.603 188.276C115.381 188.109 115.159 187.94 114.939 187.77C114.495 187.428 114.008 186.873 114.28 186.383C114.414 186.14 114.694 186.023 114.955 185.927C115.187 185.842 115.419 185.759 115.653 185.68ZM115.302 181.949L109.083 183.608C108.623 183.73 108.164 183.663 107.721 183.496L108.531 180.575C109.309 177.775 110.131 174.886 111.972 172.637C113.658 175.497 114.771 178.674 115.302 181.949ZM118.847 181.003L121.827 180.208C122.272 180.09 122.735 179.961 123.078 179.654C123.539 179.239 123.689 178.589 123.814 177.982C124.035 176.916 124.231 175.77 124.286 174.646C123.25 174.553 122.128 174.954 121.335 175.662C120.127 176.738 119.53 178.334 119.117 179.898C119.02 180.265 118.93 180.633 118.847 181.003ZM124.232 172.849C120.789 172.591 117.089 175.515 117.18 179.09C113.965 172.885 113.477 165.774 112.993 158.735C112.888 157.203 112.783 155.675 112.65 154.161C112.404 151.35 112.053 148.555 111.617 145.774C112.967 147.475 114.338 149.158 115.727 150.822C117.766 153.266 118.278 156.563 118.785 159.83C119.35 163.474 119.91 167.08 122.575 169.423C123.589 170.314 124.067 171.521 124.232 172.849ZM122.078 153.043C118.337 149.627 115.237 145.362 112.269 141.209C111.6 140.273 110.931 139.338 110.264 138.401C108.036 127.718 104.761 117.218 101.5 106.786C100.808 104.573 103.796 103.138 106.089 102.802C121.14 100.595 136.374 100.9 151.614 101.205C158.522 101.343 165.431 101.481 172.326 101.385C184.576 101.216 197.539 100.056 207.477 92.8896C209.71 107.78 206.674 122.803 203.677 137.636C203.271 139.643 202.867 141.646 202.476 143.645C199.195 160.42 196.962 178.302 203.239 194.201C203.504 194.871 202.602 195.376 201.897 195.523C196.734 196.6 191.395 196.832 186.158 196.207C183.912 195.939 181.689 195.515 179.466 195.091C177.791 194.772 176.117 194.453 174.432 194.2C161.747 192.296 148.506 194.272 136.929 199.795C136.465 200.017 135.913 199.913 135.428 199.745C133.083 198.933 131.41 196.767 130.576 194.431C129.741 192.094 129.622 189.572 129.51 187.094L129.043 176.698C129.027 176.324 129.125 175.817 129.498 175.805C149.778 175.172 170.035 173.805 190.217 171.707C189.363 166.933 189.279 162.021 189.967 157.22C190.401 154.189 187.551 151.425 184.516 151.019C181.481 150.614 178.479 151.989 175.959 153.728C175.016 154.379 174.111 155.086 173.206 155.792C171.693 156.974 170.18 158.154 168.496 159.069C167.394 159.668 166.069 160.151 164.911 159.668C163.495 159.076 163.02 157.391 162.596 155.887C162.57 155.792 162.543 155.698 162.517 155.605C161.964 153.668 161.052 151.74 159.448 150.522C157.844 149.304 155.423 149 153.84 150.246C152.486 151.31 152.058 153.154 151.831 154.861C151.811 155.013 151.792 155.165 151.772 155.319C151.571 156.888 151.363 158.511 150.426 159.769C149.398 161.151 147.104 161.743 145.976 160.442C143.746 157.867 139.832 157.327 136.548 158.231C134.424 158.815 132.499 159.894 130.667 161.136C130.707 159.73 130.363 158.422 129.15 157.86C128.282 157.458 127.446 157.006 126.64 156.512C126.805 155.826 127.054 155.16 127.387 154.536L127.411 154.491C127.681 153.985 127.991 153.405 127.752 152.89C127.604 152.571 127.278 152.375 126.955 152.236C125.356 151.551 123.389 151.918 122.078 153.043ZM128.504 172.286C128.891 169.893 129.361 167.513 129.915 165.152C131.297 163.732 133.07 162.758 134.813 161.808C136.679 160.79 138.75 159.739 140.831 160.173C142.215 160.462 143.405 161.373 144.576 162.269C146.06 163.405 147.514 164.517 149.295 164.311C151.558 164.049 152.968 161.719 153.626 159.538C153.77 159.06 153.898 158.572 154.026 158.082C154.484 156.334 154.945 154.572 156.144 153.257C156.493 152.875 156.995 152.519 157.49 152.669C157.891 152.791 158.125 153.197 158.311 153.572C158.575 154.104 158.824 154.645 159.074 155.186C159.779 156.712 160.484 158.238 161.506 159.564C162.892 161.36 165.048 162.772 167.303 162.525C169.319 162.304 170.895 160.877 172.43 159.485C172.745 159.2 173.058 158.916 173.373 158.644C177.071 155.455 181.888 153.589 186.77 153.455C186.112 155.1 186.551 156.895 186.981 158.657C187.085 159.081 187.188 159.503 187.276 159.92C187.965 163.215 187.617 166.719 186.292 169.814L153.686 172.324C146.074 172.91 138.443 173.496 130.813 173.228C130.331 173.211 129.837 173.188 129.394 172.998C129.035 172.845 128.739 172.594 128.504 172.286ZM127.495 180.688C127.285 183.359 127.178 186.037 127.175 188.716C127.184 188.654 127.194 188.591 127.203 188.529C127.215 188.453 127.227 188.376 127.238 188.3C127.62 185.784 127.706 183.224 127.495 180.688ZM252.894 174.661C254.005 175.243 255.351 174.69 256.462 174.109C259.384 172.584 262.198 170.853 264.878 168.933C265.586 168.426 265.796 167.412 265.546 166.578C265.296 165.744 264.669 165.071 263.976 164.545C261.81 162.901 258.781 162.468 256.242 163.44C255.773 163.62 255.306 163.854 254.983 164.239C254.604 164.689 254.466 165.288 254.344 165.864C253.731 168.773 253.247 171.709 252.894 174.661ZM332.006 44.6319C330.092 40.8891 327.14 37.6839 323.567 35.469C322.324 36.5647 322.083 38.2295 321.836 39.9268C321.667 41.0914 321.496 42.2713 320.998 43.2931C320.835 43.6255 320.637 43.9436 320.439 44.2609L320.439 44.2611L320.439 44.2614L320.439 44.2617C320.061 44.8664 319.686 45.4684 319.565 46.1628C319.38 47.2219 320.277 48.5506 321.293 48.2002C322.119 47.9152 322.986 48.0983 323.859 48.2828C324.32 48.3803 324.783 48.4781 325.244 48.5078C327.927 48.681 330.153 46.5791 332.006 44.6319ZM347.178 67.0646C345.127 71.1434 345.452 75.9608 345.824 80.5107L346.359 87.0359C346.418 87.7536 346.808 88.7219 347.5 88.5231C347.93 87.3212 348.748 86.3296 349.568 85.3354C350.285 84.4658 351.004 83.5942 351.467 82.5779C353.032 79.1365 351.294 75.1702 349.582 71.7993L347.178 67.0646ZM255.387 139.488C255.472 140.764 256.798 141.719 258.077 141.684C259.355 141.648 260.507 140.82 261.254 139.782C262.001 138.743 262.411 137.507 262.81 136.291L264.128 132.278C264.496 131.159 264.519 129.449 263.348 129.317C262.926 129.269 262.523 129.493 262.176 129.739C260.864 130.672 259.909 132.011 258.979 133.325L256.447 136.903C255.897 137.679 255.323 138.539 255.387 139.488ZM72.6154 77.9761C69.7936 76.0044 67.3561 73.4848 65.4788 70.5993C65.0728 69.9751 64.6784 69.2756 64.7497 68.5344C64.8272 67.7284 65.4335 67.0835 66.0369 66.5436C67.5267 65.2102 69.2106 64.0939 71.0189 63.2409C71.6811 62.9285 72.536 62.6747 73.0861 63.1579C73.4101 63.4424 73.5123 63.8969 73.5968 64.3196L76.2031 77.3548C76.3572 78.1254 75.5489 78.8194 74.7634 78.8418C73.9778 78.8642 73.2596 78.4262 72.6154 77.9761ZM46.8231 103.188C46.7679 105.64 46.5805 108.392 44.7431 110.016C44.3585 110.062 44.1031 109.64 43.9524 109.283C42.6286 106.149 41.2863 102.939 41.0778 99.5438C40.8694 96.1481 42.0074 92.471 44.7823 90.5026C45.1577 90.2363 45.7085 90.0163 46.0399 90.3359C46.1731 90.4643 46.23 90.6506 46.2786 90.8292C47.0326 93.6008 46.9733 96.5197 46.9086 99.3913L46.8231 103.188ZM121.852 159.919C121.829 159.634 121.829 159.324 121.998 159.094C122.444 158.487 123.413 159.037 123.823 159.669C124.809 161.192 125.027 163.187 124.392 164.887C122.944 163.646 122.011 161.82 121.852 159.919ZM319.497 90.4867C321.05 88.5314 323.88 88.25 326.376 88.311C326.959 88.3252 327.559 88.3535 328.09 88.5954C329.567 89.2684 329.88 91.198 329.93 92.82C329.976 94.2958 329.967 95.791 329.608 97.2233C329.25 98.6557 328.508 100.036 327.321 100.915C326.788 101.31 326.17 101.598 325.515 101.707C324.503 101.877 323.468 101.617 322.507 101.259C321.226 100.782 320.011 100.128 318.909 99.3199C318.37 98.9252 317.814 98.4084 317.796 97.7409C317.756 96.2015 317.929 94.6568 318.307 93.1641C318.549 92.2101 318.885 91.2574 319.497 90.4867ZM323.524 100.225C325.517 100.797 327.637 99.2549 328.393 97.3235C329.148 95.392 328.869 93.2225 328.453 91.1906C328.294 90.4105 327.46 89.9747 326.692 89.7661C325.502 89.4432 324.237 89.4004 323.029 89.6421C322.428 89.7623 321.814 89.968 321.393 90.4124C321.163 90.6546 321.004 90.9536 320.848 91.2487L319.68 93.4558C319.475 93.844 319.268 94.2357 319.147 94.658C318.786 95.9208 319.264 97.3232 320.145 98.2967C321.027 99.2702 322.261 99.8624 323.524 100.225ZM296.842 122.542C298.67 123.18 300.327 124.302 301.598 125.762C302.691 127.018 303.523 128.647 303.293 130.295C303.209 130.9 302.986 131.477 302.731 132.033C301.767 134.136 300.108 136.152 297.831 136.559C296.636 136.773 295.404 136.516 294.255 136.126C292.926 135.673 291.659 135.039 290.501 134.246C289.886 133.826 289.276 133.327 289.007 132.633C288.821 132.154 288.815 131.627 288.822 131.114C288.839 129.845 288.924 128.555 289.366 127.365C289.926 125.86 291.021 124.617 292.183 123.509C292.65 123.063 293.145 122.623 293.745 122.384C294.727 121.993 295.845 122.194 296.842 122.542ZM298.711 133.604C300.032 132.296 300.801 130.402 300.591 128.555C300.382 126.708 299.132 124.975 297.384 124.345C296.658 124.083 295.852 124.01 295.108 124.216C294.706 124.327 294.329 124.516 293.978 124.739C292.473 125.696 291.417 127.329 291.16 129.094C290.904 130.859 291.452 132.724 292.622 134.07C293.371 134.932 294.594 135.302 295.727 135.158C296.86 135.015 297.899 134.407 298.711 133.604ZM131.874 111.656C131.812 110.785 130.648 110.557 129.776 110.582C125.195 110.717 120.62 111.06 116.071 111.611C115.323 111.701 115.263 112.906 115.863 113.361C116.462 113.816 117.298 113.732 118.043 113.625L131.874 111.656ZM117.23 117.544C117.27 117.095 117.833 116.933 118.281 116.882L145.261 113.827C145.749 113.772 146.269 113.722 146.708 113.941C147.147 114.161 147.43 114.762 147.144 115.161C146.932 115.455 146.527 115.514 146.167 115.549L118.57 118.227C117.996 118.283 117.18 118.118 117.23 117.544ZM177.716 122.088C176.207 122.42 174.658 121.875 173.21 121.334C168.529 119.585 163.866 117.787 159.222 115.941C157.348 115.196 155.29 116.312 153.604 117.42C148.725 120.625 144.027 124.107 139.541 127.842C138.389 128.802 136.616 128.129 135.454 127.181C135.208 126.981 134.966 126.767 134.724 126.552L134.724 126.552L134.723 126.552L134.723 126.552C133.818 125.752 132.901 124.942 131.731 124.776C129.931 124.521 128.348 125.885 127.044 127.151L118.634 135.319C117.503 136.417 116.312 138.176 117.319 139.39C117.983 140.19 119.202 140.15 120.236 140.03C125.631 139.404 131 138.527 136.366 137.651C145.236 136.202 154.101 134.754 163.072 134.443C165.06 134.375 167.05 134.362 169.039 134.349C170.285 134.341 171.53 134.334 172.776 134.312C178.393 134.214 184.006 133.835 189.585 133.178C189.855 133.146 190.163 133.091 190.303 132.858C190.408 132.682 190.382 132.46 190.352 132.257L187.989 116.176C187.868 115.359 187.659 114.415 186.912 114.062C186.158 113.705 185.269 114.165 184.65 114.724C183.68 115.599 182.934 116.762 182.198 117.909C180.99 119.79 179.809 121.628 177.716 122.088ZM139.335 130.887C144.383 126.737 149.646 122.849 155.097 119.244C156.216 118.504 157.576 117.746 158.827 118.232L172.043 123.368C174.249 124.225 176.662 125.093 178.926 124.406C181.559 123.607 183.132 120.988 184.458 118.577C184.716 118.108 185.466 118.162 185.837 118.547C186.208 118.933 186.302 119.5 186.379 120.029L187.346 126.735C187.495 127.765 187.641 128.834 187.343 129.83C187.046 130.827 186.171 131.733 185.131 131.713C168.119 131.384 151.073 132.787 134.343 135.893C133.826 135.989 133.308 136.087 132.789 136.184L132.789 136.184L132.789 136.185L132.789 136.185L132.788 136.185L132.788 136.185C128.792 136.939 124.78 137.696 120.719 137.71C122.68 134.932 125.165 132.573 127.633 130.233C128.988 128.949 130.682 127.563 132.501 127.983C133.484 128.21 134.237 128.916 134.987 129.618C135.227 129.843 135.467 130.068 135.714 130.277C136.732 131.136 138.307 131.733 139.335 130.887ZM357.592 177.668C357.141 177.836 356.637 177.721 356.178 177.577C353.067 176.599 350.54 174.412 348.057 172.262L348.051 172.257C347.717 171.968 347.384 171.679 347.05 171.394C342.935 167.885 338.471 164.787 333.743 162.161C333.262 161.894 332.758 161.613 332.463 161.148C332.168 160.684 332.177 159.976 332.632 159.666C334.751 158.219 336.126 155.735 336.227 153.17C336.254 152.487 337.027 152.031 337.708 152.086C338.39 152.14 338.985 152.55 339.542 152.946L361.144 168.28C361.565 168.579 362.018 168.925 362.121 169.43C362.205 169.843 362.032 170.26 361.858 170.643C360.927 172.699 359.855 174.691 358.654 176.602C358.382 177.035 358.071 177.49 357.592 177.668ZM335.981 159.477C335.727 159.925 335.507 160.573 335.918 160.883L353.546 174.156C354.512 174.882 356.012 175.564 356.772 174.624C357.645 173.546 358.46 172.42 359.213 171.255C359.419 170.936 359.629 170.572 359.555 170.199C359.487 169.859 359.201 169.612 358.932 169.394C352.463 164.149 345.613 159.372 338.455 155.115L335.981 159.477ZM327.207 167.594C327.492 167.106 327.837 166.571 328.39 166.451C328.812 166.36 329.242 166.541 329.631 166.73C331.754 167.76 333.698 169.158 335.352 170.841C335.75 171.246 335.799 171.898 335.622 172.437C335.445 172.976 335.08 173.43 334.722 173.871C334.147 174.58 333.534 175.317 332.685 175.653C331.77 176.016 330.704 175.841 329.837 175.374C328.97 174.907 328.274 174.176 327.66 173.406C326.86 172.4 326.144 171.195 326.268 169.916C326.349 169.078 326.783 168.321 327.207 167.594ZM330.92 173.222C332.255 173.741 333.109 173.329 333.144 172.454C333.166 171.901 332.684 171.476 332.246 171.139L330.92 170.119C330.482 169.782 329.998 169.429 329.446 169.432C328.893 169.436 328.33 170.006 328.556 170.511C328.522 170.754 329.585 172.703 330.92 173.222ZM325.651 183.999C325.977 184.177 326.322 184.351 326.693 184.359C327.064 184.367 327.466 184.157 327.557 183.797C327.771 182.953 328.33 182.252 328.877 181.567C328.937 181.492 328.996 181.417 329.055 181.343C329.654 180.585 330.232 179.726 330.249 178.759C330.265 177.793 329.464 176.763 328.507 176.895C327.753 176.999 327.051 176.505 326.504 175.976C326.416 175.892 326.329 175.805 326.243 175.718C325.784 175.261 325.318 174.797 324.71 174.598C323.986 174.362 323 174.738 322.942 175.497C322.827 177.026 321.556 178.177 320.377 179.158C320.024 179.451 320.343 180.015 320.673 180.334C322.159 181.77 323.838 183.006 325.651 183.999ZM325.887 181.085L323.565 179.515C322.975 179.115 323.022 178.137 323.548 177.656C324.075 177.176 324.893 177.139 325.564 177.379C326.235 177.62 326.793 178.092 327.335 178.555C327.694 178.861 327.743 179.418 327.579 179.861C327.415 180.303 327.081 180.657 326.755 180.999C326.643 181.116 326.519 181.239 326.359 181.26C326.188 181.282 326.029 181.181 325.887 181.085ZM344.293 181.189L345.428 178.777C345.776 178.038 346.112 177.124 345.643 176.456C345.48 176.224 345.24 176.061 345.005 175.902L340.875 173.119C340.429 172.819 339.946 172.507 339.409 172.515C338.773 172.525 338.239 172.98 337.787 173.428C337.11 174.099 336.477 174.815 335.894 175.568C335.45 176.142 335.085 177.087 335.692 177.485L342.012 181.631C342.511 181.959 343.144 182.295 343.668 182.01C343.976 181.843 344.144 181.506 344.293 181.189ZM342.892 179.481C342.627 179.542 342.35 179.475 342.089 179.396C340.493 178.915 339.033 177.995 337.911 176.762C337.538 176.352 337.749 175.628 338.223 175.341C338.697 175.054 339.313 175.12 339.824 175.334C340.154 175.473 340.456 175.666 340.759 175.859C340.924 175.965 341.09 176.071 341.261 176.168C341.444 176.273 341.635 176.369 341.827 176.465L341.827 176.465C342.37 176.737 342.914 177.01 343.285 177.481C343.786 178.118 343.682 179.3 342.892 179.481ZM345.027 182.175C345.755 182.002 345.978 181.259 346.209 180.487C346.4 179.849 346.597 179.192 347.091 178.818C347.941 178.176 349.144 178.713 350.06 179.258L352.971 180.99C353.435 181.266 353.91 181.551 354.243 181.976C354.576 182.401 354.739 183.004 354.507 183.491C354.351 183.816 354.058 184.032 353.762 184.249C353.519 184.427 353.275 184.606 353.105 184.847C352.886 185.158 352.804 185.546 352.724 185.93C352.623 186.412 352.523 186.887 352.156 187.19C351.485 187.742 350.489 187.3 349.748 186.847L345.646 184.34C345.232 184.088 344.796 183.81 344.593 183.37C344.389 182.93 344.555 182.287 345.027 182.175ZM350.405 184.664C350.992 184.464 351.464 184.028 351.917 183.604C352.246 183.297 351.806 182.791 351.414 182.57L348.901 181.155C348.639 181.008 348.274 180.873 348.071 181.095C347.416 181.809 347.321 182.975 347.851 183.786C348.382 184.597 349.488 184.977 350.405 184.664ZM321.57 184.577C321.007 184.418 320.435 184.256 319.975 183.943C319.261 183.456 318.268 183.574 317.519 184.004C316.77 184.435 316.212 185.124 315.671 185.798C315.371 186.171 315.063 186.561 314.949 187.027C314.834 187.492 314.971 188.056 315.39 188.29L319.772 190.732C320.104 190.917 320.474 191.108 320.845 191.026C321.215 190.944 321.469 190.616 321.692 190.31L322.819 188.759C323.447 187.895 324.103 186.794 323.644 185.83C323.276 185.058 322.435 184.821 321.57 184.577ZM320.183 188.595C319.954 188.656 319.718 188.545 319.506 188.438L316.521 186.918C317.095 186.106 318.187 185.794 319.177 185.893C320.167 185.991 321.086 186.431 321.981 186.864L320.609 188.289C320.486 188.417 320.354 188.55 320.183 188.595ZM299.5 127.839C299.963 128.544 299.818 129.486 299.511 130.271C299.107 131.306 298.424 132.264 297.459 132.815C296.494 133.365 295.227 133.446 294.287 132.854C293.346 132.263 292.874 130.947 293.378 129.957C293.495 129.728 293.654 129.525 293.813 129.322C293.965 129.128 294.117 128.934 294.232 128.717C294.308 128.574 294.367 128.422 294.426 128.27L294.426 128.27L294.426 128.27C294.511 128.051 294.596 127.834 294.73 127.643C295.209 126.966 296.151 126.832 296.981 126.844C297.922 126.857 298.984 127.052 299.5 127.839ZM297.4 128.287C296.113 128.27 294.905 129.35 294.778 130.631C294.726 131.155 294.948 131.806 295.469 131.878C295.86 131.932 296.202 131.63 296.465 131.336C297.02 130.714 297.497 130.021 297.881 129.281C298.01 129.032 298.123 128.714 297.954 128.491C297.831 128.328 297.604 128.289 297.4 128.287ZM328.19 94.7108C328.09 93.532 327.302 92.3726 326.156 92.0773C324.701 91.7022 323.291 92.7267 322.136 93.6878C321.794 93.9721 321.437 94.2778 321.292 94.6981C321.047 95.4113 321.489 96.1628 321.924 96.7789C322.422 97.4844 322.954 98.1936 323.681 98.66C324.408 99.1263 325.378 99.3074 326.141 98.9021C326.529 98.6956 326.832 98.3582 327.095 98.005C327.801 97.056 328.289 95.8896 328.19 94.7108ZM324.963 97.733C324.47 97.8069 323.958 97.6077 323.595 97.2659C323.051 96.7537 322.835 95.9305 323.025 95.208C323.225 94.4473 323.864 93.819 324.628 93.6314C325.392 93.4438 326.249 93.7047 326.778 94.2861C326.759 94.4446 326.742 94.6041 326.725 94.7636C326.669 95.3057 326.613 95.8487 326.425 96.3578C326.182 97.0169 325.657 97.6288 324.963 97.733ZM285.795 281.607C288.478 272.116 293.543 263.502 298.556 255.008C299.403 253.572 300.454 251.991 302.099 251.719C302.747 251.611 303.089 250.907 303.31 250.288C306.029 242.661 306.291 234.18 304.048 226.4C303.408 224.179 304.196 221.825 304.976 219.649L311.014 202.806C310.386 201.72 309.198 201.243 307.995 200.759C306.989 200.355 305.972 199.946 305.262 199.173C303.258 196.988 304.77 193.515 306.34 191L333.861 146.926C334.985 145.126 337.451 144.562 339.518 145.042C341.585 145.521 343.351 146.822 345.051 148.092L365.123 163.084C368.714 165.766 372.678 169.192 372.471 173.669C372.356 176.147 370.939 178.349 369.567 180.416L353.66 204.386C351.603 207.485 351.354 211.253 351.103 215.039C350.99 216.751 350.876 218.466 350.595 220.125C349.223 228.218 343.834 234.92 338.67 241.342C338.464 241.598 338.258 241.854 338.053 242.109C332.709 248.765 327.362 256.197 327.061 264.728C326.703 274.896 321.873 284.826 314.095 291.384L320.864 274.965C322.473 271.06 323.964 266.202 321.27 262.949C320.051 261.477 318.209 260.698 316.441 259.973L305.929 255.66C305.204 255.363 304.457 255.061 303.674 255.056C301.232 255.041 299.779 257.689 298.789 259.922C295.364 267.644 290.989 274.945 285.795 281.607ZM320.359 259.309C322.161 259.976 324.699 260.381 325.553 258.66C329.686 250.327 333.933 241.834 340.513 235.259C344.305 231.47 346.63 226.413 347.946 221.216C349.261 216.019 349.633 210.636 350 205.287C348.404 205.869 348.265 208.023 348.271 209.723C348.286 213.468 347.632 217.216 346.347 220.735C346.078 221.471 345.717 222.267 344.998 222.578C344.278 222.888 343.217 222.264 343.459 221.519C345.316 215.795 346.008 209.696 345.481 203.702C345.317 201.843 344.971 199.855 343.65 198.538C343.793 201.472 343.936 204.42 343.639 207.343C343.125 212.4 341.311 217.222 339.514 221.977C339.281 222.594 338.999 223.267 338.406 223.557C337.813 223.847 336.893 223.387 337.048 222.746L339.739 211.62C341.219 205.503 342.674 198.923 340.384 193.061C339.23 192.984 338.958 194.633 339.061 195.785C339.767 203.674 337.586 211.504 335.427 219.124C335.175 220.014 334.283 221.126 333.589 220.514C333.29 220.251 333.277 219.796 333.301 219.398C333.437 217.157 334.051 214.987 334.665 212.82L334.666 212.816C334.856 212.145 335.046 211.474 335.222 210.801C336.844 204.587 337.258 198.059 336.433 191.689C335.012 193.511 334.409 195.822 333.84 198.062L330.461 211.359C328.934 217.37 326.983 223.978 321.688 227.207C321.266 227.464 320.777 227.703 320.297 227.589C319.699 227.448 319.361 226.831 319.112 226.27C315.732 218.658 315.31 209.777 317.952 201.879C318.113 201.4 317.625 200.899 317.121 200.86C316.617 200.82 316.146 201.094 315.733 201.386C311.397 204.445 309.736 209.986 308.357 215.11L306.524 221.923C306.256 222.918 305.986 223.922 305.931 224.951C305.845 226.515 306.254 228.045 306.66 229.567L306.66 229.567L306.661 229.572C306.755 229.923 306.849 230.274 306.936 230.625C308.7 237.703 307.903 245.39 304.725 251.956C304.257 252.924 305.494 253.805 306.502 254.178L320.359 259.309ZM327.208 194.289C326.485 193.791 325.711 193.222 325.487 192.373C325.144 191.072 326.384 189.764 327.719 189.589C329.054 189.414 330.359 190.058 331.465 190.825C333.023 191.906 334.995 190.258 336.162 188.763C334.588 187.822 333.087 186.36 333.025 184.528C332.963 182.695 335.191 180.949 336.674 182.028C337.25 182.446 337.946 182.703 338.634 182.956C339.665 183.335 340.68 183.708 341.245 184.612C341.889 185.639 341.66 187.028 341.005 188.048C340.35 189.068 339.342 189.8 338.357 190.508C339.77 190.648 341.146 191.151 342.315 191.957L343.589 188.244C343.688 187.956 343.795 187.655 344.022 187.452C344.459 187.06 345.138 187.181 345.698 187.359C347.165 187.824 348.604 188.551 349.572 189.748C350.54 190.944 350.944 192.682 350.267 194.065C349.591 195.448 347.681 196.185 346.387 195.351C346.118 195.178 345.849 194.947 345.579 194.716C344.858 194.098 344.136 193.48 343.44 193.975C345.566 195.63 347.026 198.117 347.436 200.781C354.129 190.585 360.75 180.343 367.299 170.055C367.924 169.073 368.428 167.525 367.41 166.96C363.061 164.548 359.217 161.316 355.382 158.093C350.542 154.024 345.716 149.967 339.908 147.585C339.539 147.434 339.136 147.288 338.751 147.389C338.347 147.496 338.063 147.847 337.809 148.179C326.992 162.296 317.285 177.263 308.806 192.895C307.623 195.076 309.206 197.676 310.721 199.641C311.477 200.623 312.938 201.66 313.764 200.735C314.804 199.57 316.509 198.903 317.982 199.424C319.455 199.944 320.372 201.86 319.571 203.201C318.991 204.172 320.126 205.25 321.117 205.793C323.097 206.878 325.128 207.869 327.202 208.763C327.49 208.887 327.825 209.009 328.106 208.869C328.373 208.735 328.482 208.416 328.565 208.129L330.862 200.226C331.24 198.926 331.493 197.24 330.378 196.472L327.208 194.289ZM368.296 172.134C367.991 172.029 367.713 172.335 367.534 172.603L350.336 198.347C349.873 199.039 349.399 199.76 349.264 200.581C349.129 201.403 349.431 202.359 350.179 202.725C351.418 203.33 352.713 202.057 353.508 200.931L369.487 178.284C370.674 176.602 369.67 174.303 368.654 172.513C368.566 172.358 368.465 172.192 368.296 172.134ZM319.875 206.511C319.573 206.291 319.12 206.422 318.866 206.698C318.613 206.974 318.509 207.351 318.414 207.713C318.179 208.605 317.943 209.505 317.908 210.426C317.873 211.348 318.04 212.263 318.207 213.17L319.854 222.122C319.923 222.497 320.004 222.896 320.27 223.17C320.536 223.443 321.055 223.503 321.27 223.188C323.708 219.623 326.18 215.988 327.455 211.862C327.613 211.349 327.659 210.628 327.157 210.439C324.568 209.464 322.111 208.139 319.875 206.511ZM338.895 184.423C338.069 183.637 336.978 183.135 335.844 183.019C334.81 182.913 334.213 184.366 334.685 185.292C335.157 186.218 336.2 186.677 337.165 187.063C337.846 187.336 338.671 187.593 339.265 187.162C340.118 186.543 339.658 185.15 338.895 184.423ZM332.104 194.797C332.441 194.558 332.485 194.068 332.39 193.666C332.035 192.15 330.374 191.376 328.882 190.933C328.305 190.761 327.587 190.641 327.181 191.085C326.841 191.456 326.913 192.069 327.206 192.478C327.499 192.886 327.957 193.138 328.4 193.377L330.704 194.618C331.142 194.854 331.699 195.085 332.104 194.797ZM345.215 189.335C344.727 189.989 344.777 190.938 345.184 191.645C345.591 192.351 346.296 192.842 347.04 193.176C347.294 193.29 347.574 193.391 347.848 193.336C348.084 193.289 348.286 193.13 348.43 192.938C348.962 192.227 348.704 191.155 348.094 190.509C347.484 189.863 346.617 189.54 345.781 189.237C345.637 189.185 345.469 189.134 345.338 189.213C345.288 189.243 345.25 189.289 345.215 189.335ZM206.319 209.766C201.38 209.664 197.1 205.634 195.633 200.916C195.334 199.953 195.957 198.896 196.816 198.367C197.674 197.838 198.714 197.713 199.716 197.601L206.954 196.788C204.753 192.51 203.185 187.906 202.318 183.174C202.239 182.745 202.167 182.294 202.303 181.879C202.541 181.151 203.326 180.767 204.053 180.523C209.933 178.547 216.994 180.946 220.452 186.097C223.91 191.247 223.457 198.692 219.398 203.384C217.641 205.416 215.338 206.915 212.913 208.068C210.844 209.052 208.609 209.813 206.319 209.766ZM229.76 184.338C230.639 187.24 230.892 190.293 231.013 193.323C229.04 193.024 227.046 192.854 225.05 192.816C224.66 187.719 221.268 183.114 216.808 180.616C212.348 178.118 206.965 177.578 201.926 178.434C201.883 177.715 201.752 176.965 201.621 176.216C201.276 174.237 200.93 172.259 202.209 170.855C202.982 170.006 204.159 169.667 205.287 169.457C210.425 168.5 215.903 169.503 220.369 172.218C224.834 174.933 228.245 179.336 229.76 184.338ZM193.532 200.402C193.524 200.496 193.516 200.588 193.512 200.677C193.478 201.381 193.807 202.027 194.132 202.666C194.219 202.838 194.306 203.009 194.385 203.18C194.762 203.991 194.944 205.06 194.315 205.695C192.792 207.232 191.447 208.944 190.313 210.787C190.033 211.243 189.343 211.28 188.882 211.008C188.421 210.736 188.135 210.252 187.869 209.787C186.185 206.85 184.458 203.778 184.248 200.398C184.222 199.978 184.268 199.469 184.64 199.273C184.805 199.187 184.998 199.184 185.184 199.184L192.718 199.161C192.898 199.16 193.088 199.162 193.244 199.251C193.614 199.461 193.572 199.949 193.532 200.402Z" fill="#48463E"/>
</svg>
