<svg width="20" height="21" viewBox="0 0 20 21" fill="none" xmlns="http://www.w3.org/2000/svg">
    <path d="M18.9 0.990234H1.1C0.808262 0.990234 0.528473 1.10613 0.322183 1.31242C0.115893 1.51871 0 1.7985 0 2.09023V19.8902C0 20.0347 0.0284524 20.1777 0.0837326 20.3112C0.139013 20.4446 0.220038 20.5659 0.322183 20.6681C0.424327 20.7702 0.54559 20.8512 0.679048 20.9065C0.812506 20.9618 0.955546 20.9902 1.1 20.9902H10.68V13.2402H8.08V10.2402H10.68V7.99023C10.6261 7.46199 10.6885 6.92836 10.8627 6.42677C11.0369 5.92518 11.3188 5.46778 11.6885 5.08665C12.0582 4.70551 12.5068 4.40988 13.0028 4.22047C13.4989 4.03107 14.0304 3.95249 14.56 3.99023C15.3383 3.98544 16.1163 4.02551 16.89 4.11023V6.81023H15.3C14.04 6.81023 13.8 7.41023 13.8 8.28023V10.2102H16.8L16.41 13.2102H13.8V20.9902H18.9C19.0445 20.9902 19.1875 20.9618 19.321 20.9065C19.4544 20.8512 19.5757 20.7702 19.6778 20.6681C19.78 20.5659 19.861 20.4446 19.9163 20.3112C19.9715 20.1777 20 20.0347 20 19.8902V2.09023C20 1.94578 19.9715 1.80274 19.9163 1.66928C19.861 1.53582 19.78 1.41456 19.6778 1.31242C19.5757 1.21027 19.4544 1.12925 19.321 1.07397C19.1875 1.01869 19.0445 0.990234 18.9 0.990234Z" fill="#696969"/>
    </svg>
    