<svg width="57" height="57" viewBox="0 0 57 57" fill="none" xmlns="http://www.w3.org/2000/svg">
<g filter="url(#filter0_b_190_1430)">
<rect x="1" y="1" width="54.2" height="54.1798" rx="27.0899" fill="#F6CF20"/>
<g filter="url(#filter1_bd_190_1430)">
<path d="M35.5197 29.7702H29.7702V35.4994C29.7702 36.4307 29.0211 37.1798 28.0899 37.1798C27.1586 37.1798 26.4096 36.4307 26.4096 35.4994V29.7702H20.6803C19.7491 29.7499 19 29.0009 19 28.0696C19 27.6222 19.1822 27.1991 19.4859 26.8752C19.8098 26.5715 20.2349 26.3893 20.6803 26.3893H26.4096V20.6803C26.4096 19.7491 27.1586 19 28.0899 19C29.0211 19 29.7702 19.7491 29.7702 20.6803V26.3893H35.5197C36.4509 26.3893 37.2 27.1384 37.2 28.0696C37.2 29.0009 36.4509 29.7499 35.5197 29.7702Z" fill="white"/>
</g>
<rect x="0.5" y="0.5" width="55.2" height="55.1798" rx="27.5899" stroke="#F6CF20" stroke-linecap="round" stroke-linejoin="round"/>
</g>
<defs>
<filter id="filter0_b_190_1430" x="-15" y="-15" width="86.2" height="86.1797" filterUnits="userSpaceOnUse" color-interpolation-filters="sRGB">
<feFlood flood-opacity="0" result="BackgroundImageFix"/>
<feGaussianBlur in="BackgroundImageFix" stdDeviation="7.5"/>
<feComposite in2="SourceAlpha" operator="in" result="effect1_backgroundBlur_190_1430"/>
<feBlend mode="normal" in="SourceGraphic" in2="effect1_backgroundBlur_190_1430" result="shape"/>
</filter>
<filter id="filter1_bd_190_1430" x="4" y="4" width="48.2" height="48.1797" filterUnits="userSpaceOnUse" color-interpolation-filters="sRGB">
<feFlood flood-opacity="0" result="BackgroundImageFix"/>
<feGaussianBlur in="BackgroundImageFix" stdDeviation="7.5"/>
<feComposite in2="SourceAlpha" operator="in" result="effect1_backgroundBlur_190_1430"/>
<feColorMatrix in="SourceAlpha" type="matrix" values="0 0 0 0 0 0 0 0 0 0 0 0 0 0 0 0 0 0 127 0" result="hardAlpha"/>
<feOffset dx="5" dy="5"/>
<feGaussianBlur stdDeviation="5"/>
<feColorMatrix type="matrix" values="0 0 0 0 0.996078 0 0 0 0 0.847059 0 0 0 0 0.188235 0 0 0 0.35 0"/>
<feBlend mode="normal" in2="effect1_backgroundBlur_190_1430" result="effect2_dropShadow_190_1430"/>
<feBlend mode="normal" in="SourceGraphic" in2="effect2_dropShadow_190_1430" result="shape"/>
</filter>
</defs>
</svg>
