<svg width="258" height="258" viewBox="0 0 258 258" fill="none" xmlns="http://www.w3.org/2000/svg">
<rect width="258" height="258" fill="white"/>
<path d="M165.769 173.074C177.307 174.481 187.206 181.596 195.352 182.571C204.405 183.654 218.097 177.706 232.06 184.707C235.654 186.509 238.604 188.675 237.505 191.366C235.589 196.056 231.557 197.894 222.724 199.169L221.781 199.299C214.953 200.207 207.614 200.427 189.01 200.55L182.653 200.598C159.974 200.795 146.859 201.857 129.875 203.214L128.144 203.354C96.8695 205.928 71.9056 205.515 53.2521 202.663L52.6887 202.576C37.618 200.215 28.5572 196.31 24.1342 191.88C21.5305 189.272 20.0306 186.84 19.9532 184.241C19.8758 181.642 23.7161 178.784 25.9025 177.706C31.9931 174.7 33.9804 173.611 45.6896 172.072C50.7311 171.409 58.2842 171.462 67.0149 171.168C98.335 170.11 146.72 170.752 165.769 173.074Z" fill="white"/>
<path fill-rule="evenodd" clip-rule="evenodd" d="M174.921 178.743C157.166 218.929 92.9139 217.635 48.2067 190.206C39.6686 184.968 10.3189 160.278 39.2059 145.861C68.0928 131.443 58.8403 109.299 82.153 82.8857C109.113 52.3405 159.32 36.6742 194.63 77.7714C284.375 182.226 180.899 165.211 174.921 178.743Z" fill="#FFC085"/>
<path fill-rule="evenodd" clip-rule="evenodd" d="M56.2296 72.1805C54.6289 69.6085 53.0249 68.6216 51.447 69.4753C50.1113 70.1979 49.8891 72.1282 50.5998 75.2162L50.1739 75.4459C49.5886 75.7615 49.37 76.4918 49.6856 77.0771C49.7129 77.1277 49.7438 77.1763 49.7781 77.2225L50.0063 77.528C53.3384 81.9482 55.9788 83.7586 58.0389 82.763C59.7704 81.9262 60.0628 78.3621 59.172 71.9126C59.1096 71.4609 58.7071 71.1399 58.2587 71.1724L58.2024 71.1784C58.1007 71.1924 58.0023 71.2246 57.9119 71.2733L56.2296 72.1805ZM51.505 74.5239L55.2199 72.5141L55.2111 72.5005C53.9337 70.5192 52.8514 69.8888 51.9381 70.3829L51.8962 70.4071C51.2218 70.8186 51.0349 72.1117 51.4644 74.3217L51.505 74.5239ZM58.1828 72.2996L50.6637 76.3543C50.5801 76.3994 50.5489 76.5037 50.594 76.5873C50.5979 76.5945 50.6023 76.6015 50.6072 76.6081L50.8287 76.9044C53.8743 80.9443 56.1651 82.5224 57.5898 81.8338C58.6723 81.3107 58.9564 78.1334 58.2033 72.4498L58.1828 72.2996ZM56.6465 78.8006C56.8234 78.6154 56.932 78.3644 56.932 78.0881C56.932 77.5181 56.47 77.0561 55.9 77.0561C55.3301 77.0561 54.868 77.5181 54.868 78.0881C54.868 78.658 55.3301 79.1201 55.9 79.1201C55.9449 79.1201 55.9891 79.1172 56.0325 79.1116L56.6191 80.1886L56.6404 80.2227C56.7397 80.3634 56.9309 80.4105 57.0858 80.3261C57.2526 80.2352 57.3142 80.0263 57.2233 79.8595L56.6465 78.8006Z" fill="#FFB61D"/>
<path fill-rule="evenodd" clip-rule="evenodd" d="M165.769 173.074C177.307 174.481 187.206 181.596 195.352 182.571C204.405 183.654 218.097 177.706 232.06 184.707C235.654 186.509 238.604 188.675 237.505 191.366C235.589 196.056 231.557 197.894 222.724 199.169L221.781 199.299C214.953 200.207 207.614 200.427 189.01 200.55L182.653 200.598C159.974 200.795 146.859 201.857 129.875 203.214L128.144 203.354C96.8695 205.928 71.9056 205.515 53.2521 202.663L52.6887 202.576C37.618 200.215 28.5572 196.31 24.1342 191.88C21.5305 189.272 20.0306 186.84 19.9532 184.241C19.8758 181.642 23.7161 178.784 25.9025 177.706C31.9931 174.7 33.9804 173.611 45.6896 172.072C50.7311 171.409 58.2842 171.462 67.0149 171.168C98.335 170.11 146.72 170.752 165.769 173.074ZM45.431 174.249L44.6637 174.351C33.752 175.831 26.7767 178.523 23.4724 181.207L23.2662 181.379C20.729 183.566 20.4918 186.024 24.1389 189.657C28.1266 193.63 38.2973 198.112 52.9624 200.397C71.3221 203.258 96.0056 204.089 127.004 201.601L130.254 201.339C148.15 199.932 161.88 199.183 187.292 199.005L194.307 198.952C209.436 198.815 215.866 198.545 222.074 197.682L222.664 197.597C250.076 192.235 230.297 182.615 218.949 182.571C209.23 182.533 197.558 185.267 194.307 184.244C184.061 181.019 178.8 176.081 165.769 174.501L161.98 174.047L158.746 173.895C105.732 171.432 67.9498 171.306 45.431 174.249Z" fill="#00160A"/>
<path d="M79.7656 49.666C79.5773 49.66 79.3889 49.6602 79.2007 49.6666C74.5616 49.8262 70.9201 53.6789 71.0041 58.3055L71.0078 58.446L71.0648 60.1796C71.2277 65.3868 71.3173 70.5734 71.3336 75.7395L71.3616 91.6347C71.3679 97.3557 71.3644 102.519 71.3476 107.575L71.3246 112.938C71.2345 130.009 70.9912 141.991 70.5399 147.206L70.4528 148.182C69.908 154.555 69.7952 163.71 70.1183 175.625C70.122 175.763 70.1289 175.9 70.1391 176.038C70.4961 180.868 74.6629 184.507 79.4828 184.229L79.6291 184.219L81.231 184.103C96.204 183.035 111.177 182.5 126.151 182.5C140.806 182.5 155.575 183.012 170.455 184.036C170.886 184.065 171.318 184.068 171.748 184.044C177.39 183.724 181.719 178.937 181.492 173.31L181.483 173.139L181.371 171.11C180.372 152.828 179.855 134.546 179.819 116.264L179.817 114.233C179.817 100.908 180.441 82.6339 181.688 59.4017C181.702 59.1415 181.705 58.8807 181.697 58.6202C181.541 53.5772 177.366 49.6052 172.34 49.6799L172.187 49.6834L164.579 49.9141C147.295 50.4239 134.709 50.6903 126.814 50.7132L125.461 50.7147L124.069 50.7111C116.01 50.6765 103.534 50.4001 86.6328 49.882L79.7656 49.666Z" fill="white"/>
<path fill-rule="evenodd" clip-rule="evenodd" d="M171.597 49.1921C170.988 49.526 170.185 49.7609 169.188 49.8964C171.754 50.1243 173.771 50.0712 175.24 49.737L174.922 49.6977C173.888 49.5671 172.78 49.3986 171.597 49.1921Z" fill="#E7EAEE"/>
<path fill-rule="evenodd" clip-rule="evenodd" d="M75.0966 172.213L75.168 172.215C75.6114 172.246 75.9241 172.593 75.8833 172.975C75.8367 173.412 75.3691 173.837 74.8585 173.872C74.4528 173.9 74.1709 173.588 74.2159 173.103C74.2631 172.595 74.6614 172.215 75.0966 172.213Z" fill="#E7EAEE"/>
<path fill-rule="evenodd" clip-rule="evenodd" d="M83.2172 178.857L83.2886 178.86C83.732 178.89 84.0447 179.237 84.004 179.619C83.9573 180.056 83.4897 180.481 82.9792 180.516C82.5734 180.544 82.2915 180.232 82.3365 179.747C82.3837 179.239 82.782 178.859 83.2172 178.857Z" fill="#E7EAEE"/>
<path fill-rule="evenodd" clip-rule="evenodd" d="M126.24 178.42C108.623 182.308 141.702 181.621 154.605 180.77C161.628 180.306 167.236 183.814 170.455 184.036C170.886 184.065 171.318 184.068 171.748 184.044C177.39 183.724 181.719 178.937 181.492 173.31L181.483 173.139L181.371 171.11C180.372 152.828 179.855 134.546 179.819 116.264L179.817 114.233C179.817 100.908 180.441 82.6339 181.688 59.4017C181.702 59.1415 181.705 58.8807 181.697 58.6202C181.541 53.5772 171.877 168.348 126.24 178.42Z" fill="#E7EAEE"/>
<path d="M178.491 173.721L178.553 173.723C178.874 173.749 179.137 174.083 179.099 174.491C179.057 174.943 178.667 175.349 178.279 175.38C178.005 175.402 177.774 175.108 177.815 174.603C177.857 174.086 178.181 173.728 178.491 173.721Z" fill="white"/>
<path fill-rule="evenodd" clip-rule="evenodd" d="M178.38 176.668C177.234 176.759 176.428 175.733 176.527 174.499C176.624 173.299 177.538 172.347 178.635 172.434C179.714 172.519 180.488 173.504 180.385 174.611C180.287 175.674 179.411 176.586 178.38 176.668ZM178.553 173.723L178.491 173.721C178.18 173.728 177.857 174.086 177.815 174.603C177.774 175.108 178.005 175.402 178.279 175.38C178.667 175.349 179.057 174.943 179.099 174.491C179.137 174.083 178.874 173.749 178.553 173.723Z" fill="white"/>
<path d="M167.579 57.1117C171.656 57.1117 174.962 60.4169 174.962 64.4941C174.962 64.6467 174.957 64.7992 174.947 64.9515L174.839 66.76C174.641 70.1926 174.443 74.268 174.246 78.9863L174.215 79.7417C173.733 92.4341 173.718 122.462 174.17 169.824C174.209 173.901 170.935 177.238 166.858 177.276C166.759 177.277 166.659 177.276 166.56 177.273L85.5678 174.774C81.8176 174.659 78.7507 171.749 78.4387 168.01L78.37 167.165C77.3033 153.72 77.2398 136.553 78.1795 115.663L78.3173 112.667C78.7971 101.674 78.8348 85.6638 78.4302 64.6361C78.3526 60.6021 81.5256 57.2617 85.5421 57.1166L85.7402 57.112L167.579 57.1117Z" fill="white"/>
<path fill-rule="evenodd" clip-rule="evenodd" d="M113.125 144.171C116.704 144.322 120.378 143.687 123.565 142.13C127.556 140.18 130.559 136.909 132.221 132.217C134.41 126.039 133.606 119.357 130.459 113.477C127.657 108.243 123.253 104.26 119.193 103.275C119.193 103.275 130.459 119.122 128.845 127.786C126.377 141.032 113.125 144.171 113.125 144.171Z" fill="#E7EAEE"/>
<path fill-rule="evenodd" clip-rule="evenodd" d="M115.727 125.56C117.469 126.282 118.001 127.625 117.322 129.587L117.283 129.696C112.874 141.804 107.674 141.914 112.123 129.696C112.663 128.216 112.529 127.081 111.722 126.29C113.148 126 114.483 125.757 115.727 125.56Z" fill="#E7EAEE"/>
<path fill-rule="evenodd" clip-rule="evenodd" d="M88.1086 111.407C89.2496 108.017 90.9156 105.469 94.0293 103.454L94.4249 103.203C95.0968 102.781 95.9249 102.304 96.5984 102.63C97.4543 103.044 98.6934 104.555 97.9395 105.148C97.4282 105.55 95.3237 105.977 93.7372 107.367C91.8643 109.008 90.5163 111.652 90.5163 112.299C90.5163 114.411 87.4349 113.409 88.1086 111.407Z" fill="#E7EAEE"/>
<path fill-rule="evenodd" clip-rule="evenodd" d="M84.5803 63.0904C80.6637 73.8447 80.6903 75.9785 80.4553 74.1249C79.6952 68.1301 79.1219 64.1907 80.025 61.7977C81.1684 58.7681 84.0347 58.1722 84.773 58.5238C86.3338 59.2672 84.5803 63.0904 84.5803 63.0904Z" fill="#E7EAEE"/>
<path fill-rule="evenodd" clip-rule="evenodd" d="M149.02 118.359L147.717 118.319C146.171 118.28 145.057 118.289 144.122 118.362C143.371 118.421 142.811 118.523 142.493 118.624L142.431 118.645L142.424 118.674C142.389 118.85 142.364 119.084 142.353 119.368L142.35 119.476C142.329 120.328 142.432 121.465 142.636 122.735C142.804 123.777 143.033 124.859 143.272 125.771L143.332 125.995C143.424 126.335 143.514 126.631 143.592 126.862L143.62 126.944L143.655 126.957C144.135 127.127 145.089 127.147 146.929 127.012L148.179 126.914C149.022 126.852 149.635 126.825 150.241 126.833L156.115 126.956C156.937 126.971 157.679 126.983 158.407 126.993L159.727 127.008C163.022 127.2 166.644 127.056 167.095 126.236C168.469 123.734 169.117 118.581 168.469 118.547C167.303 118.485 165.892 118.411 165.221 118.42L163.674 118.448L162.27 118.46C161.629 118.463 160.96 118.465 160.243 118.466L152.192 118.447C151.669 118.444 151.156 118.431 150.232 118.401L149.02 118.359Z" fill="#E7EAEE"/>
<path fill-rule="evenodd" clip-rule="evenodd" d="M87.2874 48.0556L79.8249 47.8214C79.5957 47.814 79.3663 47.8143 79.1372 47.8221C73.4325 48.0183 68.967 52.8019 69.1631 58.5065L69.22 60.2373C69.2869 62.3746 69.3886 64.5084 69.4902 66.6388L69.4902 66.6388C69.6626 70.2562 69.8346 73.8635 69.8346 77.4608L69.8586 90.5076C69.8816 108.702 69.8264 138.667 69.0183 147.346L68.9575 148.027C68.4323 154.177 67.9604 162.829 68.2298 173.983L68.2732 175.675C68.2778 175.841 68.2862 176.008 68.2984 176.174C68.7342 182.07 73.8669 186.496 79.7627 186.06L81.3623 185.944L81.6273 185.925C81.6807 186.014 81.7349 186.104 81.7883 186.192C82.0474 186.62 82.2895 187.019 82.3457 187.215C82.4876 187.71 82.5026 188.27 82.4206 189.538L82.3376 190.726L82.3151 191.112C82.1941 193.481 82.4677 194.89 83.6232 195.951C85.1093 197.316 86.6837 197.171 89.9095 196.874L90.0545 196.861L90.8849 196.78C91.8448 196.688 92.9241 196.763 93.6595 196.814L93.6613 196.814C93.8723 196.829 94.0549 196.841 94.1982 196.847L94.4697 196.861C96.3207 196.935 96.6146 196.326 96.7766 194.82C96.8659 193.99 96.7496 193.337 96.262 191.652L95.897 190.41L95.7759 189.978C95.2063 187.873 95.2583 186.823 96.0004 186.314C96.1805 186.191 96.9326 185.967 97.7999 185.709C98.6923 185.444 99.7066 185.142 100.346 184.876C108.947 184.523 117.549 184.346 126.151 184.346C135.188 184.346 144.27 184.541 153.394 184.932C153.333 185.03 153.322 185.173 153.386 185.371C153.459 185.596 153.733 185.751 154.084 185.949C155.014 186.475 156.48 187.304 156.139 190.524L156.14 190.656C156.192 193.194 157.73 194.682 160.205 195.187C161.859 195.525 163.741 195.423 165.791 195.068C166.806 194.892 167.46 194.257 167.772 193.29C167.944 192.756 168.006 192.276 168.046 191.321C168.046 191.321 167.595 186.358 170.104 185.862C170.179 185.867 170.254 185.872 170.329 185.877C170.619 185.897 170.91 185.906 171.202 185.906C171.241 185.915 171.28 185.925 171.32 185.936C171.441 185.968 171.555 185.95 171.659 185.896C171.723 185.893 171.788 185.89 171.853 185.886C178.569 185.506 183.706 179.753 183.326 173.037L183.213 171.009C182.179 152.084 181.663 133.158 181.663 114.233C181.663 101.345 182.249 83.7929 183.421 61.5755L183.531 59.5007C183.548 59.1884 183.552 58.8755 183.542 58.5629C183.352 52.4501 178.242 47.6487 172.13 47.8387L168.255 47.9577C149.057 48.5398 135.242 48.8431 126.812 48.8676L125.463 48.8691C117.592 48.863 104.867 48.5919 87.2874 48.0556ZM167.585 185.694C163.319 185.418 159.063 185.185 154.816 184.994C156.849 185.981 157.574 187.824 157.614 190.373L157.616 190.524C157.616 192.173 158.899 193.25 160.624 193.602C160.805 193.639 160.991 193.679 161.18 193.72C162.372 193.979 163.735 194.274 165.246 194.026L165.476 193.988C166.521 193.602 166.521 189.847 166.521 189.847C166.533 189.541 166.543 189.342 166.561 189.1L166.584 188.827C166.714 187.46 167 186.439 167.585 185.694ZM84.1198 186.706C84.0195 186.357 83.8764 186.048 83.6916 185.782C87.3128 185.537 90.934 185.323 94.5553 185.141C93.9895 185.772 93.9364 186.623 93.9155 187.64C93.8975 188.517 94.0747 189.449 94.4474 190.762L94.4697 190.841L94.8106 192.002C95.228 193.435 95.3535 194.035 95.3183 194.537L95.3107 194.622C95.2606 195.088 94.6618 195.614 93.6502 195.555L93.4692 195.546C93.0356 195.48 88.7624 195.555 88.7624 195.555C86.7893 195.755 85.8394 195.48 84.8714 194.592C84.2216 193.995 84.0473 192.935 84.1754 190.907L84.2552 189.768C84.3555 188.28 84.3471 187.583 84.1597 186.853L84.1198 186.706ZM79.2006 49.6666C79.3888 49.6602 79.5772 49.66 79.7655 49.666L86.6327 49.882C103.533 50.4001 116.01 50.6765 124.069 50.7111L125.461 50.7147L126.814 50.7132C134.709 50.6903 147.295 50.4239 164.579 49.9141L172.187 49.6834L172.339 49.6799C177.366 49.6052 181.54 53.5772 181.697 58.6202C181.705 58.8807 181.702 59.1415 181.688 59.4017C180.441 82.6339 179.817 100.908 179.817 114.233L179.819 116.264C179.855 134.546 180.372 152.828 181.37 171.11L181.483 173.139L181.492 173.31C181.718 178.937 177.39 183.724 171.748 184.044C171.318 184.068 170.886 184.065 170.455 184.036C155.575 183.012 140.806 182.5 126.151 182.5C111.177 182.5 96.2039 183.035 81.2309 184.103L79.629 184.219L79.4827 184.229C74.6628 184.507 70.496 180.868 70.139 176.038C70.1288 175.9 70.1219 175.763 70.1182 175.625C69.7951 163.71 69.9079 154.555 70.4527 148.182L70.5399 147.206C70.9912 141.991 71.2344 130.009 71.3245 112.938L71.3475 107.575C71.3643 102.519 71.3678 97.3557 71.3615 91.6347L71.3335 75.7395C71.3172 70.5735 71.2276 65.3868 71.0647 60.1796L71.0077 58.446L71.004 58.3055C70.92 53.6789 74.5615 49.8262 79.2006 49.6666ZM174.962 64.494C174.962 60.4169 171.656 57.1117 167.579 57.1117L85.7401 57.112L85.542 57.1166C81.5255 57.2617 78.3525 60.6021 78.4301 64.636C78.8347 85.6638 78.7971 101.674 78.3172 112.667L78.1794 115.663C77.2397 136.553 77.3032 153.72 78.3699 167.165L78.4386 168.01C78.7506 171.749 81.8175 174.659 85.5677 174.774L166.56 177.273C166.659 177.276 166.759 177.277 166.858 177.276C170.935 177.238 174.209 173.901 174.17 169.824C173.718 122.461 173.733 92.4341 174.215 79.7417L174.245 78.9862C174.443 74.2679 174.641 70.1925 174.839 66.76L174.947 64.9515C174.957 64.7992 174.962 64.6466 174.962 64.494ZM85.8111 58.9573H167.579C170.637 58.9573 173.116 61.4362 173.116 64.494C173.116 64.6085 173.112 64.7229 173.105 64.8371C172.912 67.9503 172.719 71.6666 172.527 75.9871L172.402 78.9091C171.914 90.5693 171.867 118.492 172.259 162.722L172.324 169.842C172.353 172.899 169.898 175.402 166.84 175.431C166.766 175.432 166.691 175.431 166.617 175.429L85.6246 172.93L85.5027 172.925C82.7457 172.78 80.5084 170.62 80.2778 167.856C79.1412 154.237 79.0652 136.643 80.0531 115.085L80.1459 113.09C80.6117 102.717 80.6779 87.8413 80.3455 68.4518L80.2754 64.6005C80.2166 61.5432 82.6473 59.0171 85.7046 58.9583C85.7401 58.9576 85.7756 58.9573 85.8111 58.9573ZM82.9824 53.2971C83.0989 54.5518 82.1897 55.5587 80.9647 55.4744C79.8443 55.3973 78.8589 54.5027 78.7439 53.4253L78.7371 53.3466C78.6659 52.2746 79.4871 51.3634 80.5889 51.2465L80.6721 51.2392C81.847 51.1584 82.87 52.087 82.9824 53.2971ZM80.8154 52.5263L80.7439 52.529C80.3005 52.5598 79.9878 52.9061 80.0286 53.2883C80.0752 53.7259 80.5429 54.1504 81.0534 54.1855C81.4592 54.2134 81.741 53.9013 81.696 53.4166C81.6488 52.9084 81.2505 52.5282 80.8154 52.5263ZM74.2836 63.0831C73.0065 63.1964 72.1459 61.9677 72.2521 60.4941C72.3561 59.0497 73.348 57.8889 74.5762 57.9979L74.6555 58.0066C75.7835 58.1533 76.5628 59.263 76.4989 60.5068L76.4931 60.5937C76.3879 61.8652 75.4345 62.981 74.2836 63.0831ZM74.4814 59.2862L74.4187 59.2831C74.0269 59.2879 73.5961 59.8173 73.5406 60.5869C73.4852 61.3558 73.8157 61.8276 74.1695 61.7962C74.6495 61.7536 75.1491 61.1689 75.2055 60.4872C75.2589 59.8419 74.8957 59.3232 74.4814 59.2862ZM169.915 53.2971C169.798 54.5518 170.708 55.5587 171.933 55.4744C173.053 55.3973 174.039 54.5027 174.153 53.4253L174.16 53.3466C174.232 52.2746 173.41 51.3634 172.308 51.2465L172.225 51.2392C171.05 51.1584 170.027 52.087 169.915 53.2971ZM172.082 52.5263L172.154 52.529C172.597 52.5598 172.91 52.9061 172.869 53.2883C172.822 53.7259 172.355 54.1504 171.844 54.1855C171.438 54.2134 171.156 53.9013 171.201 53.4166C171.249 52.9084 171.647 52.5282 172.082 52.5263ZM176.794 60.9714C176.108 59.9526 176.526 58.6617 177.671 58.1353C178.775 57.6276 180.091 58.0492 180.608 59.1072L180.643 59.1828C181.093 60.1955 180.714 61.3623 179.751 61.8366L179.679 61.87C178.688 62.3092 177.421 61.9031 176.794 60.9714ZM179.455 59.6899L179.422 59.6267C179.203 59.2507 178.674 59.0959 178.21 59.3091C177.768 59.5125 177.639 59.9127 177.866 60.2501C178.152 60.6747 178.753 60.8674 179.155 60.689C179.507 60.5332 179.65 60.0893 179.455 59.6899ZM73.3713 171.543C72.4756 172.429 72.5248 173.785 73.5175 174.508C74.4253 175.169 75.7552 175.117 76.5357 174.365L76.5916 174.309C77.3352 173.534 77.2918 172.308 76.5229 171.51L76.4639 171.451C75.6158 170.634 74.2353 170.688 73.3713 171.543ZM75.5268 172.345L75.5798 172.393C75.8997 172.702 75.9167 173.168 75.6397 173.435C75.3227 173.74 74.6916 173.765 74.278 173.463C73.9492 173.224 73.9339 172.803 74.28 172.461C74.6428 172.102 75.1923 172.067 75.5268 172.345ZM81.6381 181.152C80.6454 180.429 80.5961 179.073 81.4919 178.187C82.3559 177.332 83.7364 177.278 84.5845 178.095L84.6435 178.155C85.4124 178.952 85.4558 180.178 84.7122 180.954L84.6563 181.01C83.8758 181.761 82.5459 181.813 81.6381 181.152ZM83.7004 179.037L83.6474 178.989C83.3129 178.711 82.7634 178.746 82.4006 179.105C82.0545 179.448 82.0698 179.868 82.3986 180.107C82.8122 180.409 83.4433 180.384 83.7603 180.079C84.0372 179.812 84.0203 179.346 83.7004 179.037ZM172.521 178.616C171.492 179.653 171.465 181.179 172.56 181.964C173.564 182.682 175.066 182.54 175.965 181.656C176.896 180.739 176.923 179.264 176.007 178.366C175.079 177.458 173.523 177.605 172.521 178.616ZM175.062 179.252L175.115 179.301C175.495 179.673 175.483 180.318 175.059 180.735C174.601 181.185 173.798 181.261 173.313 180.913C172.92 180.632 172.93 180.038 173.438 179.525C173.954 179.006 174.67 178.922 175.062 179.252ZM178.38 176.668C177.234 176.759 176.427 175.733 176.527 174.499C176.624 173.299 177.538 172.347 178.635 172.434C179.714 172.519 180.488 173.504 180.385 174.611C180.287 175.674 179.411 176.586 178.38 176.668ZM178.553 173.723L178.491 173.721C178.18 173.728 177.857 174.086 177.815 174.603C177.774 175.108 178.005 175.402 178.278 175.38C178.667 175.349 179.057 174.943 179.099 174.491C179.137 174.083 178.874 173.749 178.553 173.723Z" fill="#00160A"/>
<path fill-rule="evenodd" clip-rule="evenodd" d="M81.492 178.187C80.5962 179.073 80.6455 180.429 81.6381 181.152C82.5459 181.813 83.8758 181.761 84.6564 181.01L84.7122 180.954C85.4558 180.178 85.4125 178.952 84.6436 178.154L84.5845 178.095C83.7365 177.278 82.3559 177.332 81.492 178.187ZM83.6474 178.989L83.7004 179.037C84.0204 179.346 84.0373 179.812 83.7604 180.079C83.4434 180.384 82.8123 180.409 82.3986 180.107C82.0698 179.868 82.0545 179.448 82.4006 179.105C82.7634 178.746 83.3129 178.711 83.6474 178.989Z" fill="#00160A"/>
<path d="M175.062 179.252L175.115 179.301C175.495 179.673 175.483 180.318 175.059 180.735C174.601 181.185 173.798 181.261 173.313 180.913C172.92 180.632 172.93 180.038 173.438 179.526C173.954 179.006 174.67 178.922 175.062 179.252Z" fill="white"/>
<path fill-rule="evenodd" clip-rule="evenodd" d="M93.5961 100.033C93.1701 100.181 92.7858 100.381 92.3108 100.674L91.9462 100.903L91.7654 101.018C89.0128 102.795 87.1751 105.004 85.8677 107.996L85.7978 108.158L85.7454 108.143C85.3984 108.041 85.0838 107.991 84.7476 108.019C84.0307 108.078 83.3624 108.508 83.1237 109.309C82.7509 110.559 82.9049 111.989 83.3888 113.453L83.4797 113.721C83.9519 115.078 84.4745 115.999 85.3435 116.268C86.4986 116.626 90.4896 115.044 91.8813 113.608C92.874 112.584 92.4764 111.332 91.5317 110.609L91.4449 110.545L91.3536 110.481L91.25 110.414L91.3193 110.29C91.3676 110.205 91.4182 110.119 91.4708 110.032C92.0352 109.096 92.7408 108.211 93.4557 107.585C93.731 107.343 94.0494 107.122 94.4122 106.916C94.9737 106.597 97.2133 105.718 97.5903 105.421C98.8013 104.469 98.6611 103.09 97.8953 101.894C97.419 101.15 96.6702 100.454 95.9464 100.103C95.1861 99.7348 94.3905 99.757 93.5961 100.033ZM95.2224 101.598C96.0783 102.012 97.3174 103.523 96.5635 104.116C96.0522 104.518 93.9477 104.945 92.3612 106.335C90.4883 107.976 89.1403 110.62 89.1403 111.267L89.3539 111.347C90.5218 111.797 90.9667 112.165 90.6887 112.452C89.4501 113.73 86.0837 114.759 85.8344 114.681C85.5892 114.606 84.1367 111.725 84.7155 109.783C84.7929 109.524 85.4653 109.721 86.7326 110.375C87.8736 106.985 89.5396 104.437 92.6533 102.422L93.0489 102.171C93.7208 101.749 94.5489 101.272 95.2224 101.598Z" fill="#00160A"/>
<path fill-rule="evenodd" clip-rule="evenodd" d="M96.1162 138.256C89.2788 130.784 88.883 118.037 96.2697 109.828C100.859 104.729 111.645 101.444 119.193 103.275C123.253 104.26 127.657 108.243 130.458 113.477C133.606 119.358 134.41 126.039 132.221 132.217C130.558 136.909 127.555 140.18 123.565 142.13C120.378 143.687 116.704 144.322 113.125 144.171C106.668 143.899 98.639 141.013 96.1162 138.256ZM128.831 114.348C126.259 109.541 122.25 105.916 118.758 105.068L118.55 105.02C111.665 103.458 101.733 106.516 97.6416 111.063C90.9053 118.549 91.2677 130.224 97.4778 137.011C99.621 139.353 107.193 142.074 113.203 142.327C116.493 142.466 119.866 141.883 122.754 140.472C126.319 138.73 128.984 135.827 130.481 131.601C132.486 125.942 131.746 119.794 128.831 114.348ZM125.276 132.031C129.36 124.861 123.824 109.38 116.091 108.088C108.822 106.873 106.067 108.637 102.932 111.355L102.325 111.887C96.1902 117.311 96.1902 128.964 102.184 134.37C103.69 135.729 110.317 139.214 115.403 138.148C118.775 137.441 123.467 135.206 125.276 132.031ZM108.209 110.11C108.594 109.972 109 109.858 109.432 109.77C109.374 109.904 109.324 110.047 109.283 110.198C109.054 111.04 109.078 111.761 109.325 113.517L109.494 114.68C109.508 114.782 109.521 114.876 109.534 114.973L109.571 115.268C109.834 117.49 109.595 118.65 108.602 119.289C107.693 119.874 106.799 120.095 104.756 120.332L103.991 120.419C103.049 120.528 102.554 120.603 101.959 120.737L101.69 120.791C100.865 120.965 100.18 121.18 99.6488 121.451C99.9993 118.277 101.299 115.258 103.548 113.269C105.669 111.394 106.739 110.637 108.209 110.11ZM115.787 109.908C115.488 109.858 115.197 109.814 114.915 109.774C114.974 109.924 115.024 110.084 115.065 110.252C115.238 110.956 115.268 111.581 115.226 113.005L115.206 113.619C115.184 114.211 115.174 114.562 115.171 114.9L115.171 115.305C115.188 117.107 115.47 118.304 116.163 119.115L116.24 119.201L116.271 119.214C116.314 119.232 116.368 119.251 116.433 119.273L116.501 119.295C116.66 119.345 116.859 119.402 117.113 119.469L117.539 119.578L119.358 120.023C119.716 120.112 120.034 120.193 120.338 120.273L120.838 120.408C122.342 120.822 123.495 121.226 124.333 121.676C123.081 116.07 119.633 110.551 115.787 109.908ZM124.535 125.799C124.639 125.733 124.737 125.666 124.83 125.598C124.875 127.689 124.524 129.623 123.672 131.118C122.45 133.264 119.053 135.309 115.737 136.174C115.82 135.962 115.888 135.732 115.941 135.486C116.102 134.729 116.128 133.862 116.064 132.634L116.024 131.974L115.964 131.104C115.85 129.368 115.878 128.642 116.029 128.468C116.71 127.685 117.653 127.386 120.054 127.041L120.611 126.962C122.618 126.669 123.559 126.421 124.535 125.799ZM110.428 135.275C110.454 135.586 110.557 135.904 110.725 136.204C109.874 136.024 108.988 135.766 108.086 135.435C106.067 134.697 104.11 133.622 103.42 133C101.231 131.025 99.9711 128.045 99.6402 124.907C100.207 125.168 100.957 125.389 101.888 125.61L102.031 125.643C102.407 125.73 102.792 125.811 103.245 125.901L104.542 126.153C107.443 126.749 108.941 127.44 109.626 128.363L109.694 128.459C110.148 129.12 110.273 129.869 110.31 131.812L110.33 133.196C110.346 134.025 110.372 134.575 110.428 135.275ZM112.611 109.848L112.694 109.856C113.478 109.949 113.643 110.676 113.551 113.416L113.519 114.366C113.512 114.652 113.509 114.883 113.509 115.136C113.51 116.854 113.716 118.188 114.268 119.257C114.165 119.203 114.047 119.172 113.922 119.172L113.797 119.173L113.765 119.174L113.751 119.168C113.539 119.09 113.308 119.114 113.12 119.225L113.101 119.236L113.036 119.247C111.427 119.515 109.826 120.477 108.969 121.75C108.048 123.117 108.094 124.608 109.144 125.886C108.145 125.359 106.819 124.936 105.07 124.566L104.506 124.453C104.174 124.388 103.76 124.309 103.759 124.309L103.426 124.243C103.103 124.179 102.818 124.119 102.543 124.056L102.407 124.025C101.574 123.832 100.916 123.633 100.456 123.426L100.383 123.392C100.242 123.325 100.129 123.26 100.049 123.202L100.039 123.194L100.059 123.173C100.116 123.117 100.202 123.053 100.32 122.985C100.723 122.752 101.388 122.539 102.299 122.363L102.53 122.313C102.935 122.23 103.333 122.17 103.953 122.096L104.96 121.981C107.251 121.714 108.311 121.451 109.501 120.686C111.236 119.569 111.567 117.824 111.201 114.912L111.161 114.605C111.14 114.454 111.118 114.297 111.088 114.097L110.974 113.31C110.768 111.847 110.739 111.219 110.874 110.682L110.886 110.633C111.051 110.028 111.471 109.777 112.611 109.848ZM110.895 127.289C110.917 127.317 110.939 127.345 110.96 127.373C111.745 128.432 111.924 129.366 111.97 131.753L111.988 133.014C112.002 133.803 112.023 134.323 112.067 134.925L112.084 135.141C112.119 135.568 112.847 136.246 113.651 136.093C114.278 135.973 114.52 134.946 114.402 132.662L114.386 132.376L114.294 131.035C114.15 128.839 114.195 128.11 114.696 127.474C113.495 127.926 112.098 127.904 110.895 127.289ZM116.634 126.088C117.379 125.806 118.327 125.615 119.644 125.422L120.358 125.32C122.026 125.077 122.832 124.877 123.515 124.476L123.642 124.399C124.415 123.906 124.49 123.808 124.146 123.53L124.034 123.444C123.427 122.986 122.252 122.529 120.562 122.055L120.205 121.957C119.819 121.852 119.423 121.751 118.956 121.635L117.014 121.158C116.647 121.066 116.353 120.989 116.114 120.918C117.616 122.506 117.864 124.292 116.832 125.819L116.774 125.903C116.729 125.966 116.682 126.027 116.634 126.088ZM113.332 120.695L113.437 120.68L113.512 120.724C115.926 122.192 116.464 123.792 115.571 125.047C114.683 126.295 112.732 126.727 111.332 125.84C109.71 124.812 109.44 123.693 110.193 122.575C110.829 121.631 112.101 120.884 113.332 120.695Z" fill="#00160A"/>
<path d="M139.297 117.867C139.299 117.803 139.301 117.744 139.304 117.689C139.389 117.673 139.485 117.657 139.595 117.642C140.264 117.547 141.134 117.506 142.165 117.503C143.185 117.501 144.278 117.537 145.389 117.575C145.457 117.578 145.525 117.58 145.593 117.582C146.616 117.618 147.661 117.654 148.591 117.655C149.642 117.657 150.713 117.66 151.795 117.664C154.452 117.673 157.17 117.682 159.793 117.655C159.924 117.654 160.103 117.65 160.322 117.646C161.166 117.628 162.595 117.598 164.073 117.646C165.001 117.676 165.864 117.735 166.538 117.832C166.693 117.854 166.826 117.877 166.939 117.9C166.975 118.04 167.012 118.218 167.044 118.438C167.163 119.257 167.17 120.34 167.041 121.44C166.911 122.556 166.662 123.502 166.384 124.104C166.352 124.172 166.323 124.231 166.297 124.28C161.774 124.701 154.479 124.542 148.5 124.411C147.813 124.396 147.144 124.382 146.498 124.368C145.63 124.35 144.746 124.409 143.962 124.47C143.758 124.485 143.562 124.501 143.373 124.517C142.794 124.563 142.277 124.605 141.77 124.627C141.161 124.652 140.71 124.64 140.378 124.594C140.339 124.462 140.296 124.312 140.25 124.145C140.016 123.286 139.762 122.141 139.574 120.972C139.382 119.784 139.278 118.681 139.297 117.867ZM167.354 118.006C167.353 118.006 167.348 118.005 167.339 118.001C167.349 118.004 167.354 118.006 167.354 118.006ZM166.827 117.566C166.821 117.555 166.818 117.549 166.818 117.549C166.818 117.549 166.821 117.554 166.827 117.566ZM166.141 124.519C166.141 124.517 166.153 124.501 166.178 124.477C166.155 124.509 166.142 124.521 166.141 124.519ZM139.371 117.144C139.376 117.124 139.38 117.115 139.38 117.116C139.38 117.116 139.378 117.126 139.371 117.144Z" stroke="#421EB7" stroke-width="5.36509"/>
<path fill-rule="evenodd" clip-rule="evenodd" d="M148.573 115.152C149.638 115.153 150.717 115.156 151.804 115.16C154.038 115.168 156.3 115.175 158.515 115.162L159.745 115.152C159.85 115.151 160.007 115.147 160.204 115.143C162.053 115.104 167.509 114.989 168.709 115.9C170.672 117.389 169.89 126.769 167.084 127.074C162.427 127.58 154.6 127.408 148.438 127.272H148.438H148.438H148.438C147.743 127.257 147.069 127.242 146.423 127.229C145.526 127.211 144.56 127.289 143.607 127.366C141.469 127.539 139.392 127.708 138.287 126.769C137.717 126.284 135.522 117.066 137.232 115.8C138.538 114.833 142.285 114.963 145.65 115.08C146.486 115.109 147.298 115.137 148.044 115.147L148.045 115.146L148.046 115.147C148.226 115.15 148.402 115.151 148.573 115.152ZM146.322 116.949C146.504 116.955 146.67 116.961 146.823 116.965C146.947 117.729 146.961 119.073 146.872 121.051L146.806 122.481C146.748 123.818 146.727 124.727 146.765 125.391L146.331 125.382C145.725 125.374 145.112 125.401 144.27 125.463L143.02 125.56C141.179 125.696 140.225 125.676 139.745 125.505L139.711 125.492L139.682 125.41C139.604 125.18 139.515 124.884 139.422 124.544L139.362 124.319C139.123 123.408 138.894 122.326 138.727 121.284C138.522 120.014 138.419 118.877 138.44 118.025L138.444 117.917C138.455 117.633 138.48 117.398 138.515 117.223L138.521 117.193L138.584 117.172C138.901 117.072 139.461 116.969 140.212 116.911C141.147 116.838 142.261 116.829 143.807 116.868L145.11 116.908L146.322 116.949ZM152.205 125.505L148.638 125.43C148.618 125.221 148.604 124.964 148.6 124.666L148.599 124.602C148.593 124.135 148.602 123.688 148.635 122.904L148.739 120.597C148.802 119.012 148.804 117.862 148.699 116.997L156.333 117.015C156.742 117.014 157.135 117.013 157.516 117.012C157.399 119.308 157.585 123.325 157.823 125.568C157.18 125.567 156.511 125.563 155.817 125.557L154.497 125.542C153.77 125.532 153.027 125.52 152.205 125.505ZM159.698 125.562C162.535 125.538 164.812 125.446 166.577 125.271L166.742 125.254L166.764 125.231C166.858 125.124 166.968 124.952 167.081 124.723L167.123 124.634C167.454 123.917 167.717 122.873 167.852 121.716C167.986 120.572 167.985 119.413 167.851 118.497C167.79 118.074 167.704 117.727 167.606 117.485L167.578 117.419L167.558 117.376L167.484 117.353C167.287 117.295 167.015 117.239 166.684 117.189C166.03 117.092 165.187 117.027 164.202 116.992C163.286 116.96 162.355 116.955 161.312 116.969L159.764 116.997L159.324 117.001C159.31 117.25 159.299 117.547 159.295 117.88L159.294 117.988C159.286 118.887 159.318 120.021 159.382 121.275L159.396 121.528C159.449 122.513 159.519 123.53 159.594 124.424L159.639 124.945C159.659 125.168 159.679 125.375 159.698 125.562ZM151.571 120.114L151.739 120.356C151.931 120.626 152.113 120.866 152.286 121.078C152.054 121.583 151.932 122.151 151.893 122.882C151.88 123.148 152.084 123.375 152.35 123.389C152.616 123.403 152.842 123.199 152.856 122.933C152.878 122.511 152.93 122.164 153.022 121.856C153.555 122.323 154.022 122.496 154.513 122.505L154.608 122.505C154.874 122.505 155.09 122.289 155.09 122.023C155.09 121.773 154.901 121.568 154.657 121.543L154.608 121.541L154.527 121.541C154.213 121.534 153.896 121.401 153.464 120.966C153.604 120.769 153.774 120.574 153.977 120.366L154.494 119.854C154.683 119.667 154.684 119.362 154.497 119.173C154.309 118.983 154.004 118.982 153.815 119.17L153.382 119.596C153.172 119.806 152.987 120.008 152.826 120.211L152.65 119.973C152.56 119.848 152.465 119.714 152.366 119.569C152.215 119.349 151.915 119.293 151.695 119.444C151.476 119.595 151.42 119.895 151.571 120.114ZM164.734 119.655L164.739 119.361C164.741 119.095 164.527 118.877 164.261 118.875C163.995 118.873 163.777 119.087 163.775 119.353C163.772 119.646 163.765 119.908 163.752 120.143C163.505 120.065 163.239 120.001 162.947 119.944L162.35 119.833C162.088 119.783 161.836 119.955 161.786 120.216C161.737 120.478 161.909 120.73 162.17 120.78L162.885 120.915C163.169 120.974 163.419 121.041 163.645 121.125C163.531 121.728 163.342 122.015 163.085 122.197L163.018 122.242L162.979 122.272C162.791 122.428 162.749 122.705 162.888 122.912C163.037 123.132 163.337 123.191 163.558 123.042L163.636 122.989C164.038 122.707 164.329 122.302 164.51 121.616C164.758 121.82 164.995 122.08 165.249 122.417C165.409 122.629 165.711 122.672 165.924 122.512C166.137 122.351 166.179 122.049 166.019 121.836C165.579 121.252 165.16 120.849 164.685 120.559C164.71 120.287 164.726 119.987 164.734 119.655Z" fill="#00160A"/>
<path fill-rule="evenodd" clip-rule="evenodd" d="M143.702 119.614L143.627 119.899C143.539 120.219 143.45 120.506 143.36 120.764C143.751 121.16 144.06 121.652 144.346 122.326C144.45 122.571 144.335 122.854 144.09 122.958C143.845 123.062 143.562 122.948 143.458 122.702C143.294 122.314 143.126 122.005 142.935 121.747C142.593 122.368 142.213 122.691 141.755 122.867L141.666 122.9C141.416 122.991 141.139 122.862 141.048 122.612C140.963 122.377 141.071 122.119 141.291 122.013L141.336 121.994L141.412 121.966C141.705 121.852 141.958 121.619 142.215 121.062C142.015 120.925 141.789 120.8 141.528 120.673L140.867 120.37C140.625 120.258 140.519 119.972 140.631 119.73C140.742 119.488 141.029 119.383 141.27 119.494L141.823 119.747C142.093 119.872 142.335 119.999 142.556 120.134C142.625 119.91 142.696 119.657 142.769 119.373C142.835 119.116 143.098 118.961 143.356 119.027C143.614 119.094 143.769 119.357 143.702 119.614Z" fill="#64FCD9"/>
</svg>
