<svg width="29" height="27" viewBox="0 0 29 27" fill="none" xmlns="http://www.w3.org/2000/svg">
<path d="M20.2477 22.4274L19.4797 16.2786C19.3708 15.4077 18.9476 14.6065 18.2895 14.0257C17.6314 13.445 16.7838 13.1247 15.9061 13.125H13.2613C12.384 13.1252 11.537 13.4458 10.8794 14.0265C10.2218 14.6072 9.79885 15.4081 9.69007 16.2786L8.92087 22.4274C8.87865 22.7652 8.90879 23.1081 9.00928 23.4334C9.10977 23.7587 9.27831 24.0589 9.50371 24.314C9.72912 24.5691 10.0062 24.7734 10.3166 24.9132C10.627 25.0531 10.9636 25.1252 11.3041 25.125H17.8657C18.206 25.1251 18.5425 25.0528 18.8527 24.9129C19.163 24.773 19.4399 24.5687 19.6652 24.3136C19.8905 24.0584 20.0589 23.7583 20.1593 23.4331C20.2598 23.1079 20.2899 22.7651 20.2477 22.4274V22.4274Z" stroke="#FED830" stroke-width="2" stroke-linecap="round" stroke-linejoin="round"/>
<path d="M14.5883 8.325C16.5765 8.325 18.1883 6.71323 18.1883 4.725C18.1883 2.73678 16.5765 1.125 14.5883 1.125C12.6001 1.125 10.9883 2.73678 10.9883 4.725C10.9883 6.71323 12.6001 8.325 14.5883 8.325Z" stroke="#FED830" stroke-width="2"/>
<path d="M4.98203 11.925C6.30751 11.925 7.38203 10.8505 7.38203 9.525C7.38203 8.19952 6.30751 7.125 4.98203 7.125C3.65655 7.125 2.58203 8.19952 2.58203 9.525C2.58203 10.8505 3.65655 11.925 4.98203 11.925Z" stroke="#FED830" stroke-width="2"/>
<path d="M24.1852 11.925C25.5106 11.925 26.5852 10.8505 26.5852 9.525C26.5852 8.19952 25.5106 7.125 24.1852 7.125C22.8597 7.125 21.7852 8.19952 21.7852 9.525C21.7852 10.8505 22.8597 11.925 24.1852 11.925Z" stroke="#FED830" stroke-width="2"/>
<path d="M24.1855 15.5234H24.5527C25.1208 15.5234 25.6705 15.7248 26.104 16.092C26.5376 16.4592 26.8268 16.9683 26.9203 17.5286L27.3199 19.9286C27.3772 20.2725 27.3589 20.6247 27.2664 20.9608C27.1738 21.2969 27.0091 21.6088 26.7838 21.8748C26.5585 22.1407 26.2779 22.3545 25.9616 22.501C25.6453 22.6476 25.3009 22.7235 24.9523 22.7234H20.5855M4.98545 15.5234H4.61825C4.05013 15.5234 3.5004 15.7248 3.06687 16.092C2.63333 16.4592 2.34411 16.9683 2.25065 17.5286L1.85105 19.9286C1.79371 20.2725 1.81196 20.6247 1.90454 20.9608C1.99711 21.2969 2.1618 21.6088 2.38713 21.8748C2.61246 22.1407 2.89303 22.3545 3.20933 22.501C3.52562 22.6476 3.87005 22.7235 4.21865 22.7234H8.58545L4.98545 15.5234Z" stroke="#FED830" stroke-width="2" stroke-linecap="round" stroke-linejoin="round"/>
</svg>
