<svg width="18" height="20" viewBox="0 0 18 20" fill="none" xmlns="http://www.w3.org/2000/svg">
<path d="M12.7682 3.38001C12.9978 3.51038 13.2697 3.54465 13.5245 3.47533C13.7792 3.40601 13.9963 3.23874 14.1282 3.01001C14.2373 2.81737 14.4074 2.6664 14.6116 2.58079C14.8158 2.49518 15.0426 2.47976 15.2565 2.53695C15.4704 2.59415 15.6593 2.72072 15.7935 2.89682C15.9278 3.07292 15.9997 3.28859 15.9982 3.51001C15.9982 3.77523 15.8928 4.02958 15.7053 4.21712C15.5178 4.40465 15.2634 4.51001 14.9982 4.51001C14.733 4.51001 14.4786 4.61537 14.2911 4.8029C14.1035 4.99044 13.9982 5.24479 13.9982 5.51001C13.9982 5.77523 14.1035 6.02958 14.2911 6.21712C14.4786 6.40465 14.733 6.51001 14.9982 6.51001C15.5247 6.50967 16.0419 6.37076 16.4977 6.10724C16.9536 5.84372 17.332 5.46487 17.5951 5.00876C17.8581 4.55265 17.9965 4.03534 17.9963 3.50881C17.996 2.98228 17.8573 2.46508 17.5939 2.00918C17.3304 1.55327 16.9517 1.17473 16.4956 0.911573C16.0396 0.648418 15.5223 0.509925 14.9958 0.51001C14.4693 0.510094 13.952 0.648753 13.4961 0.912053C13.0401 1.17535 12.6615 1.55402 12.3982 2.01001C12.3321 2.12414 12.2892 2.25023 12.272 2.38101C12.2548 2.51179 12.2637 2.64467 12.2981 2.77201C12.3325 2.89935 12.3917 3.01863 12.4724 3.12298C12.5531 3.22732 12.6536 3.31468 12.7682 3.38001ZM17.0682 10.51C16.8057 10.4759 16.5404 10.5473 16.3305 10.7085C16.1205 10.8697 15.983 11.1076 15.9482 11.37C15.7383 13.0652 14.9159 14.6251 13.6358 15.756C12.3557 16.8869 10.7063 17.5107 8.99819 17.51H3.40819L4.05819 16.86C4.24444 16.6726 4.34898 16.4192 4.34898 16.155C4.34898 15.8908 4.24444 15.6374 4.05819 15.45C3.08314 14.4711 2.41957 13.2256 2.15108 11.8703C1.88259 10.515 2.02117 9.11053 2.54939 7.83384C3.0776 6.55715 3.97181 5.46533 5.11938 4.6959C6.26694 3.92647 7.61655 3.51385 8.99819 3.51001C9.2634 3.51001 9.51776 3.40465 9.70529 3.21712C9.89283 3.02958 9.99819 2.77523 9.99819 2.51001C9.99819 2.24479 9.89283 1.99044 9.70529 1.8029C9.51776 1.61537 9.2634 1.51001 8.99819 1.51001C7.30742 1.51706 5.65283 2.00025 4.22398 2.9042C2.79513 3.80816 1.64982 5.09633 0.919251 6.62113C0.188682 8.14593 -0.0975896 9.84569 0.093232 11.5257C0.284054 13.2057 0.94425 14.7979 1.99819 16.12L0.288186 17.8C0.149429 17.9406 0.0554325 18.1192 0.0180584 18.3132C-0.0193158 18.5072 0.0016069 18.7079 0.0781863 18.89C0.153206 19.0726 0.280604 19.229 0.444325 19.3393C0.608045 19.4496 0.800761 19.509 0.998186 19.51H8.99819C11.1896 19.5103 13.3059 18.711 14.95 17.2621C16.5941 15.8131 17.653 13.8141 17.9282 11.64C17.9465 11.5093 17.9387 11.3762 17.9053 11.2485C17.8719 11.1208 17.8135 11.0009 17.7336 10.8959C17.6536 10.7908 17.5537 10.7026 17.4395 10.6364C17.3253 10.5702 17.1991 10.5272 17.0682 10.51ZM15.3782 7.58001C15.1961 7.49946 14.9942 7.47509 14.7982 7.51001L14.6182 7.57001L14.4382 7.66001L14.2882 7.79001C14.1982 7.88216 14.1269 7.99082 14.0782 8.11001C14.0191 8.23474 13.9916 8.37213 13.9982 8.51001C13.9953 8.64338 14.0191 8.77598 14.0682 8.90001C14.1199 9.02003 14.1946 9.12874 14.2882 9.22001C14.3816 9.31269 14.4924 9.38601 14.6143 9.43578C14.7361 9.48554 14.8666 9.51077 14.9982 9.51001C15.2634 9.51001 15.5178 9.40465 15.7053 9.21712C15.8928 9.02958 15.9982 8.77523 15.9982 8.51001C16.0016 8.37883 15.9742 8.24869 15.9182 8.13001C15.8107 7.88972 15.6185 7.69746 15.3782 7.59001V7.58001Z" fill="#696969"/>
</svg>
