<svg width="26" height="27" viewBox="0 0 26 27" fill="none" xmlns="http://www.w3.org/2000/svg">
<path d="M24.9522 22.8548V13.4823C24.9522 12.8302 24.8192 12.185 24.5612 11.5862C24.3031 10.9873 23.9256 10.4475 23.4516 9.99965L14.6216 1.65471C14.1769 1.23427 13.5881 1 12.9761 1C12.3641 1 11.7753 1.23427 11.3306 1.65471L2.5006 9.99965C2.02662 10.4475 1.64905 10.9873 1.39102 11.5862C1.13299 12.185 0.999931 12.8302 1 13.4823V22.8548C1 23.49 1.25235 24.0993 1.70154 24.5485C2.15073 24.9976 2.75997 25.25 3.39522 25.25H22.557C23.1922 25.25 23.8014 24.9976 24.2506 24.5485C24.6998 24.0993 24.9522 23.49 24.9522 22.8548Z" stroke="#FED830" stroke-width="2" stroke-linecap="round" stroke-linejoin="round"/>
</svg>
