<svg width="25" height="26" viewBox="0 0 25 26" fill="none" xmlns="http://www.w3.org/2000/svg">
<path d="M21.25 0.5H3.75C2.75544 0.5 1.80161 0.895088 1.09835 1.59835C0.395088 2.30161 0 3.25544 0 4.25V21.75C0 22.7446 0.395088 23.6984 1.09835 24.4017C1.80161 25.1049 2.75544 25.5 3.75 25.5H21.25C21.4556 25.4971 21.6606 25.4762 21.8625 25.4375L22.2375 25.35H22.325H22.3875L22.85 25.175L23.0125 25.0875C23.1375 25.0125 23.275 24.95 23.4 24.8625C23.5669 24.7397 23.7256 24.6061 23.875 24.4625L23.9625 24.35C24.0852 24.2256 24.1981 24.0919 24.3 23.95L24.4125 23.7875C24.4998 23.6483 24.5751 23.502 24.6375 23.35C24.6718 23.29 24.7011 23.2273 24.725 23.1625C24.7875 23.0125 24.825 22.85 24.875 22.6875V22.5C24.9459 22.2558 24.9878 22.004 25 21.75V4.25C25 3.25544 24.6049 2.30161 23.9017 1.59835C23.1984 0.895088 22.2446 0.5 21.25 0.5ZM3.75 23C3.41848 23 3.10054 22.8683 2.86612 22.6339C2.6317 22.3995 2.5 22.0815 2.5 21.75V16.3625L6.6125 12.2375C6.7287 12.1203 6.86695 12.0273 7.01928 11.9639C7.1716 11.9004 7.33499 11.8678 7.5 11.8678C7.66501 11.8678 7.8284 11.9004 7.98072 11.9639C8.13305 12.0273 8.2713 12.1203 8.3875 12.2375L19.1375 23H3.75ZM22.5 21.75C22.4988 21.9041 22.4692 22.0567 22.4125 22.2C22.3839 22.2609 22.3505 22.3195 22.3125 22.375C22.2791 22.4279 22.2414 22.4781 22.2 22.525L15.5125 15.8375L16.6125 14.7375C16.7287 14.6203 16.867 14.5273 17.0193 14.4639C17.1716 14.4004 17.335 14.3678 17.5 14.3678C17.665 14.3678 17.8284 14.4004 17.9807 14.4639C18.133 14.5273 18.2713 14.6203 18.3875 14.7375L22.5 18.8625V21.75ZM22.5 15.325L20.15 13C19.4347 12.3212 18.4861 11.9428 17.5 11.9428C16.5139 11.9428 15.5653 12.3212 14.85 13L13.75 14.1L10.15 10.5C9.43465 9.82124 8.48612 9.44285 7.5 9.44285C6.51388 9.44285 5.56535 9.82124 4.85 10.5L2.5 12.825V4.25C2.5 3.91848 2.6317 3.60054 2.86612 3.36612C3.10054 3.1317 3.41848 3 3.75 3H21.25C21.5815 3 21.8995 3.1317 22.1339 3.36612C22.3683 3.60054 22.5 3.91848 22.5 4.25V15.325Z" fill="#C4A824"/>
</svg>
