<svg width="15" height="25" viewBox="0 0 15 25" fill="none" xmlns="http://www.w3.org/2000/svg">
    <path d="M13.3187 13.0037C14.5719 11.4253 15.1626 9.40315 14.9614 7.38014C14.7602 5.35713 13.7836 3.49811 12.2453 2.21016C11.364 1.48765 10.3366 0.974852 9.2375 0.708965C8.13842 0.443079 6.99527 0.430771 5.89096 0.672934C4.65106 0.953474 3.50089 1.55091 2.54788 2.40944C1.59488 3.26796 0.870125 4.35957 0.441325 5.5823C0.0125241 6.80503 -0.106337 8.11899 0.0958446 9.40145C0.298026 10.6839 0.814653 11.893 1.59747 12.9159C2.31091 13.8038 2.71835 14.9075 2.75671 16.0562V16.3746C2.34829 16.7783 2.11285 17.331 2.10196 17.9119V20.1079C2.10196 20.6903 2.32813 21.2489 2.73072 21.6608C3.13331 22.0726 3.67935 22.304 4.2487 22.304V23.402C4.2487 23.6932 4.36179 23.9725 4.56308 24.1784C4.76438 24.3843 5.0374 24.5 5.32207 24.5C5.60675 24.5 5.87977 24.3843 6.08106 24.1784C6.28236 23.9725 6.39545 23.6932 6.39545 23.402V22.304H8.54219V23.402C8.54219 23.6932 8.65528 23.9725 8.85657 24.1784C9.05787 24.3843 9.33089 24.5 9.61556 24.5C9.90024 24.5 10.1733 24.3843 10.3746 24.1784C10.5758 23.9725 10.6889 23.6932 10.6889 23.402V22.304C11.2583 22.304 11.8043 22.0726 12.2069 21.6608C12.6095 21.2489 12.8357 20.6903 12.8357 20.1079V17.9119C12.8362 17.3373 12.6165 16.7854 12.2239 16.3746V15.9025C12.2552 14.8368 12.6415 13.8141 13.3187 13.0037ZM4.2487 20.1079V17.9119H10.6889V20.1079H4.2487ZM11.6442 11.6312C10.6941 12.7776 10.1429 14.2143 10.0771 15.7158H4.84979C4.74854 14.1946 4.18568 12.7436 3.23973 11.5653C2.6715 10.8358 2.29432 9.97025 2.1438 9.05029C1.99327 8.13032 2.07436 7.18629 2.3794 6.30728C2.68445 5.42826 3.20339 4.64324 3.88728 4.0263C4.57116 3.40935 5.39742 2.98082 6.28811 2.78114C7.07725 2.59905 7.89642 2.6018 8.68437 2.78921C9.47232 2.97661 10.2087 3.3438 10.8383 3.86334C11.468 4.38287 11.9747 5.0413 12.3206 5.78939C12.6665 6.53749 12.8426 7.35589 12.8357 8.1834C12.8424 9.4394 12.4211 10.6586 11.6442 11.6312Z" fill="#696969"/>
    </svg>
    