<svg width="19" height="20" viewBox="0 0 19 20" fill="none" xmlns="http://www.w3.org/2000/svg">
    <path d="M7.47626 15.756L5.79501 17.3897C5.35415 17.8306 4.75623 18.0783 4.13276 18.0783C3.5093 18.0783 2.91137 17.8306 2.47051 17.3897C2.02966 16.9489 1.78199 16.3509 1.78199 15.7275C1.78199 15.104 2.02966 14.5061 2.47051 14.0652L6.78286 9.74337C7.20613 9.31873 7.77643 9.07304 8.37578 9.05712C8.97514 9.04121 9.55767 9.2563 10.0029 9.65788L10.1169 9.75287C10.297 9.92921 10.5398 10.0268 10.7918 10.0241C11.0439 10.0214 11.2846 9.91874 11.4609 9.73862C11.6372 9.5585 11.7348 9.31571 11.7321 9.06365C11.7295 8.81159 11.6268 8.57092 11.4467 8.39457C11.3931 8.32526 11.336 8.25868 11.2757 8.1951C10.4648 7.48966 9.41618 7.11877 8.34212 7.15757C7.26805 7.19637 6.24888 7.64196 5.49106 8.40407L1.12171 12.7259C0.379265 13.5341 -0.0222734 14.5978 0.000954357 15.6949C0.0241821 16.7921 0.47038 17.8379 1.24637 18.6139C2.02235 19.3899 3.06813 19.8361 4.16529 19.8593C5.26246 19.8825 6.32618 19.481 7.13431 18.7385L8.77756 17.1333C8.93981 16.9563 9.02901 16.7244 9.02719 16.4843C9.02538 16.2441 8.93269 16.0136 8.76779 15.8391C8.60288 15.6646 8.37799 15.559 8.13837 15.5435C7.89875 15.5281 7.66218 15.604 7.47626 15.756ZM17.6302 2.23C16.8312 1.43593 15.7504 0.990234 14.6239 0.990234C13.4974 0.990234 12.4167 1.43593 11.6176 2.23L9.97438 3.83526C9.81213 4.01226 9.72294 4.24415 9.72475 4.48426C9.72656 4.72438 9.81925 4.95489 9.98415 5.12943C10.1491 5.30396 10.374 5.40956 10.6136 5.42499C10.8532 5.44041 11.0898 5.36451 11.2757 5.21255L12.9189 3.5788C13.3598 3.13794 13.9577 2.89027 14.5812 2.89027C15.2047 2.89027 15.8026 3.13794 16.2434 3.5788C16.6843 4.01965 16.932 4.61758 16.932 5.24105C16.932 5.86451 16.6843 6.46244 16.2434 6.9033L11.9311 11.2251C11.5078 11.6498 10.9375 11.8955 10.3382 11.9114C9.73881 11.9273 9.15627 11.7122 8.71107 11.3106L8.59709 11.2157C8.41697 11.0393 8.17417 10.9417 7.92211 10.9444C7.67006 10.9471 7.42938 11.0498 7.25304 11.2299C7.0767 11.41 6.97913 11.6528 6.9818 11.9049C6.98448 12.1569 7.08717 12.3976 7.26729 12.5739C7.33628 12.6445 7.40922 12.7111 7.48576 12.7734C8.29758 13.4767 9.34579 13.8462 10.4192 13.8075C11.4926 13.7687 12.5114 13.3245 13.2704 12.5644L17.5922 8.2426C18.3914 7.44859 18.8439 6.37065 18.851 5.24413C18.8581 4.11762 18.4193 3.03405 17.6302 2.23Z" fill="#4F4F4F"/>
    </svg>
    