<svg width="20" height="21" viewBox="0 0 20 21" fill="none" xmlns="http://www.w3.org/2000/svg">
    <path d="M18.41 0.990374H1.47C1.27958 0.98773 1.0905 1.02262 0.913566 1.09306C0.73663 1.16349 0.575303 1.26809 0.438797 1.40089C0.302292 1.53368 0.193281 1.69206 0.117992 1.86698C0.0427024 2.04191 0.00260839 2.22995 0 2.42037V19.5604C0.00260839 19.7508 0.0427024 19.9388 0.117992 20.1138C0.193281 20.2887 0.302292 20.4471 0.438797 20.5799C0.575303 20.7127 0.73663 20.8173 0.913566 20.8877C1.0905 20.9581 1.27958 20.993 1.47 20.9904H18.41C18.6004 20.993 18.7895 20.9581 18.9664 20.8877C19.1434 20.8173 19.3047 20.7127 19.4412 20.5799C19.5777 20.4471 19.6867 20.2887 19.762 20.1138C19.8373 19.9388 19.8774 19.7508 19.88 19.5604V2.42037C19.8774 2.22995 19.8373 2.04191 19.762 1.86698C19.6867 1.69206 19.5777 1.53368 19.4412 1.40089C19.3047 1.26809 19.1434 1.16349 18.9664 1.09306C18.7895 1.02262 18.6004 0.98773 18.41 0.990374ZM6.03 17.7304H3.03V8.73037H6.03V17.7304ZM4.53 7.47037C4.11626 7.47037 3.71947 7.30602 3.42691 7.01346C3.13436 6.7209 2.97 6.32411 2.97 5.91037C2.97 5.49664 3.13436 5.09984 3.42691 4.80729C3.71947 4.51473 4.11626 4.35037 4.53 4.35037C4.7497 4.32546 4.97218 4.34723 5.18288 4.41426C5.39357 4.48129 5.58774 4.59206 5.75266 4.73934C5.91757 4.88661 6.04953 5.06705 6.13987 5.26886C6.23022 5.47066 6.27692 5.68927 6.27692 5.91037C6.27692 6.13148 6.23022 6.35009 6.13987 6.55189C6.04953 6.7537 5.91757 6.93414 5.75266 7.08141C5.58774 7.22868 5.39357 7.33946 5.18288 7.40649C4.97218 7.47352 4.7497 7.49529 4.53 7.47037ZM16.85 17.7304H13.85V12.9004C13.85 11.6904 13.42 10.9004 12.33 10.9004C11.9927 10.9028 11.6642 11.0087 11.3888 11.2035C11.1135 11.3984 10.9045 11.673 10.79 11.9904C10.7117 12.2254 10.6778 12.4729 10.69 12.7204V17.7204H7.69C7.69 17.7204 7.69 9.54037 7.69 8.72037H10.69V9.99037C10.9625 9.51748 11.3589 9.12789 11.8364 8.86358C12.314 8.59926 12.8546 8.47023 13.4 8.49037C15.4 8.49037 16.85 9.78037 16.85 12.5504V17.7304Z" fill="#696969"/>
    </svg>
    