<svg width="16" height="21" viewBox="0 0 16 21" fill="none" xmlns="http://www.w3.org/2000/svg">
    <path d="M8 9.77274C8.39556 9.77274 8.78224 9.65545 9.11114 9.43568C9.44004 9.21592 9.69638 8.90356 9.84776 8.53811C9.99913 8.17266 10.0387 7.77053 9.96157 7.38256C9.8844 6.9946 9.69392 6.63824 9.41421 6.35853C9.13451 6.07883 8.77814 5.88834 8.39018 5.81117C8.00222 5.734 7.60009 5.77361 7.23463 5.92498C6.86918 6.07636 6.55682 6.33271 6.33706 6.6616C6.1173 6.9905 6 7.37718 6 7.77274C6 8.30318 6.21071 8.81188 6.58579 9.18696C6.96086 9.56203 7.46957 9.77274 8 9.77274ZM7.29 16.6827C7.38296 16.7765 7.49356 16.8509 7.61542 16.9016C7.73728 16.9524 7.86799 16.9785 8 16.9785C8.13201 16.9785 8.26272 16.9524 8.38458 16.9016C8.50644 16.8509 8.61704 16.7765 8.71 16.6827L12.8 12.5827C13.75 11.6333 14.397 10.4234 14.6593 9.1062C14.9216 7.78898 14.7873 6.42355 14.2735 5.18263C13.7597 3.94172 12.8894 2.88105 11.7727 2.1348C10.656 1.38855 9.34309 0.990234 8 0.990234C6.65691 0.990234 5.344 1.38855 4.22731 2.1348C3.11062 2.88105 2.24033 3.94172 1.72652 5.18263C1.2127 6.42355 1.07845 7.78898 1.34073 9.1062C1.60301 10.4234 2.25005 11.6333 3.2 12.5827L7.29 16.6827ZM3.23 7.31274C3.29833 6.59976 3.52502 5.91104 3.89352 5.29686C4.26203 4.68268 4.76305 4.15855 5.36 3.76274C6.1442 3.24784 7.06186 2.9735 8 2.9735C8.93814 2.9735 9.8558 3.24784 10.64 3.76274C11.233 4.15719 11.7311 4.67814 12.0987 5.28813C12.4663 5.89811 12.6942 6.58197 12.7659 7.29053C12.8376 7.99909 12.7514 8.71473 12.5135 9.386C12.2756 10.0573 11.8919 10.6675 11.39 11.1727L8 14.5627L4.61 11.1727C4.10752 10.6724 3.72293 10.0663 3.48421 9.39855C3.24548 8.73082 3.15864 8.01826 3.23 7.31274ZM15 18.9727H1C0.734784 18.9727 0.48043 19.0781 0.292893 19.2656C0.105357 19.4532 0 19.7075 0 19.9727C0 20.238 0.105357 20.4923 0.292893 20.6799C0.48043 20.8674 0.734784 20.9727 1 20.9727H15C15.2652 20.9727 15.5196 20.8674 15.7071 20.6799C15.8946 20.4923 16 20.238 16 19.9727C16 19.7075 15.8946 19.4532 15.7071 19.2656C15.5196 19.0781 15.2652 18.9727 15 18.9727Z" fill="#696969"/>
    </svg>
    