<svg width="28" height="21" viewBox="0 0 28 21" fill="none" xmlns="http://www.w3.org/2000/svg">
<path d="M13.9588 10.7718C14.6179 10.2012 15.1466 9.49556 15.509 8.70268C15.8713 7.90979 16.0588 7.04823 16.0588 6.17647C16.0588 4.53837 15.4081 2.96736 14.2498 1.80905C13.0915 0.650734 11.5205 2.21008e-07 9.88235 2.21008e-07C8.24425 2.21008e-07 6.67324 0.650734 5.51493 1.80905C4.35662 2.96736 3.70588 4.53837 3.70588 6.17647C3.70587 7.04823 3.8934 7.90979 4.25574 8.70268C4.61808 9.49556 5.14676 10.2012 5.80588 10.7718C4.07664 11.5548 2.60952 12.8193 1.57992 14.4141C0.550318 16.0089 0.00181817 17.8664 0 19.7647C0 20.0923 0.130147 20.4065 0.361809 20.6382C0.593472 20.8699 0.907674 21 1.23529 21C1.56291 21 1.87712 20.8699 2.10878 20.6382C2.34044 20.4065 2.47059 20.0923 2.47059 19.7647C2.47059 17.799 3.25147 15.9138 4.64144 14.5238C6.03142 13.1338 7.91663 12.3529 9.88235 12.3529C11.8481 12.3529 13.7333 13.1338 15.1233 14.5238C16.5132 15.9138 17.2941 17.799 17.2941 19.7647C17.2941 20.0923 17.4243 20.4065 17.6559 20.6382C17.8876 20.8699 18.2018 21 18.5294 21C18.857 21 19.1712 20.8699 19.4029 20.6382C19.6346 20.4065 19.7647 20.0923 19.7647 19.7647C19.7629 17.8664 19.2144 16.0089 18.1848 14.4141C17.1552 12.8193 15.6881 11.5548 13.9588 10.7718ZM9.88235 9.88235C9.1494 9.88235 8.4329 9.66501 7.82347 9.2578C7.21405 8.85059 6.73905 8.27181 6.45856 7.59465C6.17807 6.91749 6.10469 6.17236 6.24768 5.45349C6.39067 4.73462 6.74362 4.07429 7.2619 3.55602C7.78017 3.03774 8.4405 2.68479 9.15937 2.5418C9.87824 2.3988 10.6234 2.47219 11.3005 2.75268C11.9777 3.03317 12.5565 3.50816 12.9637 4.11759C13.3709 4.72702 13.5882 5.44352 13.5882 6.17647C13.5882 7.15933 13.1978 8.10194 12.5028 8.79693C11.8078 9.49191 10.8652 9.88235 9.88235 9.88235ZM21.9141 10.2776C22.7047 9.38741 23.2211 8.28766 23.4012 7.11077C23.5813 5.93389 23.4174 4.73003 22.9292 3.64412C22.4411 2.5582 21.6495 1.63651 20.6498 0.989993C19.65 0.343474 18.4847 -0.000318212 17.2941 2.21008e-07C16.9665 2.21008e-07 16.6523 0.130147 16.4206 0.361809C16.189 0.593472 16.0588 0.907674 16.0588 1.23529C16.0588 1.56291 16.189 1.87712 16.4206 2.10878C16.6523 2.34044 16.9665 2.47059 17.2941 2.47059C18.277 2.47059 19.2196 2.86103 19.9146 3.55602C20.6096 4.251 21 5.19361 21 6.17647C20.9983 6.8253 20.8262 7.46229 20.501 8.02376C20.1758 8.58522 19.709 9.05147 19.1471 9.37588C18.9639 9.48153 18.8109 9.63241 18.7028 9.81409C18.5947 9.99577 18.535 10.2022 18.5294 10.4135C18.5242 10.6232 18.5726 10.8308 18.6698 11.0167C18.7671 11.2025 18.9101 11.3606 19.0853 11.4759L19.5671 11.7971L19.7276 11.8835C21.2167 12.5898 22.4729 13.7068 23.3483 15.1031C24.2237 16.4994 24.6819 18.1167 24.6688 19.7647C24.6688 20.0923 24.799 20.4065 25.0306 20.6382C25.2623 20.8699 25.5765 21 25.9041 21C26.2317 21 26.5459 20.8699 26.7776 20.6382C27.0093 20.4065 27.1394 20.0923 27.1394 19.7647C27.1495 17.8691 26.6747 16.0023 25.7602 14.3418C24.8456 12.6814 23.5217 11.2823 21.9141 10.2776Z" fill="#696969"/>
</svg>
