<svg width="24" height="25" viewBox="0 0 24 25" fill="none" xmlns="http://www.w3.org/2000/svg">
<path d="M22.0043 8.79099L5.20645 0.392088C4.54352 0.0621422 3.79497 -0.0553209 3.06285 0.0557141C2.33072 0.166749 1.65066 0.500878 1.11538 1.01255C0.580094 1.52421 0.21564 2.18852 0.071707 2.91489C-0.0722263 3.64126 0.0113652 4.39435 0.311085 5.07148L3.19071 11.5146C3.25605 11.6704 3.2897 11.8377 3.2897 12.0066C3.2897 12.1755 3.25605 12.3427 3.19071 12.4985L0.311085 18.9417C0.0671564 19.4897 -0.0359635 20.0899 0.0110961 20.6879C0.0581556 21.2859 0.253903 21.8626 0.580548 22.3657C0.907193 22.8688 1.35438 23.2822 1.88147 23.5685C2.40856 23.8548 2.99883 24.0049 3.59866 24.005C4.16046 23.9994 4.7139 23.8682 5.21845 23.6211L22.0163 15.2222C22.6121 14.9224 23.1129 14.463 23.4629 13.8952C23.8129 13.3274 23.9982 12.6736 23.9982 12.0066C23.9982 11.3396 23.8129 10.6857 23.4629 10.1179C23.1129 9.55013 22.6121 9.09073 22.0163 8.79099H22.0043ZM20.9364 13.0744L4.13859 21.4733C3.91801 21.5793 3.67033 21.6152 3.42874 21.5763C3.18716 21.5375 2.96323 21.4257 2.78698 21.256C2.61073 21.0863 2.49058 20.8667 2.44264 20.6268C2.39471 20.3868 2.42128 20.138 2.5188 19.9135L5.38642 13.4704C5.42355 13.3843 5.4556 13.2962 5.48241 13.2064H13.7493C14.0676 13.2064 14.3727 13.08 14.5978 12.855C14.8228 12.63 14.9492 12.3248 14.9492 12.0066C14.9492 11.6884 14.8228 11.3832 14.5978 11.1582C14.3727 10.9331 14.0676 10.8067 13.7493 10.8067H5.48241C5.4556 10.7169 5.42355 10.6288 5.38642 10.5428L2.5188 4.09961C2.42128 3.87519 2.39471 3.62633 2.44264 3.38638C2.49058 3.14644 2.61073 2.92688 2.78698 2.75716C2.96323 2.58743 3.18716 2.47565 3.42874 2.43681C3.67033 2.39796 3.91801 2.4339 4.13859 2.53981L20.9364 10.9387C21.1329 11.0394 21.2979 11.1924 21.413 11.3808C21.5282 11.5692 21.5892 11.7858 21.5892 12.0066C21.5892 12.2274 21.5282 12.4439 21.413 12.6324C21.2979 12.8208 21.1329 12.9738 20.9364 13.0744Z" fill="#696969"/>
</svg>
