<svg width="24" height="25" viewBox="0 0 24 25" fill="none" xmlns="http://www.w3.org/2000/svg">
<path d="M16.3726 12.8565C17.5489 11.9311 18.4075 10.662 18.8289 9.22585C19.2503 7.7897 19.2137 6.25791 18.724 4.84358C18.2343 3.42925 17.316 2.20271 16.0967 1.33461C14.8775 0.466503 13.418 0 11.9213 0C10.4246 0 8.96514 0.466503 7.74592 1.33461C6.52669 2.20271 5.60836 3.42925 5.11867 4.84358C4.62899 6.25791 4.59232 7.7897 5.01375 9.22585C5.43518 10.662 6.29376 11.9311 7.47004 12.8565C5.45446 13.6641 3.69579 15.0034 2.38153 16.7318C1.06727 18.4602 0.246674 20.5129 0.00723705 22.671C-0.0100947 22.8285 0.00377745 22.988 0.048061 23.1402C0.0923446 23.2924 0.166172 23.4344 0.26533 23.558C0.465586 23.8078 0.756857 23.9678 1.07507 24.0028C1.39328 24.0378 1.71236 23.9449 1.96211 23.7447C2.21187 23.5444 2.37185 23.2531 2.40685 22.9349C2.67031 20.5895 3.78866 18.4234 5.54821 16.8505C7.30777 15.2775 9.58518 14.4079 11.9453 14.4079C14.3055 14.4079 16.5829 15.2775 18.3424 16.8505C20.102 18.4234 21.2203 20.5895 21.4838 22.9349C21.5164 23.2297 21.6571 23.502 21.8787 23.6992C22.1002 23.8964 22.387 24.0046 22.6836 24.0028H22.8156C23.1301 23.9666 23.4176 23.8075 23.6153 23.5603C23.8131 23.3131 23.9052 22.9978 23.8714 22.683C23.6308 20.5188 22.8058 18.4608 21.4848 16.7298C20.1638 14.9987 18.3966 13.6598 16.3726 12.8565ZM11.9213 12.0047C10.9721 12.0047 10.0443 11.7232 9.25502 11.1959C8.46579 10.6685 7.85066 9.91898 7.48742 9.04203C7.12418 8.16509 7.02914 7.20012 7.21431 6.26916C7.39949 5.3382 7.85658 4.48306 8.52776 3.81187C9.19895 3.14069 10.0541 2.68361 10.985 2.49843C11.916 2.31325 12.881 2.40829 13.7579 2.77153C14.6349 3.13477 15.3844 3.7499 15.9117 4.53913C16.4391 5.32836 16.7206 6.25625 16.7206 7.20544C16.7206 8.47828 16.2149 9.69898 15.3149 10.599C14.4149 11.499 13.1942 12.0047 11.9213 12.0047Z" fill="#696969"/>
</svg>
