<svg width="27" height="26" viewBox="0 0 27 26" fill="none" xmlns="http://www.w3.org/2000/svg">
<path d="M25.4268 5.2C25.082 5.2 24.7514 5.33696 24.5076 5.58076C24.2638 5.82456 24.1268 6.15522 24.1268 6.5V19.5C24.1268 20.5343 23.7159 21.5263 22.9845 22.2577C22.2531 22.9891 21.2612 23.4 20.2268 23.4H7.22681C6.88202 23.4 6.55137 23.537 6.30757 23.7808C6.06377 24.0246 5.92681 24.3552 5.92681 24.7C5.92681 25.0448 6.06377 25.3754 6.30757 25.6192C6.55137 25.863 6.88202 26 7.22681 26H20.2268C21.9507 26 23.604 25.3152 24.823 24.0962C26.042 22.8772 26.7268 21.2239 26.7268 19.5V6.5C26.7268 6.15522 26.5898 5.82456 26.346 5.58076C26.1022 5.33696 25.7716 5.2 25.4268 5.2ZM21.5268 16.9V3.9C21.5268 2.86566 21.1159 1.87368 20.3845 1.14228C19.6531 0.410892 18.6611 0 17.6268 0H4.62681C3.59246 0 2.60048 0.410892 1.86909 1.14228C1.1377 1.87368 0.726807 2.86566 0.726807 3.9V16.9C0.726807 17.9343 1.1377 18.9263 1.86909 19.6577C2.60048 20.3891 3.59246 20.8 4.62681 20.8H17.6268C18.6611 20.8 19.6531 20.3891 20.3845 19.6577C21.1159 18.9263 21.5268 17.9343 21.5268 16.9ZM11.1268 2.6H13.7268V8.918L13.2588 8.528C13.0252 8.33343 12.7308 8.22689 12.4268 8.22689C12.1228 8.22689 11.8284 8.33343 11.5948 8.528L11.1268 8.918V2.6ZM3.32681 16.9V3.9C3.32681 3.55522 3.46377 3.22456 3.70757 2.98076C3.95137 2.73696 4.28203 2.6 4.62681 2.6H8.52681V11.7C8.52679 11.9485 8.59801 12.1918 8.73202 12.4011C8.86603 12.6104 9.05722 12.7769 9.28294 12.8809C9.50866 12.9848 9.75945 13.0219 10.0056 12.9877C10.2518 12.9536 10.483 12.8495 10.6718 12.688L12.4268 11.219L14.1818 12.688C14.4173 12.8894 14.717 13 15.0268 13C15.2149 12.9987 15.4007 12.9589 15.5728 12.883C15.7985 12.7786 15.9894 12.6116 16.1231 12.4019C16.2567 12.1923 16.3274 11.9486 16.3268 11.7V2.6H17.6268C17.9716 2.6 18.3022 2.73696 18.546 2.98076C18.7898 3.22456 18.9268 3.55522 18.9268 3.9V16.9C18.9268 17.2448 18.7898 17.5754 18.546 17.8192C18.3022 18.063 17.9716 18.2 17.6268 18.2H4.62681C4.28203 18.2 3.95137 18.063 3.70757 17.8192C3.46377 17.5754 3.32681 17.2448 3.32681 16.9Z" fill="#FED830"/>
</svg>
