<svg width="26" height="27" viewBox="0 0 26 27" fill="none" xmlns="http://www.w3.org/2000/svg">
<path d="M15.4 2.53281C15.4 1.69161 14.7184 1.01001 13.8772 1.01001H12.124C11.2816 1.01001 10.6 1.69161 10.6 2.53281C10.6 3.22641 10.1248 3.82161 9.478 4.07601C9.376 4.11681 9.274 4.16001 9.1744 4.20321C8.5372 4.47921 7.78 4.39521 7.288 3.90441C7.00245 3.61906 6.61528 3.45877 6.2116 3.45877C5.80792 3.45877 5.42075 3.61906 5.1352 3.90441L3.8944 5.14521C3.60905 5.43076 3.44876 5.81793 3.44876 6.22161C3.44876 6.62529 3.60905 7.01246 3.8944 7.29801C4.3864 7.79001 4.4704 8.54601 4.192 9.18441C4.14826 9.28488 4.10625 9.38609 4.066 9.48801C3.8116 10.1348 3.2164 10.61 2.5228 10.61C1.6816 10.61 1 11.2916 1 12.1328V13.8872C1 14.7284 1.6816 15.41 2.5228 15.41C3.2164 15.41 3.8116 15.8852 4.066 16.532C4.1068 16.634 4.15 16.736 4.192 16.8356C4.4692 17.4728 4.3852 18.23 3.8944 18.722C3.60905 19.0076 3.44876 19.3947 3.44876 19.7984C3.44876 20.2021 3.60905 20.5893 3.8944 20.8748L5.1352 22.1156C5.42075 22.401 5.80792 22.5612 6.2116 22.5612C6.61528 22.5612 7.00245 22.401 7.288 22.1156C7.78 21.6236 8.536 21.5396 9.1744 21.8168C9.274 21.8612 9.376 21.9032 9.478 21.944C10.1248 22.1984 10.6 22.7936 10.6 23.4872C10.6 24.3284 11.2816 25.01 12.1228 25.01H13.8772C14.7184 25.01 15.4 24.3284 15.4 23.4872C15.4 22.7936 15.8752 22.1984 16.522 21.9428C16.624 21.9032 16.726 21.8612 16.8256 21.818C17.4628 21.5396 18.22 21.6248 18.7108 22.1156C18.8522 22.2571 19.0201 22.3693 19.2049 22.4459C19.3897 22.5224 19.5878 22.5618 19.7878 22.5618C19.9878 22.5618 20.1859 22.5224 20.3707 22.4459C20.5555 22.3693 20.7234 22.2571 20.8648 22.1156L22.1056 20.8748C22.3909 20.5893 22.5512 20.2021 22.5512 19.7984C22.5512 19.3947 22.3909 19.0076 22.1056 18.722C21.6136 18.23 21.5296 17.474 21.8068 16.8356C21.8512 16.736 21.8932 16.634 21.934 16.532C22.1884 15.8852 22.7836 15.41 23.4772 15.41C24.3184 15.41 25 14.7284 25 13.8872V12.134C25 11.2928 24.3184 10.6112 23.4772 10.6112C22.7836 10.6112 22.1884 10.136 21.9328 9.48921C21.8926 9.38728 21.8506 9.28606 21.8068 9.18561C21.5308 8.54841 21.6148 7.79121 22.1056 7.29921C22.3909 7.01366 22.5512 6.62649 22.5512 6.22281C22.5512 5.81913 22.3909 5.43196 22.1056 5.14641L20.8648 3.90561C20.5793 3.62026 20.1921 3.45997 19.7884 3.45997C19.3847 3.45997 18.9976 3.62026 18.712 3.90561C18.22 4.39761 17.464 4.48161 16.8256 4.20441C16.7251 4.16026 16.6239 4.11785 16.522 4.07721C15.8752 3.82161 15.4 3.22641 15.4 2.53401V2.53281Z" stroke="#4F4F4F" stroke-width="2"/>
<path d="M17.8041 13.009C17.8041 14.2821 17.2984 15.503 16.3982 16.4032C15.498 17.3033 14.2771 17.809 13.0041 17.809C11.7311 17.809 10.5102 17.3033 9.60999 16.4032C8.70981 15.503 8.2041 14.2821 8.2041 13.009C8.2041 11.736 8.70981 10.5151 9.60999 9.61493C10.5102 8.71476 11.7311 8.20905 13.0041 8.20905C14.2771 8.20905 15.498 8.71476 16.3982 9.61493C17.2984 10.5151 17.8041 11.736 17.8041 13.009Z" stroke="#696969" stroke-width="2"/>
</svg>
