<svg width="215" height="142" viewBox="0 0 215 142" fill="none" xmlns="http://www.w3.org/2000/svg">
<path fill-rule="evenodd" clip-rule="evenodd" d="M250.782 85.5632C246.784 95.0063 239.85 96.6491 232.508 104.184C225.166 111.718 203.115 107.407 195.529 111.792C174.961 123.681 174.314 137.129 139.592 138.871C127.107 139.498 116.155 138.077 104.992 136.631C93.2897 135.114 79.4178 139.749 63.5844 130.036C24.9597 106.343 0.931482 67.3865 0.0310963 46.9071C-0.676964 30.8021 10.8637 19.7025 18.6354 12.3251C35.1552 -3.35652 56.4226 0.954412 76.3456 -4.59211C104.457 -12.4182 122.478 -28.9595 142.616 -27.9563C171.045 -28.7003 188.78 -5.68936 211.157 -4.59211C227.068 -3.81193 280.37 15.6671 250.782 85.5632Z" fill="#FFC085"/>
<path fill-rule="evenodd" clip-rule="evenodd" d="M79.0447 126.171C79.601 127.476 79.6455 129.453 78.279 129.832C76.4758 128.945 75.1908 127.082 75.0012 125.081C67.6064 125.404 60.2115 125.726 52.8166 126.049C50.0681 126.169 46.6758 126.755 45.8576 129.381C45.5381 127.312 42.8048 126.836 40.7107 126.864C34.453 126.948 28.1953 127.032 21.9376 127.116C21.8421 124.26 21.7467 121.403 21.6513 118.546C21.6328 117.993 21.6199 117.413 21.8681 116.918C22.5347 115.589 24.4489 115.73 25.896 116.071C25.4308 111.42 24.9657 106.77 24.5005 102.119C22.3428 102.612 23.037 97.0801 20.8652 97.5073C19.5505 97.7659 18.311 96.5586 18.0304 95.2484C17.7498 93.9382 18.1591 92.5897 18.5641 91.3124C19.7846 90.9396 21.5338 91.3086 22.7708 90.9396C24.0078 90.5707 24.7616 89.8577 24.7184 88.5677C23.8211 61.7772 21.8838 35.0217 18.9124 8.38143C17.0153 9.19747 14.7564 7.72472 13.9932 5.80584C13.23 3.88696 13.5569 1.7257 13.9562 -0.300405C14.0963 -1.01146 14.2684 -1.76695 14.7906 -2.26953C15.4562 -2.9102 16.4793 -2.95034 17.4032 -2.95244C46.3942 -3.0184 75.3852 -3.08437 104.376 -3.15033C105.008 -3.15177 105.704 -3.12968 106.171 -2.70407C106.598 -2.31497 106.711 -1.69755 106.799 -1.12673C107.144 1.09296 107.482 3.40718 106.805 5.54881C106.127 7.69043 104.102 9.58533 101.871 9.32333C103.091 35.7635 104.311 62.2036 105.532 88.6438C107.521 88.209 109.847 88.9452 110.839 90.7231C111.831 92.5009 110.926 95.1875 108.939 95.6325C110.207 96.6864 109.595 98.9294 108.2 99.8079C106.805 100.686 105.031 100.597 103.39 100.447C101.748 100.297 99.9963 100.137 98.5406 100.91C98.8842 104.096 98.8414 107.324 98.4135 110.5C99.8253 109.658 101.736 109.746 103.064 110.714C103.987 111.386 104.825 109.75 104.816 108.609C104.796 105.951 104.775 103.294 104.755 100.636C106.195 103.937 106.595 107.683 105.886 111.214C107.661 111.353 109.436 111.491 111.211 111.63C111.744 111.671 112.322 111.731 112.714 112.097C113.103 112.46 113.204 113.03 113.272 113.558C113.709 116.97 113.644 120.445 113.079 123.838C101.58 123.041 90.6683 123.295 79.2377 124.782C78.9508 124.782 78.4883 124.867 79.0447 126.171Z" fill="white"/>
<ellipse rx="0.191968" ry="0.76787" transform="matrix(0.933581 0.358366 -0.35837 0.93358 65.5242 66.8718)" fill="#FFB61D"/>
<path fill-rule="evenodd" clip-rule="evenodd" d="M155.345 70.806C155.345 70.806 153.732 34.1618 154.668 15.857C154.77 13.8585 154.882 11.8104 154.29 9.89878C153.698 7.9872 152.239 6.20927 150.273 5.83895C149.885 2.40989 149.937 -1.06864 150.427 -4.48462C178.769 -4.33724 207.112 -4.18986 235.454 -4.04248C235.557 -1.88592 235.659 0.270641 235.761 2.4272C235.858 4.46906 235.05 7.36 233.047 6.95337C232.233 6.78817 231.842 7.91112 231.799 8.7405C231.448 15.5532 231.096 22.3659 230.745 29.1787C229.7 49.4258 228.654 69.7031 229.356 89.9651C231.167 90.0555 232.978 90.1459 234.79 90.2363C235.27 91.3738 235.761 92.5835 235.582 93.8054C235.403 95.0272 234.269 96.1975 233.061 95.9391C234.113 98.3924 231.306 101.468 228.767 100.644C228.971 103.577 229.175 106.511 229.378 109.445C229.417 109.998 229.474 110.597 229.85 111.006C231.021 112.279 233.531 110.313 234.769 111.523C234.936 114.408 235.104 117.294 235.271 120.179C235.317 120.966 235.322 121.862 234.75 122.404C234.366 122.768 233.813 122.876 233.292 122.964C223.125 124.683 212.703 124.886 202.477 123.565C203.026 126.194 203.45 129.301 201.591 131.239C200.22 132.669 200.365 134.721 200.983 133.752C200.863 135.009 199.694 136.076 198.432 136.082C197.349 136.196 197.564 134.386 198.303 133.586C199.927 131.829 202.026 130.257 202.542 127.921C203.059 125.586 197.405 126.777 197.565 128.206C196.542 127.052 196.675 125.065 197.843 124.058C194.798 124.753 191.638 124.944 188.531 124.62C192.455 124.025 196.379 123.43 200.304 122.835C199.187 119.743 186.451 127.929 186.169 134.083C185.559 130.542 186.009 126.824 187.447 123.531C187.101 122.982 186.652 122.497 186.132 122.109C189.71 120.708 182.524 128.389 181.357 125.471C177.425 125.918 173.492 126.366 169.56 126.814C169.702 127.534 170.073 128.207 170.607 128.712C168.275 129.049 165.933 126.827 166.148 124.481C165.001 126.55 166.771 129.017 168.593 130.526C170.415 132.035 172.623 133.73 172.546 136.095C170.735 136.729 168.51 135.438 168.162 133.551C168.82 134.777 168.071 132.094 167.276 132.345C165.801 132.811 164.723 136.935 165.433 135.564C165.355 137.408 163.57 139.001 161.73 138.871C160.425 136.309 162.58 132.728 165.455 132.681C166.64 132.662 167.342 131.177 167.03 130.034C166.718 128.891 165.762 128.058 164.854 127.297C164.242 128.095 163.453 128.756 162.559 129.218C162.531 127.87 162.795 126.517 163.331 125.279C162.122 126.652 161.441 128.477 161.454 130.305C160.838 128.798 160.893 127.03 161.602 125.564C158.027 126.173 154.397 126.459 150.771 126.416C150.173 122.275 149.576 118.133 148.979 113.991C151.221 113.384 153.544 113.077 155.867 113.079C154.703 106.113 155.867 105.919 154.421 102.782C154.225 102.356 153.527 103.171 153.052 102.21C152.577 101.25 152.365 98.7503 152.365 98.7503C152.365 98.7503 150.426 98.467 150.273 97.9451C149.673 95.897 148.999 94.0672 150.457 92.9653C152.013 91.7906 154.448 92.7969 156.078 91.7278C155.735 90.3749 156.202 85.6478 155.087 82.709C154.209 80.3963 152.381 81.4307 150.434 79.7577C149.171 78.6723 147.793 77.5669 147.242 75.9954C146.69 74.424 147.442 72.2718 149.092 72.0423C150.705 71.8179 151.924 73.4136 152.749 74.8178C152.378 73.5786 153.369 72.1252 154.659 72.0186C156.254 77.049 155.345 70.806 155.345 70.806Z" fill="white"/>
<ellipse cx="183.143" cy="61.1278" rx="0.383937" ry="0.767875" fill="#FFB61D"/>
<path fill-rule="evenodd" clip-rule="evenodd" d="M44.8325 18.9997C44.9994 19.1305 45.0287 19.3718 44.898 19.5387L39.8571 25.9739C39.7263 26.1408 39.485 26.1702 39.3181 26.0394C39.1512 25.9087 39.1218 25.6673 39.2526 25.5004L44.2935 19.0652C44.4242 18.8983 44.6656 18.869 44.8325 18.9997Z" fill="#E7EAEE"/>
<path fill-rule="evenodd" clip-rule="evenodd" d="M51.3178 20.8362C51.4792 20.9737 51.4985 21.216 51.361 21.3774L44.6146 29.2933C44.4771 29.4547 44.2348 29.474 44.0734 29.3365C43.912 29.199 43.8927 28.9566 44.0302 28.7953L50.7766 20.8794C50.9141 20.718 51.1565 20.6986 51.3178 20.8362Z" fill="#E7EAEE"/>
<path fill-rule="evenodd" clip-rule="evenodd" d="M62.0433 21.3561C62.211 21.4859 62.2417 21.7271 62.1119 21.8948L56.5625 29.0621C56.4327 29.2298 56.1916 29.2605 56.0239 29.1306C55.8562 29.0008 55.8256 28.7597 55.9554 28.592L61.5047 21.4247C61.6345 21.257 61.8757 21.2263 62.0433 21.3561Z" fill="#E7EAEE"/>
<path fill-rule="evenodd" clip-rule="evenodd" d="M77.0455 20.7838C77.2174 20.9079 77.2562 21.1479 77.1321 21.3198L72.6132 27.5797C72.4891 27.7516 72.2491 27.7904 72.0772 27.6663C71.9053 27.5422 71.8665 27.3022 71.9906 27.1303L76.5095 20.8704C76.6336 20.6984 76.8736 20.6597 77.0455 20.7838Z" fill="#E7EAEE"/>
<path fill-rule="evenodd" clip-rule="evenodd" d="M179.658 19.6783C179.809 19.8277 179.81 20.0707 179.661 20.2213L174.368 25.5576C174.219 25.7082 173.976 25.7092 173.825 25.5599C173.675 25.4106 173.674 25.1675 173.823 25.0169L179.115 19.6806C179.265 19.53 179.508 19.529 179.658 19.6783Z" fill="#E7EAEE"/>
<path fill-rule="evenodd" clip-rule="evenodd" d="M187.024 21.1435C187.171 21.2962 187.166 21.5393 187.014 21.6863L180.06 28.3783C179.908 28.5254 179.665 28.5207 179.517 28.3679C179.37 28.2151 179.375 27.9721 179.528 27.8251L186.481 21.1331C186.634 20.986 186.877 20.9907 187.024 21.1435Z" fill="#E7EAEE"/>
<path fill-rule="evenodd" clip-rule="evenodd" d="M203.744 24.5186C203.891 24.6719 203.886 24.9149 203.732 25.0615L199.148 29.4458C198.995 29.5924 198.752 29.587 198.606 29.4338C198.459 29.2805 198.464 29.0375 198.618 28.8909L203.202 24.5066C203.355 24.36 203.598 24.3654 203.744 24.5186Z" fill="#E7EAEE"/>
<path fill-rule="evenodd" clip-rule="evenodd" d="M212.423 24.8216C212.568 24.9769 212.559 25.2199 212.403 25.3642L207.65 29.7826C207.495 29.927 207.252 29.9181 207.108 29.7628C206.963 29.6075 206.972 29.3646 207.127 29.2202L211.881 24.8018C212.036 24.6575 212.279 24.6663 212.423 24.8216Z" fill="#E7EAEE"/>
<path fill-rule="evenodd" clip-rule="evenodd" d="M128.742 52.9362C128.589 51.5901 128.523 50.2341 128.545 48.8795C127.693 48.5459 126.746 48.6006 125.833 48.6603C122.347 48.8883 118.861 49.1163 115.375 49.3443C114.799 49.382 114.211 49.4185 113.653 49.2691C113.083 49.1166 112.432 48.7878 111.96 49.1416C111.551 49.4482 111.585 50.0608 111.659 50.5664C111.8 51.5176 111.94 52.4688 112.081 53.42C112.104 53.5817 112.136 53.7585 112.262 53.8635C112.377 53.9602 112.54 53.9689 112.691 53.9729C117.582 54.1027 122.477 54.0578 127.364 53.8383C127.984 53.8104 128.812 53.5521 128.742 52.9362V52.9362Z" fill="white"/>
<path fill-rule="evenodd" clip-rule="evenodd" d="M145.483 30.1653C145.591 29.7415 145.195 29.3264 144.767 29.2352C144.34 29.1439 143.901 29.2771 143.476 29.3837C141.786 29.8084 137.09 29.8066 136.453 29.811C134.587 29.8238 132.721 29.8366 130.855 29.8495C130.413 29.8525 130.039 30.2164 129.882 30.6296C129.725 31.0429 129.739 31.4986 129.756 31.9404C129.773 32.3967 129.79 32.8531 129.807 33.3094C129.817 33.5815 129.852 33.8994 130.086 34.0394C130.187 34.1 130.308 34.1143 130.425 34.1267C132.234 34.3174 134.057 34.3683 135.874 34.2787C139.087 34.1201 142.302 33.523 145.503 33.8533C145.182 32.6525 145.176 31.3695 145.483 30.1653Z" fill="white"/>
<path fill-rule="evenodd" clip-rule="evenodd" d="M203.341 125.216C203.379 124.952 203.595 124.745 203.833 124.626C204.484 124.302 205.305 124.527 205.854 125.004C206.403 125.48 206.729 126.16 206.989 126.839C207.081 127.081 207.158 127.381 206.987 127.576C206.923 127.649 206.833 127.693 206.744 127.731C205.992 128.049 205.093 128.013 204.386 127.606C203.679 127.199 203.191 126.421 203.167 125.606C203.473 125.646 203.623 125.986 203.782 126.25C204.329 127.159 205.641 127.502 206.562 126.977C205.69 126.094 204.555 125.473 203.341 125.216Z" fill="#00160A"/>
<path fill-rule="evenodd" clip-rule="evenodd" d="M198.796 117.439C199.061 117.11 199.326 116.782 199.591 116.453C199.416 117.929 198.202 119.222 196.74 119.49C196.289 119.143 195.524 119.374 195.34 119.913C195.068 119.968 194.795 119.755 194.706 119.492C194.616 119.23 194.673 118.939 194.774 118.68C194.927 118.291 195.173 117.946 195.417 117.606C196.238 116.46 197.189 115.227 198.57 114.944C198.928 114.871 199.33 114.878 199.618 115.102C199.906 115.326 199.986 115.823 199.698 116.047C199.365 115.6 198.694 115.527 198.174 115.728C197.654 115.929 197.248 116.341 196.86 116.742C196.485 117.13 196.109 117.518 195.733 117.906C195.526 118.12 195.338 118.514 195.596 118.66C195.891 118.027 196.783 117.976 197.298 117.505C197.745 117.097 198.045 116.317 198.641 116.419C198.33 117.135 197.765 117.739 197.07 118.096C196.772 118.249 196.425 118.382 196.277 118.683C196.737 118.894 197.295 118.775 197.723 118.505C198.152 118.235 198.478 117.833 198.796 117.439Z" fill="#00160A"/>
<path fill-rule="evenodd" clip-rule="evenodd" d="M186.32 115.93C187.048 116.058 187.838 115.65 188.155 114.982C188.471 114.314 188.286 113.444 187.726 112.962C187.887 112.764 188.2 112.739 188.427 112.858C188.653 112.978 188.801 113.209 188.887 113.451C189.159 114.224 188.855 115.106 188.324 115.73C187.792 116.354 187.065 116.772 186.352 117.178C186.022 117.365 185.678 117.558 185.299 117.581C184.92 117.605 184.498 117.404 184.398 117.038C184.366 116.918 184.373 116.781 184.448 116.682C184.817 116.198 185.686 117.346 186.083 116.885C185.988 116.516 185.892 116.147 185.797 115.779C185.969 115.838 186.141 115.898 186.32 115.93Z" fill="#00160A"/>
<path fill-rule="evenodd" clip-rule="evenodd" d="M179.64 114.785C178.828 114.686 178.249 113.808 178.338 112.995C178.427 112.181 179.065 111.496 179.823 111.189C180.056 111.095 180.346 111.04 180.537 111.202C180.729 111.363 180.597 111.781 180.358 111.707C179.772 111.526 179.212 112.115 179.05 112.707C178.947 113.083 178.94 113.509 179.149 113.839C179.357 114.169 179.827 114.347 180.16 114.144C180.4 113.998 180.645 114.337 180.702 114.612C180.759 114.888 180.886 115.252 181.165 115.219C181.625 114.99 181.797 114.439 182.058 113.997C182.32 113.556 182.913 113.172 183.316 113.49C183.368 113.531 183.414 113.587 183.417 113.653C183.42 113.724 183.372 113.787 183.325 113.842C182.877 114.372 182.381 114.863 181.845 115.306C181.487 115.603 180.991 115.89 180.586 115.661C180.202 115.444 180.077 114.839 179.64 114.785Z" fill="#00160A"/>
<path fill-rule="evenodd" clip-rule="evenodd" d="M183.564 123.119C183.166 122.766 182.762 122.404 182.502 121.94C182.243 121.476 182.151 120.883 182.402 120.415C182.471 120.286 182.577 120.163 182.721 120.139C182.864 120.116 183.029 120.25 182.988 120.389C182.804 120.999 183.071 121.715 183.608 122.057C183.816 122.189 184.094 122.436 183.92 122.61C183.712 122.817 184.091 123.097 184.38 123.145C184.936 123.235 185.492 123.326 186.047 123.417C185.939 123.875 185.374 124.098 184.913 123.999C184.453 123.901 184.079 123.577 183.727 123.264C183.673 123.216 183.618 123.167 183.564 123.119Z" fill="#00160A"/>
<path fill-rule="evenodd" clip-rule="evenodd" d="M163.083 137.059C163.138 136.718 163.193 136.378 163.249 136.037C163.28 135.841 163.313 135.642 163.407 135.467C163.52 135.259 163.709 135.105 163.893 134.957C164.4 134.55 164.906 134.143 165.412 133.736C165.81 134.04 165.891 134.683 165.579 135.075C165.553 134.714 165.319 134.375 164.99 134.224C164.622 135.316 163.956 136.307 163.083 137.059Z" fill="#00160A"/>
<path fill-rule="evenodd" clip-rule="evenodd" d="M202.111 132.053C202.298 133.055 202.682 134.021 203.234 134.878C203.67 135.553 203.271 136.436 202.873 137.133C202.694 137.203 202.524 136.97 202.554 136.779C202.583 136.589 202.723 136.437 202.813 136.267C203.166 135.598 202.727 134.805 202.338 134.156C201.949 133.507 201.614 132.623 202.111 132.053L202.111 132.053Z" fill="#00160A"/>
<path fill-rule="evenodd" clip-rule="evenodd" d="M129.688 53.809C129.681 54.0414 129.669 54.2858 129.548 54.4841C129.326 54.8457 128.84 54.9165 128.417 54.9482C122.712 55.3758 116.98 55.4374 111.267 55.1324C111.196 55.1287 111.123 55.1243 111.059 55.0931C110.902 55.0164 110.859 54.8159 110.836 54.6424C110.677 53.4818 110.518 52.3212 110.359 51.1606C110.245 50.3304 110.149 49.4168 110.609 48.7166C111.235 47.7647 112.561 47.6514 113.7 47.6355C118.876 47.563 124.052 47.4905 129.229 47.418C129.447 47.4149 129.705 47.4323 129.821 47.6172C129.887 47.7241 129.885 47.8585 129.881 47.9845C129.817 49.926 129.753 51.8675 129.688 53.809ZM128.743 52.9353C128.589 51.5893 128.523 50.2333 128.545 48.8787C127.693 48.5451 126.746 48.5998 125.833 48.6595C122.347 48.8875 118.861 49.1155 115.376 49.3435C114.799 49.3811 114.211 49.4177 113.653 49.2683C113.084 49.1157 112.432 48.787 111.96 49.1408C111.551 49.4474 111.585 50.0599 111.66 50.5655C111.8 51.5168 111.94 52.468 112.081 53.4192C112.105 53.5809 112.137 53.7576 112.262 53.8626C112.377 53.9594 112.541 53.9681 112.691 53.9721C117.582 54.1019 122.477 54.057 127.365 53.8374C127.984 53.8096 128.813 53.5512 128.743 52.9353V52.9353Z" fill="#FFB61D"/>
<path fill-rule="evenodd" clip-rule="evenodd" d="M197.916 127.051C198.177 126.133 198.638 125.272 199.259 124.546C199.248 125.531 198.73 126.497 197.916 127.051L197.916 127.051Z" fill="#00160A"/>
<path fill-rule="evenodd" clip-rule="evenodd" d="M200.255 132.611C200.085 133.135 199.822 133.63 199.484 134.066C199.339 134.251 199.155 134.44 198.92 134.451C199.225 133.741 199.575 132.979 200.255 132.611L200.255 132.611Z" fill="#00160A"/>
<path fill-rule="evenodd" clip-rule="evenodd" d="M204.492 135.419C204.869 135.683 205.247 135.947 205.624 136.211C205.708 136.27 205.801 136.376 205.742 136.459C205.169 136.405 204.65 135.973 204.492 135.419Z" fill="#00160A"/>
<path fill-rule="evenodd" clip-rule="evenodd" d="M205.17 135.287C204.78 135.407 204.449 134.768 204.772 134.518C204.991 134.73 205.152 135.002 205.234 135.295L205.17 135.287Z" fill="#00160A"/>
<path fill-rule="evenodd" clip-rule="evenodd" d="M200.21 124.28C200.494 124.64 200.503 125.158 200.35 125.591C200.196 126.023 199.904 126.39 199.616 126.747C199.347 127.081 199.007 127.448 198.58 127.415C198.507 127.125 198.776 126.875 198.996 126.671C199.666 126.051 200.104 125.186 200.21 124.28Z" fill="#00160A"/>
<path fill-rule="evenodd" clip-rule="evenodd" d="M203.406 133.722C203.883 133.287 204.598 133.133 205.211 133.333C205.824 133.533 206.311 134.079 206.44 134.711C206.534 135.174 206.581 135.823 207.052 135.869C207.137 136.172 206.597 136.286 206.402 136.04C206.207 135.793 206.242 135.444 206.193 135.134C206.062 134.304 205.164 133.679 204.34 133.845C204.004 133.912 203.545 134.035 203.406 133.722L203.406 133.722Z" fill="#00160A"/>
<path fill-rule="evenodd" clip-rule="evenodd" d="M167.827 139.044C167.599 138.312 168.122 137.471 167.801 136.775C167.695 136.546 167.51 136.366 167.347 136.174C166.812 135.537 166.508 134.708 166.506 133.876C166.505 133.622 166.62 133.288 166.872 133.313C167.204 133.345 167.119 133.84 167.097 134.173C167.055 134.805 167.606 135.292 167.952 135.822C168.467 136.611 168.546 137.667 168.153 138.523C168.008 138.838 168.295 139.166 168.494 139.45C169.013 140.189 168.97 141.273 168.395 141.969C168.179 141.824 168.169 141.505 168.248 141.257C168.327 141.009 168.472 140.777 168.487 140.517C168.518 139.972 167.99 139.565 167.827 139.044Z" fill="#00160A"/>
<path fill-rule="evenodd" clip-rule="evenodd" d="M179.107 61.9972C179.405 61.6678 179.915 62.0266 180.332 62.1827C181.138 62.4851 182.028 61.903 182.881 62.0259C182.406 63.0053 181.065 63.12 179.985 62.9801C179.715 62.9451 179.43 62.8962 179.222 62.7205C179.013 62.5448 178.924 62.1993 179.107 61.9972L179.107 61.9972Z" fill="#00160A"/>
<path fill-rule="evenodd" clip-rule="evenodd" d="M181.2 58.8681C181.042 58.6667 181.066 58.3818 181.098 58.1275C181.12 57.9467 181.143 57.7659 181.166 57.5851C181.22 57.1596 181.395 56.6181 181.824 56.6148C182.272 56.6113 182.443 57.1959 182.452 57.6437C182.46 58.032 182.439 58.45 182.203 58.7586C181.968 59.0673 181.44 59.1735 181.2 58.8681V58.8681Z" fill="#00160A"/>
<path fill-rule="evenodd" clip-rule="evenodd" d="M178.437 56.8477C178.648 56.8961 178.696 57.1696 178.7 57.3856C178.715 58.1019 178.567 59.0326 177.863 59.1648C177.518 58.5145 177.583 57.6685 178.022 57.0779C178.122 56.9432 178.274 56.81 178.437 56.8477L178.437 56.8477Z" fill="#00160A"/>
<path fill-rule="evenodd" clip-rule="evenodd" d="M179.903 57.8019C179.956 57.8942 179.921 58.0094 179.891 58.1113C179.592 59.113 179.923 60.2746 180.706 60.9675C180.121 61.3373 179.303 60.8268 179.1 60.1647C178.898 59.5026 179.114 58.7932 179.329 58.1351C179.417 57.8666 179.763 57.5567 179.903 57.8019L179.903 57.8019Z" fill="#00160A"/>
<path fill-rule="evenodd" clip-rule="evenodd" d="M146.582 34.875C145.555 34.9404 144.527 35.0058 143.5 35.0713C139.054 35.3543 134.608 35.6373 130.162 35.9204C129.535 35.9603 128.691 35.8329 128.618 35.2083C128.393 33.2734 128.434 31.3078 128.74 29.384C128.868 28.5821 129.906 28.3679 130.718 28.3411C135.629 28.1792 140.54 28.0174 145.451 27.8555C146.056 27.8356 146.592 28.2999 146.845 28.849C147.099 29.3981 147.129 30.0203 147.154 30.6247C147.203 31.7808 147.252 32.937 147.301 34.0932C147.31 34.2942 147.311 34.5162 147.181 34.6697C147.041 34.8355 146.799 34.8612 146.582 34.875ZM145.479 30.1398C145.587 29.7161 145.191 29.3009 144.763 29.2097C144.336 29.1185 143.897 29.2516 143.472 29.3582C141.782 29.783 137.086 29.7811 136.449 29.7855C134.583 29.7983 132.717 29.8111 130.852 29.824C130.409 29.827 130.035 30.1909 129.878 30.6041C129.721 31.0174 129.735 31.4731 129.752 31.9149C129.769 32.3713 129.786 32.8276 129.803 33.2839C129.813 33.5561 129.849 33.874 130.082 34.014C130.183 34.0745 130.304 34.0888 130.422 34.1012C132.23 34.292 134.054 34.3428 135.87 34.2532C139.084 34.0946 142.298 33.4975 145.499 33.8279C145.179 32.627 145.172 31.344 145.479 30.1398Z" fill="#FFB61D"/>
<path fill-rule="evenodd" clip-rule="evenodd" d="M72.1903 113.499C71.9809 113.567 71.6666 113.578 71.6289 113.361C71.9469 112.982 72.604 112.965 72.9416 113.326C72.7618 113.522 72.4618 113.598 72.2108 113.51L72.1903 113.499Z" fill="#00160A"/>
<path fill-rule="evenodd" clip-rule="evenodd" d="M183.144 55.5585C183.429 55.8636 183.691 56.2057 183.811 56.6058C183.891 56.8713 183.512 57.0783 183.256 56.9726C183 56.867 182.856 56.6016 182.703 56.3702C182.551 56.1389 182.326 55.9042 182.049 55.9239C181.769 55.9439 181.587 55.5613 181.725 55.3165C181.863 55.0718 182.197 54.9948 182.467 55.0743C182.736 55.1537 182.952 55.3533 183.144 55.5585L183.144 55.5585Z" fill="#00160A"/>
<path fill-rule="evenodd" clip-rule="evenodd" d="M83.8198 106.245C83.4837 104.631 83.1105 103.009 82.4072 101.518C81.7039 100.027 80.6386 98.6599 79.1941 97.8655C78.4332 97.4471 77.5925 97.199 76.7913 96.8641C75.8105 96.454 74.8853 95.9111 74.0488 95.2549C74.7955 94.834 75.7208 95.2294 76.4818 95.6237C78.2562 96.543 80.0714 97.4934 81.41 98.9772C83.1914 100.952 83.9247 103.64 84.4542 106.246C84.2621 106.356 84.0114 106.356 83.8198 106.245Z" fill="#00160A"/>
<path fill-rule="evenodd" clip-rule="evenodd" d="M75.5584 120.186C75.5618 120.057 75.5905 119.905 75.7086 119.853C76.0838 119.689 76.2099 120.747 76.5482 120.517C76.9415 120.248 77.4966 120.834 77.2915 121.264C77.0864 121.693 76.4393 121.755 76.0615 121.465C75.6837 121.176 75.5459 120.662 75.5584 120.186Z" fill="#00160A"/>
<path fill-rule="evenodd" clip-rule="evenodd" d="M74.2498 115.514C73.8269 114.806 73.979 113.895 74.2801 113.128C74.4617 112.664 74.7398 112.179 75.2145 112.03C75.6893 111.882 76.3126 112.34 76.1252 112.801C75.6819 112.943 75.2205 113.112 74.919 113.466C74.6175 113.821 74.5521 114.419 74.9026 114.725C75.0768 114.877 75.0421 115.156 74.9648 115.374C74.8875 115.592 74.7811 115.827 74.8588 116.045C74.9365 116.262 75.3185 116.334 75.3731 116.109C75.4331 115.862 75.8169 115.871 75.9983 116.05C76.1797 116.228 76.2519 116.492 76.4195 116.684C76.587 116.875 76.9503 116.946 77.0639 116.718C77.172 116.502 77.5252 116.516 77.6724 116.708C77.8195 116.901 77.7896 117.183 77.6728 117.395C77.4189 117.857 76.769 118.048 76.3057 117.796C76.0334 117.648 75.8454 117.386 75.6148 117.179C75.3843 116.972 75.0545 116.814 74.7699 116.937C74.4979 117.054 74.2609 116.681 74.2743 116.385C74.2877 116.09 74.4017 115.768 74.2498 115.514Z" fill="#00160A"/>
<path fill-rule="evenodd" clip-rule="evenodd" d="M64.3621 67.0605C64.9116 66.5852 65.1072 65.7437 64.8238 65.0747C64.7179 64.8248 64.615 64.4341 64.8785 64.3692C65.6805 65.0707 65.7485 66.4528 65.0194 67.2297C64.8925 67.3649 64.7228 67.4896 64.5391 67.4649C64.3555 67.4401 64.2219 67.1818 64.3621 67.0605L64.3621 67.0605Z" fill="#00160A"/>
<path fill-rule="evenodd" clip-rule="evenodd" d="M63.0889 62.8274C63.4985 62.8384 63.8069 63.2515 63.8421 63.6597C63.8773 64.0679 63.709 64.464 63.5297 64.8324C63.4189 65.0602 63.2337 65.3225 62.984 65.2798C62.7958 65.2477 62.6861 65.0546 62.6049 64.8818C62.4245 64.4974 62.2497 64.0865 62.29 63.6638C62.3303 63.2411 62.6644 62.8159 63.0889 62.8274V62.8274Z" fill="#00160A"/>
<path fill-rule="evenodd" clip-rule="evenodd" d="M65.9525 64.735C65.6011 64.8308 65.4065 64.3331 65.4174 63.969C65.4272 63.6467 65.473 63.3097 65.6614 63.0481C65.8499 62.7864 66.3193 62.4723 66.4984 62.9054C66.6775 63.3386 66.5709 63.9942 66.2371 64.4901C66.1657 64.5962 66.076 64.7013 65.9525 64.735Z" fill="#00160A"/>
<path fill-rule="evenodd" clip-rule="evenodd" d="M61.8604 67.2817C61.9808 67.2591 62.1012 67.2366 62.2216 67.2141C62.258 67.6158 62.6478 67.8876 63.0231 68.0351C63.3985 68.1825 63.8167 68.2765 64.0988 68.5648C64.2008 68.6691 64.2709 68.8599 64.1523 68.9449C64.1003 68.9822 64.0308 68.9812 63.9669 68.977C62.982 68.9121 61.911 68.2674 61.8604 67.2817Z" fill="#00160A"/>
<path fill-rule="evenodd" clip-rule="evenodd" d="M61.7623 62.2614C61.4941 62.2009 61.4867 61.7709 61.7075 61.6071C61.9284 61.4433 62.237 61.4805 62.501 61.5572C63.0832 61.7262 63.6188 62.0528 64.0357 62.4929C63.3114 62.8159 62.4067 61.7992 61.7623 62.2614V62.2614Z" fill="#00160A"/>
<path fill-rule="evenodd" clip-rule="evenodd" d="M45.0185 115.143C45.7164 115.47 46.6515 114.81 46.5776 114.043C47.0269 114.432 47.5229 114.981 47.3209 115.54C47.2456 115.748 47.081 115.912 46.9058 116.048C46.2922 116.524 45.514 116.734 44.7466 116.855C43.9427 116.981 43.0405 116.995 42.4075 116.484C41.7823 115.978 41.6107 114.994 42.0281 114.307C42.1309 114.138 42.2764 113.98 42.4686 113.932C42.8897 113.829 43.2436 114.321 43.2385 114.754C43.2335 115.188 43.0167 115.59 42.9443 116.018C42.9314 116.094 42.9232 116.173 42.9421 116.248C43.0208 116.56 43.4995 116.571 43.7373 116.354C43.9751 116.137 44.063 115.805 44.2272 115.528C44.3915 115.25 44.7267 115.007 45.0185 115.143ZM45.0282 116.488C45.1641 116.361 45.2999 116.234 45.4358 116.107C45.3847 115.944 45.1657 115.861 45.0195 115.949C44.8733 116.037 44.8446 116.27 44.9649 116.391L45.0282 116.488Z" fill="#00160A"/>
<path fill-rule="evenodd" clip-rule="evenodd" d="M41.6981 119.738C41.8613 120.199 42.4992 120.317 42.945 120.117C43.0323 120.078 43.1209 120.025 43.1607 119.938C43.2761 119.685 42.9073 119.431 42.9601 119.158C43.0047 118.928 43.3105 118.863 43.5402 118.911C43.7699 118.958 44.0061 119.067 44.229 118.994C44.4874 118.909 44.61 118.618 44.6747 118.354C44.7394 118.09 44.7902 117.797 44.9961 117.619C45.2021 117.442 45.6181 117.518 45.6267 117.79C45.6434 118.317 45.2418 118.76 44.8215 119.077C44.4011 119.394 43.9199 119.665 43.644 120.113C43.382 120.539 43.2301 121.17 42.7326 121.219C42.5731 121.235 42.4154 121.178 42.2709 121.109C41.2323 120.612 40.6143 119.363 40.8482 118.236C40.9519 117.736 41.4524 117.186 41.8894 117.451C42.2429 117.664 42.1722 118.2 41.9919 118.572C41.8117 118.944 41.5601 119.349 41.6981 119.738V119.738Z" fill="#00160A"/>
<path fill-rule="evenodd" clip-rule="evenodd" d="M69.5877 85.8598C70.0612 92.4511 74.4171 98.0298 78.5864 103.157C79.7709 104.613 81.0332 106.128 82.7788 106.82C86.065 108.121 90.1448 106.15 93.181 107.96C77.2952 107.996 61.4113 108.866 45.6165 110.564C44.2572 110.711 42.8533 110.859 41.5464 110.458C40.2395 110.057 39.0451 108.952 38.9908 107.586C38.2967 90.1276 37.6027 72.6697 36.9086 55.2118C36.7801 51.9777 36.6501 48.7303 36.0599 45.5479C35.2875 41.3829 35.269 37.1198 35.253 32.8838C35.2321 27.376 35.2113 21.8683 35.1904 16.3605C53.0945 15.5853 71.0265 15.4537 88.9401 15.9659C89.6749 17.0592 89.8236 18.431 89.9464 19.7425C92.0253 41.9451 92.6708 64.254 93.3151 86.5444C93.5082 93.2236 93.7012 99.9027 93.8943 106.582C93.563 106.471 93.2316 106.361 92.9003 106.251C92.1194 85.1579 91.3385 64.0652 90.5576 42.9725C90.5427 42.5698 90.5017 42.1132 90.1841 41.8651C89.9409 41.6751 89.6064 41.6678 89.2978 41.669C72.6921 41.7294 56.0864 41.7899 39.4807 41.8504C38.1932 41.8551 36.3847 42.5248 36.8024 43.7426C38.8194 49.6228 38.1083 56.0285 38.1323 62.245C38.1457 65.6997 38.3939 69.1487 38.642 72.5945C38.9446 76.7969 39.2472 80.9993 39.5498 85.2017C40.2685 83.3367 40.9872 81.4717 41.7059 79.6067C41.8727 79.1741 42.023 78.6353 41.7155 78.2884C39.4312 75.7113 40.1473 71.1075 43.1065 69.3461C43.6747 69.0079 44.3105 68.7578 44.7759 68.2881C46.0855 66.9666 45.4665 64.6354 46.4322 63.0452C47.8659 60.6844 52.295 60.5961 52.449 57.8383C52.5881 55.3474 54.8493 53.3381 57.2981 52.861C59.7469 52.3839 62.2843 53.1605 64.4897 54.327C66.6424 55.4655 68.7765 57.3131 68.8691 59.7466C68.9056 60.7041 68.6147 61.6403 68.3269 62.5543C67.2844 65.8654 66.0598 69.4286 63.1803 71.3672C66.8953 75.2695 69.2015 80.4858 69.5877 85.8598ZM66.8152 94.6806C68.9528 98.8892 73.0103 101.887 75.0966 106.121C75.1902 106.311 75.2877 106.513 75.4644 106.629C75.6656 106.762 75.9242 106.756 76.1651 106.749C77.9899 106.697 79.8213 106.884 81.5979 107.304C77.3923 103.656 74.2203 98.9764 71.3427 94.2107C70.3047 92.4915 69.271 90.6662 69.1691 88.6606C68.8721 82.8123 66.7255 77.0716 63.1126 72.4633C61.7844 70.7692 58.9266 71.0967 57.401 72.6154C55.8754 74.1341 55.3871 76.3944 55.1647 78.5355C55.0923 79.2324 55.0434 79.9554 55.2743 80.6168C55.5052 81.2783 56.0863 81.8661 56.7865 81.8908C57.4867 81.9156 58.1682 81.1793 57.9254 80.522C58.1741 81.0548 58.4227 81.5876 58.6714 82.1204C57.6512 83.2175 55.6716 82.8603 54.7329 81.6926C53.7943 80.5249 53.7149 78.8677 54.0354 77.4042C54.792 73.9499 57.6762 71.0561 61.128 70.2879C61.1685 69.6146 60.1723 69.4144 59.559 69.6952C58.9456 69.976 58.3608 70.4942 57.6964 70.3773C57.089 70.2705 56.7427 71.0235 56.527 71.6014C55.3121 74.8569 51.8366 76.539 49.0262 78.5827C48.068 79.2796 47.1223 80.0679 45.972 80.3518C44.8217 80.6357 43.3869 80.2146 42.9771 79.1029C39.4583 88.195 38.6249 98.3077 40.6077 107.853C40.7487 108.532 41.3728 109.026 42.0386 109.218C42.7044 109.411 43.4131 109.356 44.1038 109.301C54.3462 108.472 64.5886 107.644 74.831 106.815C72.3913 102.114 67.8019 98.7316 65.7115 93.8652C65.2238 92.7301 64.8796 91.5277 64.2605 90.4586C63.323 88.8396 61.794 87.5941 61.0286 85.8871C60.1042 87.1585 59.1799 88.4299 58.2555 89.7014C58.0475 89.9875 58.1436 90.3846 58.2482 90.7226C58.4799 91.4716 58.7222 92.2407 59.2155 92.8501C59.7089 93.4594 60.5193 93.8795 61.2788 93.6846C62.8276 93.2873 64.5919 93.9563 65.4877 95.2807C63.5935 94.9235 61.6993 94.5662 59.8051 94.209C59.5307 94.1572 59.2428 94.0992 59.03 93.9185C58.8495 93.7651 58.7459 93.5422 58.6478 93.3266C58.2954 92.5525 57.9429 91.7784 57.5905 91.0043C57.2832 90.3293 56.9816 89.5143 57.3736 88.8847C57.7056 88.3516 58.3953 88.1915 58.9125 87.8354C60.3401 86.8527 60.1533 84.6784 59.5026 83.0721C58.852 81.4658 57.8771 79.8119 58.2531 78.1201C59.0232 80.623 59.8109 83.1639 61.2484 85.3529C62.3096 86.9689 63.7025 88.3561 64.6754 90.0268C65.5352 91.5031 66.0415 93.1574 66.8152 94.6806ZM36.4103 17.9708C36.4541 21.8824 36.4979 25.794 36.5417 29.7056C36.5513 30.5676 36.8682 31.7335 37.7276 31.6652C54.7079 30.3157 71.7649 29.9321 88.7886 30.5169C89.2601 30.5331 89.6497 30.0998 89.7544 29.6398C89.8591 29.1799 89.7507 28.7015 89.6493 28.2408C88.8773 24.7295 88.5102 21.1294 88.5576 17.5345C88.5652 16.9642 87.8053 16.7719 87.235 16.7615C70.5456 16.4564 53.849 16.5485 37.1639 17.0375C36.9998 17.0423 36.8265 17.0499 36.6884 17.1387C36.431 17.3043 36.4068 17.6647 36.4103 17.9708M90.4718 40.061C90.5358 37.1267 90.3577 34.1871 89.9399 31.282C88.5732 31.796 87.0742 31.9536 85.6305 31.7351C84.1989 31.5185 82.7452 31.5061 81.2973 31.4942C74.6607 31.4394 68.0233 31.3846 61.3875 31.5018C53.3577 31.6436 45.3344 32.037 37.3163 32.4939C37.0973 32.5064 36.8609 32.5256 36.6949 32.6691C36.4794 32.8554 36.4613 33.1775 36.461 33.4624C36.4587 35.7356 36.5562 38.009 36.7533 40.2737C36.7652 40.4107 36.781 40.5568 36.8682 40.6632C37.0054 40.8308 37.2563 40.8331 37.4726 40.8215C53.329 39.9667 69.2227 40.5184 85.1022 40.533C86.9044 40.5347 88.7307 40.5264 90.4718 40.061ZM53.5169 56.4352C53.0869 57.4736 53.069 58.6801 52.4525 59.6198C51.2001 61.5285 48.0893 61.502 46.9179 63.4614C45.9693 65.0482 46.694 67.357 45.4487 68.7234C44.8228 69.4101 43.8578 69.6561 43.0764 70.1588C41.4386 71.2123 40.7552 73.4286 41.2582 75.3098C41.7613 77.1911 43.2962 78.6958 45.0936 79.4452C45.4131 79.5784 45.7559 79.6923 46.0994 79.65C46.4875 79.6022 46.8216 79.3633 47.137 79.1321C49.3122 77.5374 51.4875 75.9427 53.6627 74.348C54.4637 73.7607 55.2951 73.1378 55.7277 72.2438C56.4604 70.7295 55.9313 68.6817 57.0873 67.4596C57.5334 66.988 58.174 66.722 58.5745 66.211C58.9749 65.7 58.9257 64.7431 58.2906 64.6088C57.5983 64.4624 57.781 63.3608 58.3307 62.9152C58.8805 62.4696 59.6615 62.1907 59.8684 61.514C60.0635 60.876 59.7701 59.9211 60.4013 59.7047C60.7643 59.5803 61.1242 59.8629 61.4457 60.0725C62.8637 60.997 65.0047 60.5134 65.8876 59.069C66.2307 58.5077 67.1137 59.1052 67.2742 59.7431C67.4348 60.3811 67.4591 61.2034 68.0646 61.4606C68.6644 60.5196 68.4837 59.2399 67.8959 58.2914C67.3081 57.3428 66.382 56.6604 65.4567 56.0366C63.558 54.7568 61.4745 53.5913 59.1913 53.4193C56.908 53.2473 54.3931 54.3197 53.5169 56.4352ZM60.2678 64.6547C59.7398 66.5904 57.0204 67.4295 56.7971 69.4233C57.3058 69.9813 58.2385 69.7176 58.8672 69.2996C59.1875 69.0867 59.4971 68.8332 59.6719 68.4906C59.8468 68.148 59.8577 67.6986 59.6117 67.4029C59.3978 67.1461 59.8797 66.7978 60.1657 66.9707C60.4517 67.1437 60.5232 67.5166 60.6101 67.8393C60.7954 68.5273 61.1749 69.1619 61.6932 69.6509C62.1251 70.0582 62.7558 70.3737 63.3009 70.1386C63.5255 70.0418 63.7035 69.8633 63.8696 69.6838C65.5927 67.8219 66.6643 65.3683 66.859 62.8389C66.8812 62.5517 66.8688 62.2122 66.6334 62.0461C66.4022 61.883 66.0885 61.9776 65.8081 62.0158C65.5278 62.054 65.1556 61.9487 65.1425 61.6661C65.4628 61.3559 66.0107 61.3184 66.3702 61.5819C66.5218 61.693 66.6707 61.4307 66.6653 61.2429C66.6499 60.7057 66.4771 60.174 66.1737 59.7304C65.506 60.4749 64.6399 61.0787 63.6568 61.2619C62.6738 61.445 61.5724 61.1498 60.9383 60.3766C60.5557 61.1933 60.386 62.1086 60.4502 63.0083C60.4732 63.3313 60.0036 63.4309 59.6969 63.3268C59.3902 63.2228 59.0399 63.0414 58.7701 63.2205C58.5082 63.3944 58.5378 63.8169 58.7472 64.0513C58.9567 64.2858 59.277 64.3802 59.58 64.4642C59.8093 64.5277 60.0385 64.5912 60.2678 64.6547ZM40.9646 83.3332C41.0114 83.1343 41.0331 82.8742 40.8538 82.7763C40.403 84.1025 39.9795 85.438 39.5836 86.7817C39.4317 87.2976 39.2899 87.8799 39.5509 88.3501C39.7392 88.3582 39.8357 88.1315 39.8788 87.948C40.2408 86.4097 40.6027 84.8714 40.9646 83.3332Z" fill="#00160A"/>
<path fill-rule="evenodd" clip-rule="evenodd" d="M83.4154 122.14C93.1909 121.352 103.011 121.121 112.813 121.449C112.527 118.154 112.242 114.858 111.956 111.563C101.956 112.014 91.9562 112.464 81.9563 112.915C81.6487 115.842 80.5132 118.678 78.7154 121.009C77.8493 122.132 78.5938 123.718 79.1501 125.023C79.7064 126.327 79.751 128.305 78.3845 128.684C76.5813 127.796 75.2963 125.934 75.1067 123.933C67.7118 124.255 60.3169 124.578 52.922 124.9C50.1735 125.02 46.7812 125.606 45.963 128.233C45.6435 126.163 42.9103 125.687 40.8162 125.715C34.5585 125.799 28.3007 125.883 22.043 125.968C21.9476 123.111 21.8522 120.254 21.7568 117.398C21.7383 116.844 21.7253 116.264 21.9736 115.769C22.6401 114.44 24.5543 114.581 26.0014 114.923C25.5363 110.272 25.0711 105.621 24.606 100.97C22.4483 101.464 23.1424 95.9314 20.9706 96.3586C19.6559 96.6172 18.4165 95.4099 18.1359 94.0997C17.8553 92.7895 18.2646 91.4409 18.6695 90.1637C19.8901 89.7909 21.6393 90.1599 22.8763 89.7909C24.1132 89.422 24.8671 88.709 24.8239 87.4189C23.9265 60.6285 21.9892 33.8729 19.0178 7.23269C17.1208 8.04872 14.8618 6.57597 14.0987 4.6571C13.3355 2.73822 13.6624 0.576958 14.0617 -1.44915C14.2018 -2.1602 14.3739 -2.91569 14.8961 -3.41827C15.5617 -4.05895 16.5848 -4.09908 17.5087 -4.10118C46.4997 -4.16715 75.4907 -4.23311 104.482 -4.29908C105.114 -4.30051 105.81 -4.27843 106.277 -3.85281C106.704 -3.46371 106.816 -2.84629 106.905 -2.27547C107.249 -0.0557795 107.588 2.25844 106.91 4.40006C106.233 6.54169 104.207 8.43659 101.976 8.17458C103.196 34.6147 104.417 61.0549 105.637 87.4951C107.626 87.0603 109.952 87.7965 110.944 89.5743C111.936 91.3522 111.031 94.0387 109.045 94.4837C110.312 95.5376 109.7 97.7806 108.306 98.6592C106.911 99.5377 105.137 99.4479 103.495 99.298C101.854 99.148 100.102 98.9882 98.6461 99.7616C98.9897 102.948 98.9469 106.175 98.5189 109.351C99.9307 108.509 101.842 108.597 103.17 109.565C104.092 110.237 104.93 108.602 104.921 107.461C104.901 104.803 104.881 102.145 104.861 99.487C106.3 102.789 106.701 106.534 105.992 110.066C107.767 110.204 109.541 110.342 111.316 110.481C111.85 110.522 112.428 110.583 112.819 110.948C113.208 111.311 113.31 111.881 113.377 112.409C113.814 115.821 113.749 119.296 113.184 122.689C101.685 121.892 90.1066 122.24 78.676 123.727C79.8614 122.502 81.7158 122.277 83.4154 122.14ZM49.2679 113.494C50.0928 111.2 53.1063 110.788 55.5441 110.761C56.6662 110.748 57.7883 110.735 58.9104 110.723C61.3372 110.696 63.7734 110.669 66.1803 110.98C66.4798 111.337 66.7793 111.694 67.0787 112.051C68.0381 111.746 69.1768 112.151 69.7288 112.992C71.3705 111.288 73.396 109.804 75.7373 109.459C78.0787 109.115 80.7421 110.197 81.6373 112.388C81.9606 111.277 82.3645 110.098 83.298 109.414C84.2315 108.731 85.8461 108.897 86.2283 109.989C87.7349 108.318 90.7805 108.458 92.1282 110.259C92.1435 109.382 93.3331 109.073 94.1922 109.251C95.0514 109.429 95.9991 109.81 96.7502 109.356C97.5588 108.868 97.608 107.735 97.5621 106.791C96.0561 75.8198 94.5501 44.8483 93.044 13.8769C93.0335 13.6593 93.0138 13.4202 92.8595 13.2665C92.6985 13.1061 92.4465 13.0933 92.2193 13.0904C72.519 12.8398 52.8187 12.5892 33.1184 12.3385C32.6953 12.3332 32.2209 12.3479 31.9261 12.6515C31.648 12.9378 31.6297 13.3801 31.6283 13.7792C31.5415 38.6263 32.5315 63.477 34.5944 88.2384C34.6754 89.2112 35.2126 90.5236 36.1482 90.2452C36.1956 93.0403 36.2431 95.8355 36.2905 98.6306C36.3013 99.2639 36.2604 100.004 35.7404 100.366C35.4513 100.567 35.0802 100.596 34.7288 100.618C31.8525 100.799 28.9761 100.98 26.0998 101.162C26.549 105.607 26.9982 110.052 27.4474 114.497C30.0217 114.583 32.6034 114.448 35.1546 114.092C33.9323 110.232 33.5024 106.123 33.8994 102.093C34.7621 102.164 35.0338 103.28 35.0778 104.145C35.1834 106.219 35.2889 108.294 35.3945 110.368C35.4504 111.465 35.5335 112.639 36.2092 113.506C36.885 114.372 38.3855 114.666 39.0454 113.788C41.3963 110.659 46.7413 110.505 49.2679 113.494ZM103.921 75.0184C102.878 52.7579 101.836 30.4973 100.793 8.23674C73.7988 7.96377 46.8044 7.6908 19.8099 7.41783C23.6885 34.587 24.8017 62.0654 25.9099 89.4877C28.4504 89.7883 31.0263 89.7878 33.5666 89.486C32.8353 78.655 32.1041 67.824 31.3728 56.993C31.1129 53.1438 30.853 49.2936 30.7256 45.4377C30.6196 42.2299 30.6054 39.0198 30.5912 35.8103C30.5584 28.3827 30.5255 20.9552 30.4927 13.5277C30.4891 12.7118 30.7452 11.6157 31.5611 11.6196C52.04 11.7198 72.5188 11.8199 92.9977 11.92C93.4484 11.9222 93.9796 11.9675 94.2134 12.3528C94.3268 12.5396 94.3408 12.768 94.3519 12.9861C95.1829 29.3623 96.0139 45.7389 96.6639 62.1233C96.7723 64.8555 96.8757 67.5879 96.979 70.3203C97.194 76.0037 97.409 81.6871 97.624 87.3705C97.6445 87.9129 98.3858 88.0433 98.9274 88.0074C100.789 87.8839 102.65 87.7605 104.512 87.637C104.315 83.4308 104.118 79.2246 103.921 75.0184ZM14.7842 4.01128C15.1704 5.35435 16.2942 6.59081 17.6906 6.6448C37.9871 7.42949 58.3222 6.24397 78.6175 7.05698C86.8423 7.38645 95.1293 8.04093 103.269 6.81263C103.825 6.72859 104.411 6.62253 104.841 6.25878C105.243 5.91823 105.448 5.40244 105.608 4.90007C106.268 2.8307 106.427 0.603732 106.069 -1.53853C105.98 -2.07418 105.822 -2.65887 105.367 -2.95486C105.027 -3.17567 104.597 -3.18384 104.192 -3.18481C91.9652 -3.21394 79.739 -3.24307 67.5127 -3.27221C65.5359 -3.27692 63.5592 -3.28163 61.5824 -3.28634C55.1068 -3.30177 48.6311 -3.3172 42.1555 -3.33263C33.7372 -3.35269 25.3185 -3.37274 16.9012 -3.24239C15.5321 -3.22119 14.9652 -1.50516 14.7777 -0.148843C14.5863 1.23549 14.3979 2.66821 14.7842 4.01128ZM68.2815 113.915C62.0215 114.142 55.7614 114.369 49.5014 114.596C50.0177 114.711 50.0704 115.452 49.847 115.931C49.6235 116.411 49.2394 116.864 49.2896 117.391C49.4475 119.045 48.9347 120.754 47.892 122.048C47.1532 122.965 46.0933 124.108 46.7048 125.114C48.4625 124.248 50.4805 124.125 52.4371 124.017C59.6254 123.622 66.8138 123.226 74.0021 122.831C74.4703 121.088 71.8951 119.463 72.6098 117.806C72.7731 117.428 72.5123 117.011 72.2643 116.682C71.2504 115.336 69.9651 113.854 68.2815 113.915ZM23.0463 117.521C23.198 119.967 23.505 122.402 23.9648 124.809C30.126 124.79 36.2873 124.771 42.4486 124.752C42.7562 124.751 43.194 124.505 42.9944 124.271C42.0164 123.124 41.0384 121.977 40.0604 120.831C39.5162 120.193 38.9514 119.513 38.8037 118.687C38.5805 117.439 39.289 115.902 38.3777 115.02C33.592 115.832 28.7223 116.149 23.8718 115.962C23.2053 115.937 23.005 116.856 23.0463 117.521ZM74.0275 120.101C74.5931 121.063 74.2449 122.52 75.1451 123.18C76.6663 124.294 76.4207 127.176 78.2271 127.716C78.5492 127.392 78.8799 127.055 79.0454 126.629C79.211 126.203 79.1677 125.661 78.8202 125.364C77.8669 124.55 77.6468 123.127 77.9074 121.901C78.1681 120.675 78.8239 119.576 79.3855 118.455C80.0358 117.158 80.5701 115.802 80.9798 114.409C81.1629 113.787 81.2846 113.017 80.8112 112.574C80.4169 112.205 79.7166 112.193 79.4734 111.711C79.3467 111.459 79.3895 111.145 79.2491 110.901C79.0959 110.635 78.7729 110.528 78.4775 110.444C77.5139 110.173 76.5163 109.931 75.521 110.038C74.5257 110.146 73.5209 110.668 73.0885 111.571C72.7223 112.336 71.4353 111.964 70.8395 112.567C70.236 113.178 70.8009 114.225 71.4919 114.735C72.1829 115.245 73.074 115.686 73.2496 116.526C73.4073 117.281 72.8959 118.08 73.1323 118.814C73.2933 119.314 73.7612 119.648 74.0275 120.101ZM19.8941 95.2048C20.1906 95.6727 20.8386 95.7318 21.3926 95.733C25.735 95.7426 30.061 95.2484 34.3754 94.7549C35.1554 94.6656 35.3471 93.6098 35.216 92.8357C35.0848 92.0617 34.8921 91.1216 35.4879 90.6104C30.5188 90.2537 25.5205 90.3061 20.5599 90.767C20.3165 90.7896 20.051 90.8235 19.8821 91.0002C19.6985 91.1921 19.6901 91.4869 19.6926 91.7525C19.7006 92.6021 19.7086 93.4518 19.7165 94.3014C19.7195 94.6125 19.7275 94.942 19.8941 95.2048ZM47.8028 113.382C46.8807 112.752 45.7987 112.091 44.72 112.38C44.4424 112.455 44.1266 112.586 43.889 112.424C42.6987 111.613 40.8025 112.287 40.3906 113.667C40.2592 114.107 39.7825 114.335 39.4927 114.692C39.2029 115.049 39.3107 115.79 39.7654 115.723C40.1432 115.668 40.3365 116.217 40.1757 116.563C40.0148 116.909 39.6744 117.14 39.4821 117.47C38.9698 118.349 39.6789 119.416 40.3498 120.181C41.3972 121.375 42.4445 122.569 43.4919 123.763C44.3748 124.77 45.2771 125.809 45.731 127.068C46.3826 126.634 46.2482 125.651 46.009 124.906C45.7698 124.16 45.5453 123.223 46.1206 122.692C46.3589 122.472 46.7098 122.359 46.8564 122.07C47.003 121.781 46.5893 121.342 46.4073 121.61C46.0819 122.09 45.5395 122.518 44.9719 122.4C44.4042 122.281 44.1566 121.34 44.6969 121.13C44.8861 121.514 45.4677 121.304 45.8101 121.047C46.2985 120.681 46.7869 120.315 47.2753 119.95C47.9089 119.475 48.5918 118.922 48.7155 118.14C48.8473 117.307 48.3319 116.305 48.9071 115.687C48.4264 115.271 48.6952 114.443 48.3669 113.899C48.234 113.679 48.0152 113.527 47.8028 113.382ZM97.8736 94.1029C98.4179 93.8385 99.0365 93.7832 99.6394 93.7308C102.734 93.4618 105.825 93.1585 108.913 92.821C109.297 92.779 109.695 92.7321 110.027 92.5348C110.697 92.1377 110.901 91.1908 110.6 90.4729C110.3 89.755 109.601 89.2635 108.858 89.0315C108.115 88.7996 107.323 88.7923 106.545 88.7993C103.967 88.8224 101.391 88.9801 98.8299 89.2716C98.3757 89.3232 97.8677 89.4101 97.6036 89.7832C97.3667 90.1178 97.41 90.5681 97.4633 90.9746C97.6001 92.0174 97.7368 93.0601 97.8736 94.1029ZM24.2007 99.3761C24.5558 99.9415 25.2978 100.144 25.9641 100.102C26.6304 100.059 27.2684 99.8232 27.9271 99.7142C30.0465 99.3636 32.3329 100.328 34.315 99.4992C34.4725 99.4333 34.6327 99.3508 34.7284 99.2093C34.8227 99.0697 34.8405 98.8936 34.8536 98.7256C34.9163 97.9232 34.938 97.1177 34.9186 96.3131C34.9156 96.1877 34.9048 96.0471 34.8105 95.9644C34.7377 95.9004 34.6339 95.889 34.5372 95.8815C31.0289 95.6112 27.5446 96.7062 24.0264 96.6549C23.7904 96.6514 23.7315 96.9808 23.756 97.2155C23.7985 97.6215 23.8508 98.0264 23.913 98.4298C23.9635 98.7581 24.0241 99.0948 24.2007 99.3761ZM108.581 94.782C108.549 94.6146 108.506 94.4375 108.381 94.3209C108.205 94.1557 107.933 94.1673 107.692 94.1895C104.89 94.4477 102.088 94.7235 99.289 95.0167C98.9064 95.0568 98.4665 95.1329 98.276 95.467C98.0436 95.8747 98.3328 96.3739 98.3517 96.8427C98.3634 97.1364 98.2695 97.4523 98.4075 97.7118C98.5909 98.0568 99.061 98.0965 99.4516 98.0898C100.585 98.0705 101.719 98.033 102.852 97.9956C104.621 97.9373 106.389 97.8789 108.157 97.8205C108.506 97.809 108.654 97.3751 108.687 97.0278C108.758 96.2792 108.722 95.5206 108.581 94.782ZM97.8538 110.373C97.7103 110.294 97.6044 110.158 97.4599 110.081C97.1531 109.917 96.7717 110.062 96.485 110.259C96.1983 110.456 95.9335 110.711 95.5943 110.788C95.2551 110.865 94.8179 110.649 94.837 110.302C94.8633 109.825 94.1734 109.637 93.7424 109.843C93.3115 110.049 92.9988 110.461 92.5537 110.634C92.2578 110.749 91.9098 110.756 91.6669 110.961C91.424 111.165 91.4791 111.691 91.7958 111.668C95.0671 111.438 98.3383 111.208 101.61 110.978C101.885 110.959 102.205 110.913 102.342 110.673C102.55 110.308 102.099 109.868 101.68 109.876C101.26 109.884 100.894 110.144 100.505 110.3C99.8296 110.569 99.0758 110.526 98.3505 110.479C98.1801 110.468 98.0035 110.455 97.8538 110.373ZM58.2866 113.196C60.819 113.037 63.3513 112.877 65.8837 112.718C66.0335 112.708 66.1982 112.692 66.3021 112.584C66.5038 112.374 66.2875 111.996 66.0048 111.925C65.7222 111.854 65.4312 111.969 65.1486 112.041C64.8661 112.112 64.5222 112.121 64.3312 111.901C63.9298 111.438 63.1393 112.373 62.6172 112.052C61.8974 111.61 61.0478 111.353 60.206 111.424C59.3643 111.494 58.5382 111.914 58.0611 112.611C57.9438 112.783 57.8691 113.059 58.0484 113.164C58.1186 113.205 58.2054 113.201 58.2866 113.196ZM85.6054 109.534C85.2181 109.315 84.7442 109.611 84.4317 109.927C84.0575 110.306 83.7304 110.918 84.0601 111.336C84.2863 111.623 84.7041 111.65 85.0695 111.652C85.9392 111.657 86.8089 111.662 87.6786 111.667C87.8346 111.668 87.9975 111.668 88.1364 111.597C88.3501 111.488 88.4521 111.244 88.5375 111.02C88.707 110.575 88.8351 109.976 88.4457 109.701C88.3001 109.598 88.1151 109.574 87.9382 109.552C87.5624 109.507 87.1241 109.482 86.8666 109.76C86.518 110.135 86.658 110.911 86.1698 111.067C85.9212 110.563 86.0944 109.81 85.6054 109.534ZM56.4215 113.015C56.5454 113.009 56.673 113.002 56.7855 112.95C57.1915 112.762 57.0961 112.084 56.7045 111.867C56.3129 111.65 55.8188 111.778 55.4233 111.987C55.064 112.177 54.6366 111.967 54.253 111.833C53.1957 111.463 51.9417 111.733 51.1307 112.506C50.9219 112.705 50.7316 113.013 50.8724 113.265C52.7221 113.181 54.5718 113.098 56.4215 113.015ZM89.1496 111.757C89.2131 111.798 89.2921 111.804 89.3676 111.808C89.9432 111.834 90.6614 111.629 90.7542 111.06C90.8079 110.731 90.5803 110.379 90.2574 110.293C89.7049 110.145 89.2168 110.719 89.0626 111.269C89.0149 111.44 89.0006 111.661 89.1496 111.757ZM83.5172 110.626C83.5434 110.385 83.4106 110.022 83.1957 110.134C82.975 110.541 82.8397 110.993 82.801 111.454C82.7869 111.622 82.7894 111.804 82.888 111.94C82.9867 112.077 83.2148 112.127 83.3217 111.997C83.3736 111.934 83.3845 111.848 83.3933 111.766C83.4346 111.386 83.4759 111.006 83.5172 110.626ZM47.2697 120.708C47.1011 121.042 47.2212 121.493 47.5335 121.699C47.7516 121.432 47.9836 121.108 47.9028 120.773C47.822 120.437 47.2233 120.334 47.1731 120.676M68.3378 113.152C68.5637 113.185 68.8507 113.152 68.9338 112.939C68.6919 112.759 68.3657 112.699 68.0756 112.78C68.0082 112.868 67.9834 112.987 68.0099 113.094C68.104 113.157 68.2242 113.18 68.3346 113.155L68.3378 113.152Z" fill="#00160A"/>
<path fill-rule="evenodd" clip-rule="evenodd" d="M217.318 16.5386C218.207 16.5618 219.213 16.6401 219.773 17.3307C220.233 17.8988 220.234 18.6991 220.212 19.43C219.354 48.1991 218.331 76.9633 217.142 105.721C216.077 97.3387 216.476 88.8479 216.877 80.4081C217.581 65.6 218.284 50.7918 218.987 35.9837C218.935 38.5029 218.06 41.8668 215.541 41.7925C201.604 41.3817 187.667 40.9708 173.731 40.56C172.65 40.5281 171.328 40.3347 170.944 39.3234C186.255 39.7381 201.565 40.1528 216.875 40.5674C217.537 38.1668 217.713 35.6331 217.389 33.164C202.03 32.8622 186.671 32.5604 171.313 32.2586C170.994 31.4258 172.266 30.9563 173.157 30.9754C187.684 31.2873 202.211 31.5992 216.738 31.9111C217.507 31.9276 217.799 30.9228 217.849 30.155C218.066 26.8802 218.283 23.6054 218.499 20.3306C218.547 19.6117 218.567 18.8077 218.087 18.2698C217.591 17.7131 216.755 17.6577 216.009 17.6419C201.095 17.3275 186.181 17.0131 171.267 16.6987C170.28 36.2618 169.972 55.8593 170.345 75.4439C171.872 71.4853 175.074 68.2045 178.994 66.5825C176.397 64.1562 175.556 60.0393 176.992 56.7884C175.338 57.6406 173.942 55.0047 174.445 53.2141C174.593 52.6865 175.415 52.1783 175.632 51.6537C176.151 50.398 175.907 49.6087 175.664 47.8831C175.421 46.1576 177.784 45.6675 179.195 46.5078C180.606 47.3481 182.003 48.8181 183.577 48.3515C185.488 47.7854 187.513 49.2999 188.234 51.1574C188.954 53.0149 188.713 55.0882 188.462 57.0646C188.099 59.9175 187.175 63.4138 184.357 63.9889C184.147 66.0231 187.139 66.3157 189.155 66.6566C191.905 67.1214 194.166 69.2172 195.489 71.6723C196.812 74.1274 197.332 76.9254 197.749 79.6828C199.084 88.5173 199.512 97.746 196.628 106.203C203.194 106.099 209.76 105.994 216.326 105.89C212.508 107.22 208.379 107.272 204.336 107.281C193.28 107.307 182.224 107.122 171.175 106.726C170.51 106.702 169.787 106.655 169.291 106.212C168.76 105.738 168.654 104.959 168.593 104.25C168.2 99.6806 168.246 95.0736 168.732 90.5134C169.141 95.5809 169.55 100.648 169.959 105.716C175.324 105.915 180.69 106.113 186.055 106.312C188.093 106.387 190.677 106.107 191.312 104.169C191.308 104.808 191.304 105.447 191.3 106.087C192.705 106.393 194.17 106.423 195.587 106.177C198.05 98.9392 198.549 91.0437 197.016 83.5538C195.36 83.3766 193.953 84.9473 193.604 86.5762C193.254 88.2052 193.646 89.8872 193.839 91.5421C194.326 95.7308 193.492 100.064 191.484 103.772C193.2 98.8632 193.578 93.4941 192.566 88.3936C191.83 84.6829 190.37 81.0498 190.519 77.2698C191.723 79.5267 192.299 82.1141 192.167 84.6684C193.802 83.9887 195.437 83.3091 197.072 82.6294C196.806 78.9483 196.504 75.1405 194.749 71.8938C192.994 68.6472 189.361 66.1082 185.741 66.8232C185.419 69.086 183.881 71.4636 181.6 71.6095C179.319 71.7554 177.562 68.2552 179.508 67.0557C174.906 68.3571 172.2 72.9818 169.979 77.2165C169.091 78.909 168.182 80.7005 168.245 82.6107C168.308 84.5209 169.729 86.5298 171.64 86.521C173.854 84.1497 175.14 80.9333 175.171 77.6891C175.745 86.0784 175.721 94.5087 175.098 102.895C175.035 103.745 174.122 104.872 173.648 104.163C174.812 97.779 174.95 91.2089 174.055 84.7815C171.993 87.6246 169.159 89.9018 165.938 91.3028C164.459 91.9461 164.079 93.8983 164.321 95.4926C164.563 97.0869 165.216 98.6578 165.007 100.257C164.798 101.856 163.932 103.328 161.688 102.756C159.444 102.184 156.201 103.107 156.201 103.107C156.201 103.107 156.621 110.474 157.352 112.666C160.169 114.852 164.397 110.712 167.65 112.171C169.673 113.079 171.978 113.029 174.195 112.962C175.579 112.92 177.526 111.879 176.719 110.754C173.197 111.124 169.635 111.119 166.114 110.739C164.6 110.576 163.491 109.111 163.226 107.611C162.961 106.111 163.348 104.581 163.731 103.107C163.965 104.313 163.881 106.419 164.011 107.281C164.141 108.144 164.519 109.572 165.467 109.664C172.9 110.391 175.394 109.919 180.597 108.705C181.512 108.492 182.639 108.222 183.577 108.228C184.701 108.235 185.752 108.841 186.843 109.111C190.629 110.05 194.598 109.757 198.488 109.458C205.994 108.881 213.501 108.305 221.008 107.728C224.064 102.584 218.268 94.7769 222.385 90.4359C222.733 64.3378 223.081 38.2397 223.428 12.1416C203.899 11.5247 184.351 11.5259 164.822 12.1452C163.487 34.7992 163.234 57.5168 164.064 80.1948C162.826 76.9571 162.739 73.4103 162.684 69.9443C162.391 51.211 162.612 32.4695 163.346 13.7483C163.38 12.8905 163.468 11.9208 164.141 11.3868C164.645 10.986 165.339 10.9516 165.984 10.9351C185.299 10.4407 204.628 10.4493 223.943 10.9608C223.943 29.5249 224.928 45.41 223.647 62.5838C222.936 72.1123 223.428 80.9413 223.428 90.5134C225.288 90.7367 227.748 89.8553 228.341 88.0784C228.933 86.3015 228.705 84.3705 228.516 82.5069C225.975 57.4771 231.746 32.2188 229.867 7.13064C205.799 6.02834 181.687 5.89037 157.608 6.71718C157.109 6.73429 156.563 6.77074 156.201 7.113C155.795 7.49625 155.764 8.12084 155.76 8.67918C155.626 29.3794 155.491 50.0797 155.357 70.7799C154.096 52.4946 153.744 34.1357 154.68 15.8308C154.782 13.8324 154.893 11.7842 154.302 9.87265C153.71 7.96108 152.251 6.18315 150.285 5.81283C149.897 2.38376 149.949 -1.09476 150.439 -4.51074C178.781 -4.36336 207.124 -4.21598 235.466 -4.0686C235.569 -1.91204 235.671 0.244518 235.773 2.40108C235.87 4.44293 235.062 7.33388 233.058 6.92725C232.245 6.76205 231.854 7.885 231.811 8.71438C231.46 15.5271 231.108 22.3398 230.756 29.1525C229.711 49.3997 228.666 69.677 229.368 89.939C231.179 90.0294 232.99 90.1197 234.802 90.2101C235.282 91.3477 235.773 92.5574 235.594 93.7793C235.415 95.0011 234.281 96.1714 233.073 95.913C234.125 98.3662 231.318 101.442 228.779 100.618C228.983 103.551 229.186 106.485 229.39 109.418C229.429 109.972 229.486 110.571 229.861 110.979C231.033 112.253 233.543 110.287 234.78 111.497C234.948 114.382 235.116 117.268 235.283 120.153C235.329 120.94 235.334 121.836 234.762 122.378C234.378 122.742 233.825 122.85 233.303 122.938C223.136 124.657 212.715 124.86 202.488 123.539C203.038 126.168 203.462 129.275 201.603 131.213C200.232 132.643 197.611 133.757 198.236 135.637C199.36 135.4 200.377 134.695 200.995 133.726C200.875 134.983 199.706 136.05 198.444 136.056C197.36 136.17 197.576 134.36 198.315 133.56C199.938 131.803 202.037 130.231 202.554 127.895C203.071 125.56 200.396 122.705 198.503 124.168C197.365 125.048 197.417 126.751 197.577 128.18C196.554 127.026 196.687 125.039 197.855 124.032C194.81 124.727 191.65 124.917 188.543 124.594C192.467 123.999 196.391 123.404 200.315 122.809C199.198 119.717 199.49 116.147 201.093 113.276C198.638 113.006 196.138 113.143 193.727 113.679C193.052 113.83 192.362 114.021 191.823 114.454C191.256 114.908 190.914 115.579 190.604 116.236C187.976 121.808 186.463 127.903 186.181 134.057C185.57 130.516 186.021 126.798 187.459 123.505C187.113 122.955 186.664 122.471 186.143 122.083C189.722 120.682 191.438 115.842 189.542 112.499C189.243 111.974 188.874 111.489 188.455 111.054C185.933 108.441 181.482 107.985 178.484 110.033C177.202 111.647 177.822 112.19 177.279 113.146C176.948 113.729 176.213 114.095 175.898 114.699C175.78 114.924 175.75 115.262 175.632 115.487C176.509 116.203 177.609 116.642 178.737 116.726C178.626 117.937 178.514 119.148 178.403 120.359C179.044 120.47 179.684 120.582 180.325 120.693C179.467 121.547 180.231 123.326 181.441 123.291C182.584 126.927 183.727 130.563 184.87 134.199C183.703 131.281 182.536 128.363 181.369 125.445C177.437 125.892 173.504 126.34 169.572 126.788C169.714 127.508 170.085 128.181 170.619 128.686C168.287 129.023 165.945 126.801 166.16 124.455C165.013 126.524 166.783 128.99 168.605 130.5C170.427 132.009 172.635 133.704 172.558 136.068C170.747 136.703 168.522 135.412 168.174 133.525C168.832 134.751 170.254 135.521 171.64 135.402C170.739 134.497 169.838 133.592 168.936 132.687C169.602 133.086 170.269 133.486 170.935 133.885C171.234 133.108 170.542 132.235 169.736 132.024C168.929 131.814 168.082 132.067 167.288 132.319C165.813 132.785 164.289 133.279 163.143 134.318C161.998 135.357 161.34 137.105 162.023 138.492C163.483 137.99 164.735 136.909 165.444 135.538C165.367 137.381 163.582 138.975 161.742 138.845C160.437 136.283 162.592 132.702 165.467 132.655C166.651 132.636 167.354 131.151 167.042 130.008C166.73 128.865 165.774 128.031 164.866 127.271C164.254 128.069 163.465 128.73 162.571 129.192C162.542 127.844 162.807 126.491 163.342 125.253C162.134 126.626 161.453 128.451 161.466 130.279C160.849 128.772 160.904 127.004 161.614 125.538C158.039 126.147 154.409 126.433 150.783 126.39C150.185 122.248 149.588 118.107 148.991 113.965C151.233 113.358 153.556 113.051 155.879 113.053C154.715 106.087 155.879 105.893 154.433 102.756C154.237 102.33 153.539 103.144 153.064 102.184C152.589 101.224 152.377 98.7242 152.377 98.7242C152.377 98.7242 150.438 98.4409 150.285 97.9189C149.685 95.8709 149.011 94.0411 150.469 92.9392C152.025 91.7644 154.46 92.7708 156.089 91.7017C155.477 89.2841 155.358 86.7425 155.743 84.2784C156.701 85.9062 156.359 87.9755 156.886 89.7891C157.413 91.6027 159.896 93.1267 161.082 91.6577C159.343 88.5562 157.012 84.0959 154.655 81.4327C153.149 79.7304 151.012 80.137 149.449 78.2574C147.885 76.3778 147.421 76.005 146.869 74.4336C146.318 72.8622 147.07 70.7099 148.72 70.4804C150.333 70.256 151.552 71.8518 152.377 73.2559C152.006 72.0168 152.997 70.5633 154.286 70.4567C155.882 75.4872 158.772 80.1009 162.603 83.7311C163.805 84.8703 166.23 85.636 166.708 84.0504C165.856 82.7177 167.337 81.1901 168.161 79.8398C169.157 78.2076 169.201 76.1885 169.216 74.2764C169.361 55.2767 169.507 36.277 169.653 17.2773C169.664 15.7821 171.686 15.3491 173.181 15.3881C187.894 15.7716 202.606 16.1551 217.318 16.5386ZM151.35 5.13684C151.571 5.30713 151.873 5.31467 152.152 5.31493C157.889 5.32014 163.625 5.32535 169.361 5.33057C172.685 5.33359 176.01 5.33661 179.334 5.33963C185.7 5.34542 192.066 5.3512 198.433 5.35699C209.835 5.36735 221.237 5.37772 232.64 5.38808C233.26 5.38864 233.995 5.32741 234.31 4.79283C234.471 4.51993 234.476 4.18606 234.477 3.86933C234.481 1.7368 234.484 -0.395735 234.488 -2.52827C234.489 -2.75013 234.48 -2.99555 234.328 -3.15684C234.166 -3.32861 233.901 -3.34155 233.665 -3.34295C206.622 -3.50276 179.579 -3.66258 152.537 -3.82239C152.201 -3.82437 151.827 -3.81061 151.593 -3.57042C151.382 -3.35386 151.356 -3.02297 151.342 -2.72112C151.239 -0.480714 151.136 1.75969 151.033 4.00009C151.014 4.4096 151.025 4.88689 151.35 5.13684ZM200.265 119.568C200.096 119.401 199.783 119.578 199.739 119.81C199.696 120.043 199.823 120.27 199.947 120.472C200.382 121.178 200.872 121.892 201.592 122.304C202.291 122.704 203.124 122.775 203.926 122.837C206.689 123.049 209.451 123.262 212.213 123.474C213.989 123.611 215.769 123.747 217.55 123.716C223.082 123.621 228.499 121.915 234.032 121.888C234.486 121.886 234.611 121.266 234.59 120.812C234.481 118.451 234.372 116.089 234.263 113.728C234.234 113.088 233.98 112.235 233.342 112.287C222.797 113.144 212.201 113.367 201.629 112.953C201.691 115.093 201.069 117.248 199.877 119.027C201.018 119.077 202.166 118.989 203.286 118.765C202.439 118.487 201.546 118.349 200.654 118.359C202.159 117.559 204.211 118.006 205.247 119.358C205.343 119.483 205.434 119.628 205.421 119.785C205.394 120.089 205.021 120.212 204.72 120.262C203.177 120.516 201.377 120.666 200.265 119.568ZM161.88 121.077C161.629 121.259 161.275 121.441 161.036 121.244C160.92 121.149 160.876 120.993 160.84 120.848C160.65 120.096 160.458 119.326 160.53 118.553C160.601 117.78 160.987 116.991 161.683 116.647C162.389 116.298 163.221 115.687 163.005 114.93C162.799 114.209 161.843 114.089 161.094 114.111C157.591 114.211 154.088 114.311 150.585 114.412C150.442 114.416 150.283 114.427 150.185 114.53C150.066 114.654 150.088 114.852 150.117 115.021C150.675 118.209 151.233 121.397 151.791 124.586C151.834 124.834 151.899 125.115 152.118 125.24C152.262 125.323 152.44 125.315 152.606 125.305C154.879 125.165 157.147 124.947 159.405 124.653C161.261 124.41 163.451 124.229 164.7 125.624C164.692 124.393 165.617 123.391 166.259 122.341C166.9 121.291 167.182 119.709 166.179 118.996C165.14 118.258 164.237 117.33 163.528 116.271C163.093 116.816 163.619 117.58 163.725 118.27C163.906 119.437 162.837 120.383 161.88 121.077ZM147.408 72.4213C147.444 72.7647 147.662 73.058 147.871 73.3324C148.862 74.6287 149.852 75.925 150.843 77.2212C149.716 76.313 148.589 75.4048 147.462 74.4965C148.638 77.0427 150.844 79.0944 153.469 80.0819C153.906 80.2463 154.36 80.3852 154.749 80.6429C155.43 81.0934 155.834 81.8479 156.23 82.5618C157.583 85.0013 159.159 87.3171 160.932 89.4711C161.723 90.4322 162.777 91.4498 164.009 91.2677C166.628 90.8804 169.064 89.3794 170.588 87.214C169.886 86.4754 169.183 85.7369 168.481 84.9984C168.237 84.7421 167.976 84.4752 167.636 84.3797C167.295 84.2841 166.858 84.4384 166.776 84.7824C166.532 85.8094 165.211 86.2545 164.203 85.9436C163.194 85.6328 162.44 84.8094 161.739 84.0204C158.375 80.2357 154.869 76.1624 154.058 71.1638C153.469 70.8728 153.08 71.8191 153.098 72.4762C153.117 73.2078 153.136 73.9393 153.155 74.6709C151.302 73.9135 150.665 70.9579 148.663 70.9666C149.588 72.5585 150.619 74.089 151.747 75.5449C150.085 74.7404 148.717 73.3463 147.944 71.6704C147.599 71.6822 147.372 72.0779 147.408 72.4213ZM222.83 105.41C222.586 106.666 221.905 107.9 220.777 108.504C219.97 108.936 219.026 109.007 218.114 109.07C212.072 109.486 206.031 109.901 199.99 110.316C200.663 111.221 201.515 112.218 202.643 112.194C211.106 112.009 219.569 111.825 228.032 111.64C228.33 111.634 228.674 111.604 228.844 111.359C228.973 111.171 228.952 110.923 228.925 110.697C228.553 107.525 228.181 104.354 227.809 101.182C227.785 100.978 227.752 100.755 227.599 100.618C227.418 100.457 227.145 100.477 226.905 100.507C225.853 100.639 224.801 100.771 223.749 100.903C223.321 100.956 222.767 101.157 222.812 101.586C222.944 102.859 223.075 104.154 222.83 105.41ZM171.044 125.741C173.972 125.519 176.888 125.134 179.773 124.588C180.284 124.491 180.91 124.265 180.945 123.746C180.346 123.793 179.735 123.443 179.472 122.903C179.209 122.362 179.312 121.666 179.719 121.224C179.257 121.237 178.773 121.246 178.361 121.038C177.949 120.83 177.645 120.328 177.82 119.9C178.105 119.203 178.134 118.405 177.901 117.689C177.76 117.259 177.428 116.802 176.977 116.84C176.204 116.904 175.431 116.316 175.288 115.554C175.144 114.792 175.65 113.962 176.393 113.741C176.351 113.546 176.09 113.515 175.891 113.529C172.043 113.788 168.195 114.048 164.347 114.308C164.213 114.317 164.055 114.342 163.999 114.464C163.964 114.539 163.983 114.627 164.004 114.707C164.368 116.094 165.284 117.327 166.507 118.075C165.892 117.445 166.445 116.255 167.301 116.045C168.156 115.836 169.04 116.333 169.64 116.978C170.24 117.622 170.656 118.419 171.243 119.075C171.414 119.267 171.607 119.459 171.666 119.709C171.725 119.959 171.574 120.278 171.317 120.283C171.204 120.286 171.099 120.228 171 120.172C169.774 119.477 168.549 118.783 167.323 118.088C167.584 117.597 168.348 117.762 168.77 118.122C169.192 118.483 169.563 118.995 170.115 119.049C169.878 118.643 169.641 118.237 169.404 117.831C169.049 117.224 168.487 116.523 167.807 116.703C167.257 116.848 167.016 117.547 167.166 118.096C167.316 118.645 167.737 119.071 168.143 119.471C168.777 120.095 169.66 120.77 170.466 120.392C170.706 120.28 170.939 120.657 170.804 120.886C170.67 121.116 170.367 121.177 170.101 121.172C169.341 121.158 168.597 120.772 168.148 120.158C167.992 121.034 167.835 121.909 167.679 122.784C168.706 123.134 169.507 124.077 169.686 125.148C169.775 125.686 170.5 125.782 171.044 125.741ZM183.904 48.8871C183.31 48.9147 182.757 49.2033 182.167 49.2769C181.438 49.3678 180.673 49.1053 180.153 48.5858C179.499 47.9327 177.523 46.247 176.822 46.8835C176.122 47.52 175.977 50.0138 176.784 51.3606C176.937 51.6162 176.785 51.9588 176.554 52.1467C176.323 52.3347 176.028 52.4236 175.771 52.5739C175.047 52.9966 174.685 53.9513 174.946 54.7475C175.207 55.5438 176.064 56.0988 176.897 56.0113C176.293 55.2723 176.368 54.0693 177.061 53.4118C177.753 52.7544 178.959 52.7413 179.665 53.3836C180.121 53.7976 180.844 53.7094 181.407 53.4614C181.97 53.2133 182.483 52.831 183.087 52.7104C183.877 52.5524 184.746 52.9134 185.191 53.5848C185.637 54.2562 185.632 55.1971 185.179 55.8639C184.755 56.4897 185.114 57.4855 185.841 57.6957C186.567 57.9059 187.403 57.2557 187.378 56.4998C187.337 55.249 188.217 54.0907 188.113 52.8436C188.025 51.7941 187.263 50.937 186.498 50.2127C185.773 49.5256 184.902 48.8406 183.904 48.8871ZM177.891 53.8849C177.148 54.056 176.893 55.2051 177.493 55.6747C178.012 55.2193 178.844 55.1715 179.411 55.5646C179.121 56.0563 178.331 55.7863 177.832 56.0645C177.411 56.3 177.313 56.8544 177.273 57.3359C177.165 58.639 177.139 59.9491 177.197 61.2555C177.235 62.1261 177.315 63.0137 177.664 63.8121C178.013 64.6104 178.678 65.3154 179.528 65.5068C180.273 65.6744 181.064 65.4284 181.698 65.0037C182.333 64.579 182.836 63.9892 183.321 63.3989C183.935 62.6498 184.541 61.8739 184.908 60.9773C185.275 60.0807 185.382 59.0364 184.99 58.1501C184.668 57.419 184.523 56.6098 184.574 55.8122C184.614 55.178 184.752 54.4642 184.355 53.9681C183.872 53.3642 182.916 53.49 182.21 53.8064C181.504 54.1228 180.79 54.5841 180.025 54.4703C179.284 54.3602 178.621 53.7167 177.891 53.8849ZM150.533 96.3722C150.533 96.685 150.616 97.0208 150.747 97.2646C151.089 97.9064 154.198 97.2785 154.679 97.2305C157.434 96.9551 160.19 96.6797 162.946 96.4043C163.368 96.3621 163.878 96.2537 164.01 95.85C164.076 95.6499 164.023 95.4324 163.97 95.2287C163.845 94.7522 163.72 94.2757 163.596 93.7992C163.521 93.5118 163.438 93.2103 163.229 92.9994C162.879 92.6473 162.314 92.6667 161.82 92.7104C158.474 93.0061 155.127 93.3018 151.78 93.5975C151.337 93.6367 150.817 93.7262 150.622 94.1264C150.537 94.3018 150.535 94.5045 150.535 94.6994C150.534 95.257 150.534 95.8146 150.533 96.3722ZM221.845 94.5212C221.97 94.6952 222.218 94.7125 222.432 94.7135C226.233 94.7318 230.033 94.7502 233.834 94.7685C234.084 94.7697 234.352 94.766 234.56 94.6264C234.905 94.3947 234.937 93.908 234.933 93.4923C234.928 92.9921 234.921 92.4789 234.739 92.0131C234.557 91.5472 234.158 91.1319 233.661 91.0789C230.085 90.6978 226.503 91.982 222.916 91.7268C222.39 91.6894 221.929 92.1368 221.769 92.6388C221.608 93.1407 221.677 93.6835 221.748 94.2057C221.763 94.3158 221.78 94.431 221.845 94.5212ZM221.691 96.5297C221.59 97.6001 221.664 98.6867 221.911 99.7332C225.064 99.6255 228.215 99.4478 231.36 99.2002C231.881 99.1592 232.563 98.9408 232.526 98.4203C232.486 97.8734 232.446 97.3266 232.406 96.7797C232.393 96.6007 232.376 96.41 232.265 96.2687C232.113 96.0749 231.84 96.0373 231.594 96.0158C228.533 95.7476 225.452 95.6937 222.383 95.8548C222.211 95.8639 222.025 95.8787 221.894 95.9904C221.744 96.1182 221.709 96.3334 221.691 96.5297ZM163.777 98.1459C163.723 97.7302 163.152 97.6657 162.736 97.7125C159.751 98.0479 156.766 98.3833 153.781 98.7188C153.654 98.733 153.521 98.7497 153.418 98.8253C153.214 98.9747 153.217 99.2748 153.245 99.526C153.33 100.301 153.497 101.145 154.104 101.634C154.924 102.293 156.115 102.009 157.144 101.791C159.06 101.384 161.05 101.329 162.985 101.63C163.408 101.696 163.806 101.347 163.947 100.942C164.087 100.538 164.033 100.095 163.977 99.6708C163.91 99.1625 163.844 98.6542 163.777 98.1459ZM183.603 69.6989C183.923 69.2769 184.215 68.8344 184.478 68.375C184.679 68.0247 184.868 67.6171 184.751 67.2308C184.675 66.9792 184.481 66.7841 184.322 66.5752C183.825 65.9243 183.633 65.0504 183.811 64.2512C183.826 64.1829 183.844 64.1104 183.82 64.0445C183.727 63.7866 183.351 64.0328 183.21 64.2677C182.603 65.2807 181.556 66.0191 180.398 66.2506C180.146 66.3011 180.212 66.693 180.079 66.8859C179.524 67.6926 178.379 68.7611 179.432 70.0103C180.224 70.9486 180.392 71.1553 180.613 71.2233C181.755 71.5736 182.882 70.6506 183.603 69.6989ZM191.887 113.074C192.198 113.018 192.51 112.962 192.821 112.906C193.427 112.797 194.054 112.679 194.556 112.323C195.22 111.854 195.633 110.995 196.423 110.803C196.615 110.756 196.879 110.56 196.717 110.448C196.678 110.42 196.626 110.42 196.578 110.42C194.458 110.447 192.339 110.541 190.225 110.702C190.489 111.394 190.795 112.07 191.142 112.724C191.211 112.854 191.288 112.99 191.419 113.057C191.561 113.129 191.731 113.103 191.887 113.074ZM198.078 110.846C197.097 110.989 196.26 111.633 195.587 112.361C195.424 112.537 195.595 112.883 195.834 112.861C196.094 112.451 196.652 112.381 197.137 112.352C198.249 112.287 199.361 112.221 200.473 112.156C200.182 111.208 199.059 110.703 198.078 110.846ZM185.502 60.9272C185.297 61.7408 184.844 62.4899 184.218 63.0483C184.258 63.2562 184.562 63.236 184.76 63.1615C185.472 62.8938 186.206 62.6005 186.725 62.0442C187.243 61.4878 187.477 60.59 187.058 59.9554C186.915 60.5891 185.66 60.2971 185.502 60.9272ZM166.966 124.637C166.724 125.131 166.715 125.841 167.19 126.117C167.597 126.354 168.181 126.079 168.315 125.627C168.449 125.176 168.167 124.662 167.738 124.469C167.472 124.35 167.095 124.375 166.966 124.637ZM164.868 112.861C164.796 112.975 164.777 113.167 164.905 113.209C165.781 113.115 166.665 113.095 167.545 113.146C167.644 112.933 167.512 112.67 167.315 112.543C167.117 112.416 166.873 112.391 166.639 112.369C165.995 112.309 165.212 112.313 164.868 112.861ZM204.001 119.766C204.148 119.72 204.249 119.559 204.227 119.406C203.203 119.193 202.133 119.207 201.115 119.449C201.977 119.948 203.051 120.066 204.001 119.766ZM161.639 119.868C161.885 118.917 162.057 117.946 162.154 116.968C161.199 117.54 160.94 119.003 161.639 119.868ZM185.899 59.9503C186.288 59.9187 186.632 59.5866 186.677 59.1985C186.722 58.8105 186.463 58.4086 186.092 58.2888C185.741 58.639 185.547 59.1417 185.573 59.6368C185.578 59.7327 185.596 59.8378 185.67 59.8987C185.732 59.9497 185.819 59.9568 185.899 59.9503ZM168.534 126.881C168.218 126.554 167.645 126.521 167.293 126.809C167.442 127.146 167.705 127.43 168.029 127.604C168.178 127.684 168.36 127.74 168.514 127.67C168.793 127.541 168.748 127.103 168.534 126.881ZM168.849 124.849C168.88 124.367 168.621 123.877 168.204 123.632C167.788 123.387 167.233 123.397 166.827 123.658C167.579 123.896 168.277 124.306 168.849 124.849ZM163.107 118.282C163.045 118.134 162.92 117.979 162.761 118C162.433 118.522 162.436 119.232 162.767 119.751C163.169 119.395 163.311 118.777 163.107 118.282ZM163.396 127.429C163.318 127.563 163.389 127.758 163.534 127.812C163.746 127.704 163.885 127.466 163.877 127.228C163.705 127.156 163.482 127.265 163.434 127.444M217.753 32.2912C217.654 32.3643 217.555 32.4373 217.455 32.5104C217.517 32.6232 217.58 32.736 217.642 32.8488C217.823 32.7559 217.897 32.499 217.792 32.3242L217.753 32.2912Z" fill="#00160A"/>
<ellipse cx="177.799" cy="61.499" rx="0.383937" ry="0.767865" fill="#FFB61D"/>
<path fill-rule="evenodd" clip-rule="evenodd" d="M185.798 104.152C186.452 96.4239 187.002 88.6865 187.762 80.9684C187.951 79.0432 193.382 81.3752 191.129 98.0704C190.772 100.71 189.074 104.654 186.045 104.856L185.798 104.152Z" fill="#E7EAEE"/>
<path fill-rule="evenodd" clip-rule="evenodd" d="M52.6347 77.6766C53.1218 88.1668 51.4345 81.521 55.8053 84.3304C56.5492 84.8085 57.3626 85.7009 57.2212 86.5738C56.9436 88.2879 55.2909 89.5002 54.7035 91.1342C51.7956 99.2226 64.9736 99.584 67.3639 100.856C68.163 101.282 67.8039 102.836 67.2753 103.57C65.3535 106.242 54.1705 98.9884 52.7617 97.9043C43.4253 90.7199 44.5376 86.0195 51.8673 78.6397L52.6347 77.6766Z" fill="#E7EAEE"/>
<ellipse cx="61.8869" cy="66.103" rx="0.383937" ry="0.767875" fill="#FFB61D"/>
</svg>
