<svg width="25" height="25" viewBox="0 0 25 25" fill="none" xmlns="http://www.w3.org/2000/svg">
<path d="M15.0822 14.863C14.2801 15.5098 13.2807 15.8625 12.2502 15.8625C11.2198 15.8625 10.2204 15.5098 9.41825 14.863C9.17319 14.6593 8.85725 14.5613 8.53994 14.5906C8.22263 14.6198 7.92993 14.7739 7.72625 15.019C7.52256 15.2641 7.42457 15.58 7.45382 15.8973C7.48308 16.2146 7.63719 16.5073 7.88225 16.711C9.10785 17.7341 10.6537 18.2946 12.2502 18.2946C13.8468 18.2946 15.3926 17.7341 16.6182 16.711C16.8633 16.5073 17.0174 16.2146 17.0467 15.8973C17.0759 15.58 16.9779 15.2641 16.7742 15.019C16.6734 14.8977 16.5496 14.7974 16.41 14.7239C16.2704 14.6504 16.1177 14.6051 15.9606 14.5906C15.6432 14.5613 15.3273 14.6593 15.0822 14.863ZM8.65025 10.987C8.88758 10.987 9.11959 10.9166 9.31693 10.7848C9.51427 10.6529 9.66808 10.4655 9.7589 10.2462C9.84973 10.027 9.87349 9.78568 9.82719 9.5529C9.78089 9.32012 9.6666 9.10631 9.49878 8.93848C9.33095 8.77066 9.11713 8.65637 8.88436 8.61007C8.65158 8.56377 8.4103 8.58753 8.19103 8.67836C7.97176 8.76918 7.78434 8.92299 7.65248 9.12033C7.52063 9.31767 7.45025 9.54967 7.45025 9.78701C7.45025 10.1053 7.57668 10.4105 7.80172 10.6355C8.02676 10.8606 8.33199 10.987 8.65025 10.987ZM15.8502 8.58701C15.6129 8.58701 15.3809 8.65739 15.1836 8.78925C14.9862 8.9211 14.8324 9.10852 14.7416 9.32779C14.6508 9.54706 14.627 9.78834 14.6733 10.0211C14.7196 10.2539 14.8339 10.4677 15.0017 10.6355C15.1695 10.8034 15.3834 10.9177 15.6161 10.964C15.8489 11.0103 16.0902 10.9865 16.3095 10.8957C16.5287 10.8048 16.7162 10.651 16.848 10.4537C16.9799 10.2564 17.0502 10.0243 17.0502 9.78701C17.0502 9.46875 16.9238 9.16353 16.6988 8.93848C16.4737 8.71344 16.1685 8.58701 15.8502 8.58701ZM12.2502 0.187012C9.87687 0.187012 7.5568 0.890799 5.58341 2.20938C3.61002 3.52795 2.07195 5.4021 1.1637 7.59481C0.255444 9.78752 0.0178036 12.2003 0.480826 14.5281C0.943849 16.8559 2.08674 18.9941 3.76497 20.6723C5.4432 22.3505 7.58139 23.4934 9.90916 23.9564C12.2369 24.4195 14.6497 24.1818 16.8424 23.2736C19.0352 22.3653 20.9093 20.8272 22.2279 18.8539C23.5465 16.8805 24.2502 14.5604 24.2502 12.187C24.2502 10.6111 23.9399 9.05072 23.3368 7.59481C22.7337 6.1389 21.8498 4.81603 20.7355 3.70173C19.6212 2.58743 18.2984 1.70351 16.8424 1.10046C15.3865 0.497401 13.8261 0.187012 12.2502 0.187012ZM12.2502 21.787C10.3515 21.787 8.49549 21.224 6.91677 20.1691C5.33806 19.1143 4.10761 17.6149 3.38101 15.8608C2.6544 14.1066 2.46429 12.1764 2.83471 10.3141C3.20513 8.45193 4.11944 6.74137 5.46202 5.39879C6.80461 4.0562 8.51516 3.14189 10.3774 2.77147C12.2396 2.40105 14.1698 2.59117 15.924 3.31777C17.6782 4.04437 19.1775 5.27482 20.2324 6.85354C21.2872 8.43225 21.8502 10.2883 21.8502 12.187C21.8502 14.7331 20.8388 17.1749 19.0385 18.9752C17.2381 20.7756 14.7963 21.787 12.2502 21.787Z" fill="#4F4F4F"/>
</svg>
