<svg width="27" height="26" viewBox="0 0 27 26" fill="none" xmlns="http://www.w3.org/2000/svg">
    <path d="M25.5922 10.504C25.2269 10.0655 24.7697 9.71244 24.253 9.46985C23.7364 9.22726 23.1727 9.10101 22.6019 9.10004H16.6734L17.4015 7.24104C17.7043 6.42709 17.8052 5.55183 17.6954 4.69034C17.5856 3.82886 17.2685 3.00686 16.7712 2.29485C16.2739 1.58285 15.6112 1.00209 14.8402 0.602403C14.0691 0.202714 13.2126 -0.00397725 12.344 5.79685e-05C12.0939 0.000579738 11.8493 0.0732156 11.6395 0.209257C11.4296 0.345299 11.2635 0.538972 11.1609 0.767056L7.4556 9.10004H4.40034C3.3659 9.10004 2.37384 9.51093 1.64238 10.2423C0.910928 10.9737 0.5 11.9657 0.5 13V22.1C0.5 23.1344 0.910928 24.1263 1.64238 24.8577C2.37384 25.5891 3.3659 26 4.40034 26H20.9508C21.8632 25.9997 22.7467 25.6795 23.4474 25.0952C24.1482 24.5109 24.6219 23.6995 24.7861 22.802L26.4373 13.702C26.5394 13.1396 26.5166 12.5616 26.3706 12.009C26.2246 11.4564 25.9588 10.9426 25.5922 10.504ZM7.00057 23.4H4.40034C4.05553 23.4 3.72484 23.263 3.48102 23.0192C3.2372 22.7755 3.10023 22.4448 3.10023 22.1V13C3.10023 12.6553 3.2372 12.3246 3.48102 12.0808C3.72484 11.837 4.05553 11.7 4.40034 11.7H7.00057V23.4ZM23.902 13.234L22.2509 22.334C22.1955 22.6369 22.0344 22.9102 21.7964 23.1054C21.5583 23.3006 21.2586 23.405 20.9508 23.4H9.60079V10.673L13.1371 2.71705C13.5011 2.82317 13.8392 3.00358 14.1299 3.24691C14.4207 3.49024 14.6579 3.7912 14.8265 4.13079C14.9951 4.47038 15.0914 4.84124 15.1094 5.21994C15.1275 5.59864 15.0668 5.97697 14.9313 6.33104L14.2422 8.19004C14.0954 8.58297 14.0458 9.00559 14.0977 9.42183C14.1496 9.83807 14.3015 10.2356 14.5404 10.5804C14.7792 10.9252 15.0979 11.2072 15.4694 11.4021C15.8408 11.5971 16.2539 11.6993 16.6734 11.7H22.6019C22.7929 11.6997 22.9816 11.7415 23.1547 11.8224C23.3277 11.9033 23.4808 12.0213 23.603 12.168C23.7283 12.3128 23.82 12.4833 23.8717 12.6676C23.9234 12.8519 23.9337 13.0453 23.902 13.234Z" fill="currentColor"/>
    </svg>
    