<svg width="22" height="15" viewBox="0 0 22 15" fill="none" xmlns="http://www.w3.org/2000/svg">
<path d="M5 6.01001C4.80222 6.01001 4.60888 6.06866 4.44443 6.17854C4.27998 6.28842 4.15181 6.4446 4.07612 6.62733C4.00043 6.81005 3.98063 7.01112 4.01921 7.2051C4.0578 7.39908 4.15304 7.57726 4.29289 7.71712C4.43275 7.85697 4.61093 7.95221 4.80491 7.9908C4.99889 8.02938 5.19996 8.00958 5.38268 7.93389C5.56541 7.8582 5.72159 7.73003 5.83147 7.56558C5.94135 7.40113 6 7.20779 6 7.01001C6 6.74479 5.89464 6.49044 5.70711 6.3029C5.51957 6.11537 5.26522 6.01001 5 6.01001ZM17 6.01001C16.8022 6.01001 16.6089 6.06866 16.4444 6.17854C16.28 6.28842 16.1518 6.4446 16.0761 6.62733C16.0004 6.81005 15.9806 7.01112 16.0192 7.2051C16.0578 7.39908 16.153 7.57726 16.2929 7.71712C16.4327 7.85697 16.6109 7.95221 16.8049 7.9908C16.9989 8.02938 17.2 8.00958 17.3827 7.93389C17.5654 7.8582 17.7216 7.73003 17.8315 7.56558C17.9414 7.40113 18 7.20779 18 7.01001C18 6.74479 17.8946 6.49044 17.7071 6.3029C17.5196 6.11537 17.2652 6.01001 17 6.01001ZM19 0.0100098H3C2.20435 0.0100098 1.44129 0.32608 0.87868 0.88869C0.31607 1.4513 0 2.21436 0 3.01001V11.01C0 11.8057 0.31607 12.5687 0.87868 13.1313C1.44129 13.6939 2.20435 14.01 3 14.01H19C19.7956 14.01 20.5587 13.6939 21.1213 13.1313C21.6839 12.5687 22 11.8057 22 11.01V3.01001C22 2.21436 21.6839 1.4513 21.1213 0.88869C20.5587 0.32608 19.7956 0.0100098 19 0.0100098ZM20 11.01C20 11.2752 19.8946 11.5296 19.7071 11.7171C19.5196 11.9047 19.2652 12.01 19 12.01H3C2.73478 12.01 2.48043 11.9047 2.29289 11.7171C2.10536 11.5296 2 11.2752 2 11.01V3.01001C2 2.74479 2.10536 2.49044 2.29289 2.3029C2.48043 2.11537 2.73478 2.01001 3 2.01001H19C19.2652 2.01001 19.5196 2.11537 19.7071 2.3029C19.8946 2.49044 20 2.74479 20 3.01001V11.01ZM11 4.01001C10.4067 4.01001 9.82664 4.18596 9.33329 4.5156C8.83994 4.84525 8.45542 5.31378 8.22836 5.86196C8.0013 6.41014 7.94189 7.01334 8.05764 7.59528C8.1734 8.17722 8.45912 8.71177 8.87868 9.13133C9.29824 9.55089 9.83279 9.83661 10.4147 9.95237C10.9967 10.0681 11.5999 10.0087 12.1481 9.78165C12.6962 9.55459 13.1648 9.17007 13.4944 8.67672C13.8241 8.18337 14 7.60335 14 7.01001C14 6.21436 13.6839 5.4513 13.1213 4.88869C12.5587 4.32608 11.7956 4.01001 11 4.01001ZM11 8.01001C10.8022 8.01001 10.6089 7.95136 10.4444 7.84148C10.28 7.7316 10.1518 7.57542 10.0761 7.39269C10.0004 7.20997 9.98063 7.0089 10.0192 6.81492C10.0578 6.62094 10.153 6.44276 10.2929 6.3029C10.4327 6.16305 10.6109 6.06781 10.8049 6.02922C10.9989 5.99064 11.2 6.01044 11.3827 6.08613C11.5654 6.16182 11.7216 6.28999 11.8315 6.45444C11.9414 6.61889 12 6.81223 12 7.01001C12 7.27523 11.8946 7.52958 11.7071 7.71712C11.5196 7.90465 11.2652 8.01001 11 8.01001Z" fill="#696969"/>
</svg>
