<svg width="50" height="48" viewBox="0 0 50 48" fill="none" xmlns="http://www.w3.org/2000/svg">
<rect x="1" y="1" width="47.3082" height="45.05" rx="22.525" fill="#FED830" fill-opacity="0.8"/>
<g filter="url(#filter0_i_191_3551)">
<path d="M30.0117 19.2962H29.032L28.7871 18.5308C28.6283 18.0817 28.3338 17.6931 27.9443 17.4188C27.5548 17.1445 27.0897 16.9982 26.6134 17H22.6945C22.2135 17.0009 21.7449 17.1529 21.3549 17.4344C20.9649 17.7159 20.6731 18.1128 20.5208 18.5691L20.2759 19.3345H19.2962C18.6872 19.3345 18.1032 19.5764 17.6725 20.007C17.2419 20.4376 17 21.0217 17 21.6307V27.7538C17 28.3628 17.2419 28.9468 17.6725 29.3775C18.1032 29.8081 18.6872 30.05 19.2962 30.05H30.0117C30.6207 30.05 31.2047 29.8081 31.6354 29.3775C32.066 28.9468 32.3079 28.3628 32.3079 27.7538V21.6307C32.313 21.3259 32.2573 21.0232 32.1442 20.7402C32.0311 20.4572 31.8628 20.1995 31.649 19.9822C31.4353 19.7649 31.1805 19.5924 30.8994 19.4746C30.6182 19.3568 30.3165 19.2962 30.0117 19.2962ZM30.7771 27.7155C30.7771 27.9185 30.6965 28.1132 30.5529 28.2568C30.4094 28.4003 30.2147 28.4809 30.0117 28.4809H19.2962C19.0932 28.4809 18.8985 28.4003 18.755 28.2568C18.6114 28.1132 18.5308 27.9185 18.5308 27.7155V21.5924C18.5308 21.3894 18.6114 21.1947 18.755 21.0512C18.8985 20.9076 19.0932 20.827 19.2962 20.827H20.827C20.9939 20.8357 21.1591 20.7895 21.2973 20.6956C21.4355 20.6016 21.5391 20.4649 21.5924 20.3065L22.0057 19.0513C22.057 18.8993 22.1549 18.7672 22.2853 18.6738C22.4158 18.5804 22.5723 18.5304 22.7328 18.5308H26.6516C26.8121 18.5304 26.9686 18.5804 27.0991 18.6738C27.2296 18.7672 27.3274 18.8993 27.3788 19.0513L27.7921 20.3065C27.8412 20.4525 27.9332 20.5803 28.0561 20.6732C28.179 20.766 28.3271 20.8196 28.4809 20.827H30.0117C30.2147 20.827 30.4094 20.9076 30.5529 21.0512C30.6965 21.1947 30.7771 21.3894 30.7771 21.5924V27.7155ZM24.6539 20.827C24.0484 20.827 23.4565 21.0066 22.953 21.343C22.4496 21.6794 22.0571 22.1575 21.8254 22.717C21.5937 23.2764 21.5331 23.892 21.6512 24.4859C21.7693 25.0797 22.0609 25.6253 22.4891 26.0534C22.9173 26.4816 23.4628 26.7732 24.0567 26.8913C24.6506 27.0095 25.2661 26.9488 25.8256 26.7171C26.385 26.4854 26.8631 26.093 27.1996 25.5895C27.536 25.086 27.7155 24.4941 27.7155 23.8886C27.7155 23.0766 27.393 22.2979 26.8188 21.7237C26.2447 21.1495 25.4659 20.827 24.6539 20.827ZM24.6539 25.4194C24.3512 25.4194 24.0552 25.3296 23.8035 25.1614C23.5518 24.9932 23.3555 24.7541 23.2397 24.4744C23.1238 24.1947 23.0935 23.8869 23.1526 23.5899C23.2116 23.293 23.3574 23.0202 23.5715 22.8061C23.7856 22.5921 24.0584 22.4463 24.3553 22.3872C24.6523 22.3281 24.96 22.3584 25.2398 22.4743C25.5195 22.5902 25.7585 22.7864 25.9268 23.0381C26.095 23.2898 26.1847 23.5858 26.1847 23.8886C26.1847 24.2946 26.0235 24.6839 25.7364 24.971C25.4493 25.2581 25.0599 25.4194 24.6539 25.4194Z" fill="#696969"/>
</g>
<rect x="0.5" y="0.5" width="48.3082" height="46.05" rx="23.025" stroke="#FED830" stroke-opacity="0.5"/>
<defs>
<filter id="filter0_i_191_3551" x="17" y="17" width="15.3086" height="17.0498" filterUnits="userSpaceOnUse" color-interpolation-filters="sRGB">
<feFlood flood-opacity="0" result="BackgroundImageFix"/>
<feBlend mode="normal" in="SourceGraphic" in2="BackgroundImageFix" result="shape"/>
<feColorMatrix in="SourceAlpha" type="matrix" values="0 0 0 0 0 0 0 0 0 0 0 0 0 0 0 0 0 0 127 0" result="hardAlpha"/>
<feOffset dy="4"/>
<feGaussianBlur stdDeviation="2"/>
<feComposite in2="hardAlpha" operator="arithmetic" k2="-1" k3="1"/>
<feColorMatrix type="matrix" values="0 0 0 0 0 0 0 0 0 0 0 0 0 0 0 0 0 0 0.25 0"/>
<feBlend mode="normal" in2="shape" result="effect1_innerShadow_191_3551"/>
</filter>
</defs>
</svg>
