<svg width="19" height="19" viewBox="0 0 19 19" fill="none" xmlns="http://www.w3.org/2000/svg">
    <path d="M12.9494 10.1685C13.8798 9.43653 14.5588 8.43279 14.8922 7.29691C15.2255 6.16104 15.1965 4.94951 14.8092 3.83089C14.4219 2.71226 13.6956 1.74217 12.7312 1.05557C11.7669 0.368967 10.6126 0 9.42882 0C8.24505 0 7.09071 0.368967 6.1264 1.05557C5.16209 1.74217 4.43576 2.71226 4.04846 3.83089C3.66116 4.94951 3.63216 6.16104 3.96548 7.29691C4.29879 8.43279 4.97786 9.43653 5.90821 10.1685C4.31404 10.8072 2.92308 11.8665 1.8836 13.2335C0.844121 14.6006 0.1951 16.2241 0.00572393 17.9309C-0.00798407 18.0556 0.00298766 18.1817 0.0380124 18.302C0.0730372 18.4224 0.131429 18.5347 0.209854 18.6325C0.368242 18.8301 0.598614 18.9566 0.850292 18.9843C1.10197 19.012 1.35434 18.9385 1.55188 18.7801C1.74941 18.6218 1.87594 18.3914 1.90363 18.1397C2.112 16.2847 2.99652 14.5715 4.38819 13.3274C5.77986 12.0833 7.58111 11.3955 9.4478 11.3955C11.3145 11.3955 13.1157 12.0833 14.5074 13.3274C15.8991 14.5715 16.7836 16.2847 16.992 18.1397C17.0178 18.3729 17.129 18.5882 17.3043 18.7442C17.4795 18.9002 17.7063 18.9857 17.9409 18.9843H18.0453C18.2941 18.9557 18.5214 18.8299 18.6778 18.6343C18.8343 18.4388 18.9071 18.1894 18.8804 17.9404C18.6901 16.2287 18.0376 14.601 16.9928 13.2319C15.948 11.8628 14.5502 10.8038 12.9494 10.1685ZM9.42882 9.49474C8.67808 9.49474 7.9442 9.27212 7.31998 8.85503C6.69577 8.43794 6.20925 7.84512 5.92195 7.15153C5.63465 6.45793 5.55948 5.69472 5.70595 4.95841C5.85241 4.22209 6.21392 3.54574 6.74478 3.01489C7.27563 2.48403 7.95198 2.12252 8.6883 1.97606C9.42461 1.82959 10.1878 1.90476 10.8814 2.19206C11.575 2.47936 12.1678 2.96587 12.5849 3.59009C13.002 4.21431 13.2246 4.94819 13.2246 5.69893C13.2246 6.70564 12.8247 7.67112 12.1129 8.38298C11.401 9.09483 10.4355 9.49474 9.42882 9.49474Z" fill="#696969"/>
    </svg>
    