<svg width="64" height="62" viewBox="0 0 64 62" fill="none" xmlns="http://www.w3.org/2000/svg">
    <rect x="0.666748" y="0.0249023" width="63.3333" height="61" rx="30.5" fill="#E6F5F8"/>
    <path d="M32.3334 20.0249C30.8013 20.0249 29.2842 20.3267 27.8688 20.913C26.4533 21.4993 25.1672 22.3586 24.0838 23.442C21.8959 25.6299 20.6667 28.5974 20.6667 31.6916V39.8582C20.6667 40.1677 20.7897 40.4644 21.0085 40.6832C21.2272 40.902 21.524 41.0249 21.8334 41.0249H25.3334C26.2617 41.0249 27.1519 40.6562 27.8083 39.9998C28.4647 39.3434 28.8334 38.4532 28.8334 37.5249V35.1916C28.8334 34.2633 28.4647 33.3731 27.8083 32.7167C27.1519 32.0603 26.2617 31.6916 25.3334 31.6916H23.0001C23.0001 29.2162 23.9834 26.8422 25.7338 25.0919C27.4841 23.3416 29.8581 22.3582 32.3334 22.3582C34.8088 22.3582 37.1827 23.3416 38.9331 25.0919C40.6834 26.8422 41.6667 29.2162 41.6667 31.6916H39.3334C38.4052 31.6916 37.5149 32.0603 36.8585 32.7167C36.2022 33.3731 35.8334 34.2633 35.8334 35.1916V37.5249C35.8334 38.4532 36.2022 39.3434 36.8585 39.9998C37.5149 40.6562 38.4052 41.0249 39.3334 41.0249H42.8334C43.1428 41.0249 43.4396 40.902 43.6584 40.6832C43.8772 40.4644 44.0001 40.1677 44.0001 39.8582V31.6916C44.0001 28.5974 42.7709 25.6299 40.583 23.442C38.3951 21.2541 35.4276 20.0249 32.3334 20.0249ZM25.3334 34.0249C25.6428 34.0249 25.9396 34.1478 26.1584 34.3666C26.3772 34.5854 26.5001 34.8821 26.5001 35.1916V37.5249C26.5001 37.8343 26.3772 38.1311 26.1584 38.3499C25.9396 38.5687 25.6428 38.6916 25.3334 38.6916H23.0001V34.0249H25.3334ZM41.6667 38.6916H39.3334C39.024 38.6916 38.7272 38.5687 38.5085 38.3499C38.2897 38.1311 38.1667 37.8343 38.1667 37.5249V35.1916C38.1667 34.8821 38.2897 34.5854 38.5085 34.3666C38.7272 34.1478 39.024 34.0249 39.3334 34.0249H41.6667V38.6916Z" fill="#3136E5"/>
    </svg>
    