<svg width="65" height="62" viewBox="0 0 65 62" fill="none" xmlns="http://www.w3.org/2000/svg">
	<rect width="64.6926" height="61.05" rx="30.525" fill="#FACFD4" />
	<path d="M40.9883 23.7038H39.408L39.0129 22.4692C38.7568 21.7448 38.2817 21.118 37.6535 20.6756C37.0252 20.2331 36.275 19.9971 35.5066 20H29.1854C28.4096 20.0015 27.6537 20.2466 27.0246 20.7007C26.3955 21.1548 25.9249 21.795 25.6792 22.531L25.2841 23.7656H23.7038C22.7215 23.7656 21.7794 24.1558 21.0848 24.8504C20.3902 25.545 20 26.4871 20 27.4694V37.3462C20 38.3285 20.3902 39.2706 21.0848 39.9652C21.7794 40.6598 22.7215 41.05 23.7038 41.05H40.9883C41.9706 41.05 42.9126 40.6598 43.6072 39.9652C44.3018 39.2706 44.6921 38.3285 44.6921 37.3462V27.4694C44.7003 26.9778 44.6105 26.4895 44.428 26.033C44.2456 25.5765 43.9741 25.1609 43.6293 24.8104C43.2846 24.4599 42.8735 24.1815 42.42 23.9916C41.9666 23.8016 41.4799 23.7038 40.9883 23.7038ZM42.2229 37.2845C42.2229 37.6119 42.0928 37.9259 41.8613 38.1575C41.6297 38.389 41.3157 38.5191 40.9883 38.5191H23.7038C23.3764 38.5191 23.0623 38.389 22.8308 38.1575C22.5993 37.9259 22.4692 37.6119 22.4692 37.2845V27.4076C22.4692 27.0802 22.5993 26.7662 22.8308 26.5346C23.0623 26.3031 23.3764 26.173 23.7038 26.173H26.173C26.4422 26.1871 26.7087 26.1126 26.9316 25.961C27.1545 25.8094 27.3217 25.589 27.4076 25.3335L28.0743 23.3088C28.1571 23.0635 28.3149 22.8506 28.5254 22.6999C28.7359 22.5493 28.9884 22.4686 29.2472 22.4692H35.5683C35.8272 22.4686 36.0797 22.5493 36.2901 22.6999C36.5006 22.8506 36.6584 23.0635 36.7412 23.3088L37.4079 25.3335C37.4871 25.569 37.6356 25.7751 37.8338 25.9249C38.032 26.0747 38.2709 26.1612 38.519 26.173H40.9883C41.3157 26.173 41.6297 26.3031 41.8613 26.5346C42.0928 26.7662 42.2229 27.0802 42.2229 27.4076V37.2845ZM32.346 26.173C31.3693 26.173 30.4145 26.4627 29.6024 27.0053C28.7903 27.548 28.1573 28.3192 27.7835 29.2216C27.4098 30.124 27.312 31.1169 27.5025 32.0749C27.6931 33.0328 28.1634 33.9128 28.854 34.6034C29.5447 35.2941 30.4246 35.7644 31.3826 35.955C32.3406 36.1455 33.3335 36.0477 34.2359 35.6739C35.1383 35.3002 35.9095 34.6672 36.4522 33.8551C36.9948 33.043 37.2844 32.0882 37.2844 31.1114C37.2844 29.8017 36.7642 28.5456 35.838 27.6195C34.9119 26.6933 33.6558 26.173 32.346 26.173ZM32.346 33.5807C31.8577 33.5807 31.3803 33.4358 30.9742 33.1645C30.5682 32.8932 30.2517 32.5076 30.0648 32.0564C29.8779 31.6052 29.829 31.1087 29.9243 30.6297C30.0195 30.1508 30.2547 29.7108 30.6 29.3655C30.9454 29.0201 31.3853 28.785 31.8643 28.6897C32.3433 28.5944 32.8398 28.6433 33.291 28.8302C33.7421 29.0171 34.1278 29.3336 34.3991 29.7396C34.6704 30.1457 34.8152 30.6231 34.8152 31.1114C34.8152 31.7663 34.5551 32.3944 34.092 32.8574C33.629 33.3205 33.0009 33.5807 32.346 33.5807Z" fill="#F92237" />
</svg>
