<svg width="60" height="61" viewBox="0 0 60 61" fill="none" xmlns="http://www.w3.org/2000/svg">
    <rect y="0.384277" width="59.9017" height="60.0115" rx="29.9509" fill="#FBE2D7"/>
    <path d="M33.646 31.0998C34.6264 30.3284 35.342 29.2707 35.6933 28.0737C36.0445 26.8767 36.014 25.6 35.6058 24.4212C35.1977 23.2424 34.4323 22.2202 33.4161 21.4966C32.3999 20.7731 31.1835 20.3843 29.936 20.3843C28.6886 20.3843 27.4721 20.7731 26.456 21.4966C25.4398 22.2202 24.6744 23.2424 24.2662 24.4212C23.8581 25.6 23.8275 26.8767 24.1788 28.0737C24.53 29.2707 25.2456 30.3284 26.226 31.0998C24.5461 31.7728 23.0803 32.8891 21.9849 34.3297C20.8895 35.7703 20.2056 37.4811 20.006 39.2798C19.9916 39.4111 20.0031 39.544 20.0401 39.6708C20.077 39.7977 20.1385 39.916 20.2211 40.0191C20.3881 40.2273 20.6308 40.3606 20.896 40.3898C21.1612 40.4189 21.4272 40.3416 21.6354 40.1747C21.8435 40.0078 21.9769 39.765 22.006 39.4998C22.2256 37.545 23.1577 35.7396 24.6243 34.4286C26.0908 33.1175 27.9889 32.3928 29.956 32.3928C31.9231 32.3928 33.8213 33.1175 35.2878 34.4286C36.7543 35.7396 37.6864 37.545 37.906 39.4998C37.9332 39.7455 38.0505 39.9724 38.2351 40.1368C38.4198 40.3011 38.6588 40.3913 38.906 40.3898H39.016C39.2782 40.3596 39.5178 40.2271 39.6826 40.021C39.8474 39.815 39.9241 39.5521 39.896 39.2898C39.6955 37.486 39.0079 35.7708 37.9069 34.328C36.8059 32.8852 35.3329 31.7693 33.646 31.0998ZM29.936 30.3898C29.1449 30.3898 28.3715 30.1552 27.7138 29.7157C27.056 29.2761 26.5433 28.6514 26.2405 27.9205C25.9378 27.1896 25.8585 26.3853 26.0129 25.6094C26.1672 24.8335 26.5482 24.1208 27.1076 23.5613C27.667 23.0019 28.3797 22.621 29.1557 22.4666C29.9316 22.3123 30.7359 22.3915 31.4668 22.6943C32.1977 22.997 32.8224 23.5097 33.2619 24.1675C33.7014 24.8253 33.936 25.5986 33.936 26.3898C33.936 27.4506 33.5146 28.4681 32.7645 29.2182C32.0143 29.9683 30.9969 30.3898 29.936 30.3898Z" fill="#DB692A"/>
    </svg>
    