<svg width="43" height="36" viewBox="0 0 43 36" fill="none" xmlns="http://www.w3.org/2000/svg">
<rect y="0.0249939" width="43" height="35" rx="17.5" fill="#E6F5F8"/>
<path d="M30.5535 13.0792C30.4091 12.9987 30.2453 12.9564 30.0785 12.9564C29.9117 12.9564 29.7479 12.9987 29.6035 13.0792L26.25 14.6742C26.2229 13.9624 25.9108 13.2886 25.3792 12.7945C24.8476 12.3004 24.1381 12.0245 23.4 12.025H14.85C14.0941 12.025 13.3692 12.3147 12.8347 12.8305C12.3003 13.3462 12 14.0456 12 14.775V20.275C12 21.0043 12.3003 21.7038 12.8347 22.2195C13.3692 22.7353 14.0941 23.025 14.85 23.025H23.4C24.1381 23.0255 24.8476 22.7496 25.3792 22.2555C25.9108 21.7614 26.2229 21.0876 26.25 20.3758L29.632 22.0075C29.7615 22.0716 29.9045 22.106 30.05 22.1083C30.2279 22.1089 30.4023 22.0612 30.5535 21.9708C30.6904 21.8883 30.8032 21.7734 30.8814 21.6371C30.9595 21.5007 31.0003 21.3474 31 21.1917V13.8583C31.0003 13.7025 30.9595 13.5493 30.8814 13.4129C30.8032 13.2766 30.6904 13.1617 30.5535 13.0792ZM24.35 20.275C24.35 20.5181 24.2499 20.7513 24.0718 20.9232C23.8936 21.0951 23.652 21.1917 23.4 21.1917H14.85C14.598 21.1917 14.3564 21.0951 14.1782 20.9232C14.0001 20.7513 13.9 20.5181 13.9 20.275V14.775C13.9 14.5319 14.0001 14.2987 14.1782 14.1268C14.3564 13.9549 14.598 13.8583 14.85 13.8583H23.4C23.652 13.8583 23.8936 13.9549 24.0718 14.1268C24.2499 14.2987 24.35 14.5319 24.35 14.775V20.275ZM29.1 19.7067L26.25 18.3317V16.7183L29.1 15.3433V19.7067Z" fill="#3136E5"/>
</svg>
