<svg width="62" height="62" viewBox="0 0 37 38" fill="none" xmlns="http://www.w3.org/2000/svg">
<rect y="0.0249939" width="37" height="37" rx="18.5" fill="#E6F5F8"/>
<path d="M26.124 14.8875C26.0024 14.8217 25.8644 14.787 25.724 14.787C25.5836 14.787 25.4456 14.8217 25.324 14.8875L22.5 16.1925C22.4772 15.6102 22.2143 15.0588 21.7667 14.6546C21.319 14.2503 20.7216 14.0246 20.1 14.025H12.9C12.2635 14.025 11.653 14.262 11.2029 14.684C10.7529 15.106 10.5 15.6783 10.5 16.275V20.775C10.5 21.3717 10.7529 21.944 11.2029 22.366C11.653 22.7879 12.2635 23.025 12.9 23.025H20.1C20.7216 23.0254 21.319 22.7997 21.7667 22.3954C22.2143 21.9911 22.4772 21.4398 22.5 20.8575L25.348 22.1925C25.457 22.2449 25.5775 22.2731 25.7 22.275C25.8498 22.2754 25.9967 22.2365 26.124 22.1625C26.2393 22.0949 26.3343 22.001 26.4001 21.8894C26.4659 21.7779 26.5003 21.6525 26.5 21.525V15.525C26.5003 15.3975 26.4659 15.2721 26.4001 15.1606C26.3343 15.049 26.2393 14.955 26.124 14.8875V14.8875ZM20.9 20.775C20.9 20.9739 20.8157 21.1647 20.6657 21.3053C20.5157 21.446 20.3122 21.525 20.1 21.525H12.9C12.6878 21.525 12.4843 21.446 12.3343 21.3053C12.1843 21.1647 12.1 20.9739 12.1 20.775V16.275C12.1 16.0761 12.1843 15.8853 12.3343 15.7447C12.4843 15.604 12.6878 15.525 12.9 15.525H20.1C20.3122 15.525 20.5157 15.604 20.6657 15.7447C20.8157 15.8853 20.9 16.0761 20.9 16.275V20.775ZM24.9 20.31L22.5 19.185V17.865L24.9 16.74V20.31Z" fill="#3136E5"/>
</svg>
