<svg width="62" height="62" viewBox="0 0 62 62" fill="none" xmlns="http://www.w3.org/2000/svg">
    <rect x="0.179688" y="0.0249023" width="61" height="61" rx="30.5" fill="#F2DDF9"/>
    <path d="M38.0297 20.0249H23.3297C22.4943 20.0249 21.693 20.3568 21.1023 20.9475C20.5116 21.5383 20.1797 22.3395 20.1797 23.1749V37.8749C20.1797 38.7103 20.5116 39.5115 21.1023 40.1023C21.693 40.693 22.4943 41.0249 23.3297 41.0249H38.0297C38.2024 41.0225 38.3746 41.0049 38.5442 40.9724L38.8592 40.8989H38.9327H38.9852L39.3737 40.7519L39.5102 40.6784C39.6152 40.6154 39.7307 40.5629 39.8357 40.4894C39.9759 40.3862 40.1092 40.274 40.2347 40.1534L40.3082 40.0589C40.4113 39.9544 40.5061 39.8421 40.5917 39.7229L40.6862 39.5864C40.7595 39.4695 40.8228 39.3466 40.8752 39.2189C40.904 39.1685 40.9286 39.1158 40.9487 39.0614C41.0012 38.9354 41.0327 38.7989 41.0747 38.6624V38.5049C41.1342 38.2997 41.1695 38.0883 41.1797 37.8749V23.1749C41.1797 22.3395 40.8478 21.5383 40.2571 20.9475C39.6663 20.3568 38.8651 20.0249 38.0297 20.0249ZM23.3297 38.9249C23.0512 38.9249 22.7841 38.8143 22.5872 38.6174C22.3903 38.4205 22.2797 38.1534 22.2797 37.8749V33.3494L25.7342 29.8844C25.8318 29.786 25.9479 29.7079 26.0759 29.6546C26.2038 29.6013 26.3411 29.5738 26.4797 29.5738C26.6183 29.5738 26.7555 29.6013 26.8835 29.6546C27.0114 29.7079 27.1276 29.786 27.2252 29.8844L36.2552 38.9249H23.3297ZM39.0797 37.8749C39.0787 38.0044 39.0538 38.1325 39.0062 38.2529C38.9822 38.3041 38.9541 38.3532 38.9222 38.3999C38.8941 38.4444 38.8625 38.4865 38.8277 38.5259L33.2102 32.9084L34.1342 31.9844C34.2318 31.886 34.3479 31.8079 34.4759 31.7546C34.6038 31.7013 34.7411 31.6738 34.8797 31.6738C35.0183 31.6738 35.1555 31.7013 35.2835 31.7546C35.4114 31.8079 35.5276 31.886 35.6252 31.9844L39.0797 35.4494V37.8749ZM39.0797 32.4779L37.1057 30.5249C36.5048 29.9547 35.708 29.6369 34.8797 29.6369C34.0513 29.6369 33.2546 29.9547 32.6537 30.5249L31.7297 31.4489L28.7057 28.4249C28.1048 27.8547 27.308 27.5369 26.4797 27.5369C25.6513 27.5369 24.8546 27.8547 24.2537 28.4249L22.2797 30.3779V23.1749C22.2797 22.8964 22.3903 22.6294 22.5872 22.4324C22.7841 22.2355 23.0512 22.1249 23.3297 22.1249H38.0297C38.3082 22.1249 38.5752 22.2355 38.7722 22.4324C38.9691 22.6294 39.0797 22.8964 39.0797 23.1749V32.4779Z" fill="#702FEB"/>
    </svg>
    